<svg width="57" height="43" viewBox="0 0 57 43" fill="none" xmlns="http://www.w3.org/2000/svg">
<path fill-rule="evenodd" clip-rule="evenodd" d="M25.6606 0.208917C25.565 0.323881 23.8466 2.43239 21.8421 4.89463C19.8375 7.35686 18.0817 9.49653 17.9403 9.64958L17.6832 9.92762L14.4426 5.35186C12.6603 2.83506 11.0746 0.601323 10.9189 0.387989L10.6359 0H18.2351C25.4612 0 25.8259 0.0102668 25.6606 0.208917ZM45.745 0.268608C45.6158 0.416282 43.7958 2.61898 41.7006 5.16323C39.6055 7.70761 37.849 9.78925 37.7973 9.78925C37.7139 9.78925 30.3026 0.550586 30.071 0.157941C29.9942 0.0275768 31.3747 0 37.979 0H45.98L45.745 0.268608ZM54.7526 9.75941L57 12.535H48.316H39.6318L39.9041 12.2035C40.0538 12.0212 42.0267 9.63012 44.2881 6.88984L48.3998 1.90759L50.4524 4.44575C51.5815 5.84168 53.5164 8.23288 54.7526 9.75941ZM12.3989 7.80084C14.2071 10.3513 15.6649 12.4602 15.6385 12.4874C15.612 12.5145 12.0825 12.5228 7.79516 12.506L0 12.4753L4.17885 7.31018L8.35771 2.14492L8.73445 2.65432C8.94168 2.93439 10.5907 5.25038 12.3989 7.80084ZM32.0042 7.5807L35.8918 12.4753L31.8346 12.5067C29.6032 12.5239 25.9444 12.5239 23.704 12.5067L19.6304 12.4753L23.7331 7.44628C26.8635 3.60901 27.869 2.4491 27.9762 2.55165C28.0535 2.62555 29.8661 4.88866 32.0042 7.5807ZM19.8148 28.762C22.4642 35.8812 24.6184 41.7199 24.6018 41.737C24.5656 41.774 1.06235 16.6082 0.664653 16.1065L0.387103 15.7565L7.69247 15.7872L14.9978 15.818L19.8148 28.762ZM39.1372 15.9672C39.1014 16.0822 36.6924 22.2735 33.7839 29.7259C29.2078 41.4512 28.4804 43.2354 28.3823 42.9772C28.3198 42.8131 26.1195 36.9037 23.4926 29.8453C20.8656 22.7869 18.608 16.7297 18.4754 16.3851L18.2343 15.7583H28.7184C38.6505 15.7583 39.1991 15.7693 39.1372 15.9672ZM52.7854 19.9696C50.6529 22.2858 45.1674 28.2498 40.5957 33.2229C36.0238 38.1961 32.266 42.2474 32.2451 42.2259C32.2241 42.2045 34.524 36.2412 37.3559 28.9744L42.5049 15.7618L49.5838 15.7601L56.6626 15.7583L52.7854 19.9696Z" fill="url(#paint0_linear_67_84)"/>
<defs>
<linearGradient id="paint0_linear_67_84" x1="-3.44758" y1="-3.04094" x2="26.9702" y2="68.2859" gradientUnits="userSpaceOnUse">
<stop stop-color="#CC1D19"/>
<stop offset="1" stop-color="#CC4F19"/>
</linearGradient>
</defs>
</svg>
