<svg width="60" height="60" viewBox="0 0 60 60" fill="none" xmlns="http://www.w3.org/2000/svg">
<path fill-rule="evenodd" clip-rule="evenodd" d="M39.9636 1.86307C40.1089 2.88757 40.6768 6.83741 41.2257 10.6405C41.7745 14.4435 42.2235 17.5915 42.2235 17.6357C42.2235 17.6844 42.527 17.7583 42.9879 17.822C46.8168 18.3512 60 20.2706 60 20.2989C60 20.3189 59.288 20.5964 58.4179 20.9155C57.5478 21.2347 52.4681 23.0974 47.1298 25.0549C36.7672 28.8548 32.9499 30.255 29.888 31.3794C28.8328 31.7669 27.9353 32.075 27.8935 32.0642C27.8509 32.053 28.6382 29.8167 29.6869 26.9697C30.715 24.1787 33.3693 16.9686 35.5853 10.9474C37.8014 4.92609 39.6336 -0.000212915 39.6569 6.90183e-09C39.6802 0.000212929 39.8182 0.838557 39.9636 1.86307ZM27.2913 10.8593C28.2426 10.9686 29.5497 11.1931 30.3844 11.3905C31.2346 11.5915 32.7794 12.0529 32.8578 12.1294C32.908 12.1783 32.173 14.3007 32.0638 14.4222C32.0389 14.4498 31.675 14.3636 31.2551 14.2306C30.3332 13.9386 29.1874 13.6772 27.9567 13.478C26.7826 13.2881 23.8099 13.2119 22.5528 13.3396C18.1821 13.7837 14.2289 15.3855 10.7947 18.104C9.85033 18.8515 8.15702 20.5386 7.3954 21.4908C4.71257 24.8449 3.15855 28.5925 2.60713 33.038C2.4945 33.946 2.49521 36.799 2.60827 37.7223C3.14775 42.1278 4.72288 45.9319 7.38374 49.2555C8.15673 50.2211 9.84607 51.9053 10.7947 52.6563C14.2014 55.353 18.1004 56.9416 22.4711 57.4139C23.5013 57.5252 26.0335 57.5061 27.1491 57.3786C32.0569 56.8178 36.5439 54.7087 40.0428 51.3182C43.705 47.7696 45.8476 43.5979 46.6432 38.4675C46.7812 37.5776 46.8028 37.16 46.8028 35.3801C46.8028 33.6003 46.7812 33.1827 46.6432 32.2928C46.44 30.9824 46.1476 29.7076 45.8155 28.6846C45.6719 28.242 45.566 27.8682 45.5803 27.8539C45.5946 27.8397 46.1251 27.6388 46.7591 27.4076L47.9121 26.987L48.2246 27.9558C49.6562 32.3936 49.7364 37.557 48.444 42.0816C47.5425 45.2376 46.0175 48.1959 43.9591 50.7815C43.1308 51.8221 40.9642 53.9647 39.9481 54.7483C36.1014 57.7149 32.0371 59.3597 27.1846 59.9137C26.1703 60.0294 23.1393 60.0286 22.1361 59.9122C17.9936 59.4317 14.3016 58.1039 11.025 55.9161C4.63457 51.6493 0.689756 44.9561 0.0511535 37.2964C-0.0514524 36.0655 0.00763707 33.4206 0.163004 32.2928C0.812556 27.5762 2.53062 23.5459 5.42762 19.9433C9.53605 14.8342 15.7251 11.4638 22.1005 10.8638C22.5503 10.8215 23.0462 10.7741 23.2027 10.7586C23.7092 10.7083 26.5962 10.7794 27.2913 10.8593ZM27.1167 17.7728C28.0805 17.9141 29.0341 18.126 29.8666 18.3836L30.5576 18.5975L30.4831 18.7913C30.442 18.8979 30.2497 19.4151 30.0557 19.9405C29.8615 20.4658 29.6912 20.9073 29.6769 20.9215C29.6627 20.9357 29.3929 20.8659 29.0772 20.7664C28.3943 20.5511 27.3492 20.3335 26.4941 20.2288C25.6896 20.1303 23.5742 20.1293 22.8471 20.2271C20.6394 20.5242 18.6167 21.2103 16.8811 22.2507C12.8782 24.6504 10.2902 28.5039 9.54095 33.1799C9.36681 34.2666 9.36617 36.5092 9.5396 37.5803C10.0917 40.9898 11.5158 43.8037 13.8864 46.1694C15.3143 47.5942 17.0054 48.7302 18.7777 49.4548C20.8181 50.2891 22.4684 50.6106 24.6959 50.6076C27.1827 50.6043 29.202 50.1435 31.3799 49.0824C38.1149 45.8012 41.4556 38.1548 39.3044 30.9444C39.1938 30.5735 39.1253 30.2495 39.1524 30.2244C39.2686 30.1164 41.398 29.3823 41.4475 29.4332C41.5397 29.5281 41.9944 31.1727 42.143 31.9487C42.4875 33.7486 42.5623 35.9311 42.3371 37.6158C41.8191 41.4908 40.1489 44.9519 37.4603 47.721C34.6242 50.6421 31.0046 52.4548 26.8646 53.0272C26.0019 53.1465 23.3372 53.1474 22.4916 53.0287C17.1104 52.2733 12.639 49.4717 9.72988 45.0326C8.30677 42.8611 7.30005 40.0677 6.99138 37.4342C6.50174 33.2557 7.5209 29.0449 9.87245 25.5309C12.8735 21.0462 17.6521 18.1966 23.0483 17.6736C23.932 17.588 26.24 17.6442 27.1167 17.7728ZM26.1 24.5899C26.86 24.6909 27.9836 24.9525 28.0975 25.055C28.1517 25.1038 27.4146 27.2211 27.3022 27.3394C27.2759 27.3672 27.0147 27.3286 26.7218 27.2538C22.9562 26.2918 18.9278 28.134 17.1772 31.6185C16.536 32.8951 16.3087 33.8954 16.3148 35.4156C16.3206 36.8815 16.5589 37.9169 17.1686 39.1264C19.2358 43.2267 24.2223 44.9153 28.3315 42.9063C30.5749 41.8094 32.1579 39.8753 32.8177 37.4251C32.9874 36.7949 33.0056 36.6038 33.0091 35.4156C33.0131 34.0983 32.9865 33.8973 32.6556 32.7452C32.6169 32.6104 32.675 32.5716 33.2049 32.3789C33.5308 32.2603 34.0605 32.0659 34.382 31.9467L34.9666 31.7301L35.1068 32.1833C35.7584 34.2887 35.7325 36.6634 35.0352 38.7869C33.5213 43.3967 28.9713 46.5111 24.1339 46.2488C18.905 45.9652 14.6405 42.1006 13.8812 36.9574C13.7298 35.9321 13.7775 34.1219 13.9807 33.1791C14.4909 30.8123 15.8271 28.5679 17.6066 27.0888C19.354 25.6363 21.2967 24.8117 23.6293 24.5324C24.1628 24.4686 25.4039 24.4974 26.1 24.5899ZM25.6297 31.4866C25.7788 31.5466 25.7744 31.5665 25.3701 32.6702C25.1439 33.2876 24.9415 33.8101 24.9203 33.8313C24.8991 33.8525 24.7292 33.8818 24.5428 33.8965C23.7661 33.9576 23.1225 34.6973 23.1835 35.4586C23.2863 36.7377 24.7639 37.3186 25.7159 36.4542C25.9782 36.2161 26.104 35.9142 26.1482 35.4168L26.1891 34.9568L27.2913 34.5476C27.8974 34.3226 28.4162 34.1384 28.444 34.1383C28.5519 34.1379 28.6664 34.7706 28.6686 35.3801C28.6728 36.5189 28.2187 37.5573 27.3809 38.3247C25.2693 40.2592 21.9595 39.4457 20.887 36.7286C20.7408 36.3582 20.719 36.1827 20.719 35.3801C20.719 34.5803 20.7412 34.4008 20.8858 34.0316C21.1322 33.4028 21.6325 32.6894 22.089 32.3158C22.5484 31.9399 23.3327 31.553 23.8475 31.4484C24.2413 31.3684 25.3974 31.3931 25.6297 31.4866Z" fill="url(#paint0_linear_67_70)"/>
<defs>
<linearGradient id="paint0_linear_67_70" x1="30" y1="0" x2="30" y2="60" gradientUnits="userSpaceOnUse">
<stop stop-color="#CC2519"/>
<stop offset="1" stop-color="#CC3F19"/>
</linearGradient>
</defs>
</svg>
