<svg width="38" height="60" viewBox="0 0 38 60" fill="none" xmlns="http://www.w3.org/2000/svg">
<path fill-rule="evenodd" clip-rule="evenodd" d="M22.8084 0.319302C30.3778 1.99019 35.9472 7.60945 37.6001 15.2432C37.9677 16.9402 37.9996 20.6654 37.6613 22.3748C36.5429 28.0274 33.2014 32.7088 28.2644 35.5396C26.3365 36.6452 23.8812 37.4774 21.5882 37.8029C20.2024 37.9996 17.2156 37.9654 15.9058 37.7378C8.05149 36.3734 1.985 30.5213 0.347579 22.7295C0.0113782 21.1298 -0.102146 18.3709 0.101298 16.7415C1.12489 8.53887 7.20898 1.91626 15.1727 0.336162C16.9998 -0.0263913 16.9753 -0.0246429 19.4026 0.0211914C21.0807 0.0529132 21.9443 0.128471 22.8084 0.319302ZM17.9114 14.1478C17.3021 15.5731 16.8204 16.5319 16.6625 16.6337C16.5082 16.7331 15.3886 16.8903 13.8633 17.0268L11.3212 17.2544L12.6144 18.3755C14.8683 20.3295 15.3443 20.8187 15.3391 21.1761C15.3365 21.3546 15.0912 22.5575 14.7937 23.8493C14.4808 25.2088 14.3118 26.1745 14.3926 26.1421C14.4693 26.1115 15.4818 25.5183 16.6427 24.8239C17.8036 24.1294 18.8461 23.5613 18.9595 23.5613C19.0728 23.5613 20.1675 24.1514 21.392 24.8726C22.6165 25.5938 23.6311 26.1839 23.6466 26.1839C23.6621 26.1839 23.4322 25.1303 23.1357 23.8423C22.8392 22.5544 22.5946 21.3542 22.5919 21.1753C22.5868 20.8175 22.9185 20.4773 25.2601 18.4393L26.6214 17.2544L24.0736 17.0232C22.6039 16.8897 21.4174 16.7236 21.2695 16.6306C21.1103 16.5304 20.6384 15.5886 20.0243 14.1455C19.4805 12.8674 19.0058 11.823 18.9693 11.8246C18.9329 11.8261 18.4569 12.8715 17.9114 14.1478ZM13.2983 38.9055C15.2119 39.4688 16.2988 39.6048 18.9031 39.6071C21.5817 39.6096 22.9044 39.4405 24.8137 38.8514C25.3354 38.6906 25.7922 38.589 25.8291 38.6258C25.9669 38.7638 35.9306 56.0939 35.8934 56.1311C35.872 56.1524 34.8944 56.0267 33.7209 55.8515C31.1848 55.4728 30.8065 55.4608 30.5535 55.7514C30.4488 55.8716 30.0382 56.885 29.6409 58.0036C29.2437 59.1219 28.8682 60.0203 28.8067 59.9997C28.745 59.9792 26.6558 56.4227 24.1639 52.0964C20.8647 46.3685 19.5425 44.1795 19.2994 44.0431C19.0026 43.8766 18.9284 43.8766 18.6317 44.0431C18.3886 44.1795 17.0664 46.3685 13.7672 52.0964C11.2752 56.4227 9.18648 59.979 9.12541 59.9994C9.06433 60.0198 8.68754 59.1214 8.28802 58.0032C7.88863 56.8849 7.47749 55.8716 7.37446 55.7514C7.12593 55.4613 6.75439 55.4731 4.27634 55.8492C3.13023 56.0232 2.14898 56.1496 2.09578 56.1302C2.0427 56.1107 4.27821 52.1435 7.06361 47.3141C10.2976 41.7065 12.1842 38.5548 12.2836 38.593C12.3694 38.6259 12.826 38.7665 13.2983 38.9055Z" fill="url(#paint0_linear_67_57)"/>
<defs>
<linearGradient id="paint0_linear_67_57" x1="-2.29213" y1="-4.24318" x2="56.161" y2="61.0662" gradientUnits="userSpaceOnUse">
<stop stop-color="#CC1D19"/>
<stop offset="1" stop-color="#CC4F19"/>
</linearGradient>
</defs>
</svg>
