<svg width="18" height="18" viewBox="0 0 18 18" fill="none" xmlns="http://www.w3.org/2000/svg">
<path d="M13.7344 3.79984C12.7862 3.3578 11.7595 3.03697 10.6901 2.8516C10.6807 2.8513 10.6714 2.85306 10.6628 2.85675C10.6541 2.86045 10.6464 2.86599 10.6402 2.87298C10.5119 3.10826 10.3621 3.41484 10.2623 3.65011C9.12799 3.479 7.97442 3.479 6.8401 3.65011C6.74028 3.40771 6.59056 3.10826 6.4551 2.87298C6.44797 2.85873 6.42658 2.8516 6.40519 2.8516C5.33575 3.03697 4.31621 3.3578 3.36084 3.79984C3.35371 3.79984 3.34658 3.80697 3.33945 3.8141C1.40019 6.71585 0.865468 9.53919 1.12926 12.334C1.12926 12.3483 1.13639 12.3625 1.15065 12.3697C2.43399 13.3108 3.66741 13.8811 4.88658 14.259C4.90797 14.2661 4.92936 14.259 4.93649 14.2447C5.22167 13.8526 5.47834 13.4391 5.69936 13.0042C5.71362 12.9757 5.69936 12.9472 5.67084 12.94C5.26445 12.7832 4.87945 12.5978 4.50158 12.3839C4.47306 12.3697 4.47306 12.3269 4.49445 12.3055C4.57288 12.2484 4.6513 12.1843 4.72973 12.1272C4.74399 12.113 4.76537 12.113 4.77963 12.1201C7.23223 13.2395 9.87732 13.2395 12.3014 12.1201C12.3157 12.113 12.337 12.113 12.3513 12.1272C12.4297 12.1914 12.5082 12.2484 12.5866 12.3126C12.6151 12.334 12.6151 12.3768 12.5794 12.391C12.2087 12.6121 11.8166 12.7903 11.4102 12.9472C11.3817 12.9543 11.3745 12.9899 11.3817 13.0113C11.6098 13.4462 11.8665 13.8597 12.1445 14.2519C12.1659 14.259 12.1873 14.2661 12.2087 14.259C13.435 13.8811 14.6684 13.3108 15.9518 12.3697C15.966 12.3625 15.9732 12.3483 15.9732 12.334C16.2869 9.10428 15.4527 6.30234 13.763 3.8141C13.7558 3.80697 13.7487 3.79984 13.7344 3.79984ZM6.0701 10.63C5.33575 10.63 4.7226 9.95271 4.7226 9.11854C4.7226 8.28437 5.32149 7.60706 6.0701 7.60706C6.82584 7.60706 7.42473 8.2915 7.4176 9.11854C7.4176 9.95271 6.81871 10.63 6.0701 10.63ZM11.0394 10.63C10.3051 10.63 9.69195 9.95271 9.69195 9.11854C9.69195 8.28437 10.2908 7.60706 11.0394 7.60706C11.7952 7.60706 12.3941 8.2915 12.3869 9.11854C12.3869 9.95271 11.7952 10.63 11.0394 10.63Z" fill="white"/>
</svg>
