<svg width="18" height="18" viewBox="0 0 18 18" fill="none" xmlns="http://www.w3.org/2000/svg">
<path d="M8.55703 6.3292C7.33046 6.3292 6.32948 7.33018 6.32948 8.55675C6.32948 9.78332 7.33046 10.7843 8.55703 10.7843C9.7836 10.7843 10.7846 9.78332 10.7846 8.55675C10.7846 7.33018 9.7836 6.3292 8.55703 6.3292ZM15.238 8.55675C15.238 7.63432 15.2464 6.72024 15.1946 5.79947C15.1428 4.72998 14.8988 3.78081 14.1167 2.99874C13.333 2.21501 12.3855 1.9727 11.316 1.9209C10.3935 1.86909 9.47947 1.87745 8.5587 1.87745C7.63627 1.87745 6.72219 1.86909 5.80142 1.9209C4.73193 1.9727 3.78276 2.21668 3.0007 2.99874C2.21696 3.78248 1.97465 4.72998 1.92285 5.79947C1.87105 6.72191 1.8794 7.63599 1.8794 8.55675C1.8794 9.47751 1.87105 10.3933 1.92285 11.314C1.97465 12.3835 2.21863 13.3327 3.0007 14.1148C3.78443 14.8985 4.73193 15.1408 5.80142 15.1926C6.72386 15.2444 7.63794 15.2361 8.5587 15.2361C9.48114 15.2361 10.3952 15.2444 11.316 15.1926C12.3855 15.1408 13.3346 14.8968 14.1167 14.1148C14.9004 13.331 15.1428 12.3835 15.1946 11.314C15.248 10.3933 15.238 9.47919 15.238 8.55675ZM8.55703 11.9841C6.66036 11.9841 5.12965 10.4534 5.12965 8.55675C5.12965 6.66008 6.66036 5.12937 8.55703 5.12937C10.4537 5.12937 11.9844 6.66008 11.9844 8.55675C11.9844 10.4534 10.4537 11.9841 8.55703 11.9841ZM12.1248 5.78944C11.6819 5.78944 11.3243 5.43183 11.3243 4.989C11.3243 4.54616 11.6819 4.18855 12.1248 4.18855C12.5676 4.18855 12.9252 4.54616 12.9252 4.989C12.9254 5.09415 12.9047 5.1983 12.8646 5.29547C12.8244 5.39265 12.7654 5.48094 12.6911 5.55529C12.6167 5.62965 12.5284 5.6886 12.4313 5.72878C12.3341 5.76896 12.2299 5.78958 12.1248 5.78944Z" fill="white"/>
</svg>
