<svg width="19" height="17" viewBox="0 0 19 17" fill="none" xmlns="http://www.w3.org/2000/svg">
<path d="M3.25 0.6875C2.4212 0.6875 1.62634 1.01674 1.04029 1.60279C0.45424 2.18884 0.125 2.9837 0.125 3.8125V4.12656L9.5 9.175L18.875 4.12813V3.8125C18.875 2.9837 18.5458 2.18884 17.9597 1.60279C17.3737 1.01674 16.5788 0.6875 15.75 0.6875H3.25ZM18.875 5.90156L9.87031 10.75C9.7565 10.8113 9.62926 10.8433 9.5 10.8433C9.37074 10.8433 9.2435 10.8113 9.12969 10.75L0.125 5.90156V13.1875C0.125 14.0163 0.45424 14.8112 1.04029 15.3972C1.62634 15.9833 2.4212 16.3125 3.25 16.3125H15.75C16.5788 16.3125 17.3737 15.9833 17.9597 15.3972C18.5458 14.8112 18.875 14.0163 18.875 13.1875V5.90156Z" fill="white"/>
</svg>
