<svg width="358" height="132" viewBox="0 0 358 132" fill="none" xmlns="http://www.w3.org/2000/svg">
<path d="M24.4867 28.4396C24.2904 28.332 24.0692 28.2756 23.8442 28.2756C23.6193 28.2756 23.3981 28.332 23.2017 28.4396L20.2534 30.1151L18.2502 31.2079L15.3021 32.8834C15.1057 32.9909 14.8845 33.0473 14.6596 33.0473C14.4346 33.0473 14.2134 32.9909 14.017 32.8834L11.6735 31.5721C11.4829 31.465 11.3236 31.3115 11.2111 31.1265C11.0986 30.9414 11.0368 30.7311 11.0314 30.5158V27.9296C11.0288 27.7127 11.0873 27.4993 11.2007 27.3129C11.314 27.1265 11.4776 26.9744 11.6735 26.8733L13.9792 25.5984C14.1756 25.491 14.3968 25.4346 14.6217 25.4346C14.8467 25.4346 15.0679 25.491 15.2643 25.5984L17.5699 26.8733C17.7606 26.9804 17.9199 27.1339 18.0323 27.319C18.1448 27.504 18.2067 27.7143 18.212 27.9296V29.6052L20.2152 28.476V26.8005C20.2179 26.5835 20.1593 26.3701 20.046 26.1837C19.9327 25.9973 19.769 25.8452 19.5731 25.7441L15.3021 23.3402C15.1057 23.2328 14.8845 23.1764 14.6596 23.1764C14.4346 23.1764 14.2134 23.2328 14.017 23.3402L9.66982 25.7443C9.47392 25.8453 9.31029 25.9974 9.19699 26.1838C9.08369 26.3701 9.02511 26.5835 9.02772 26.8005V31.645C9.02508 31.8619 9.08364 32.0754 9.19695 32.2617C9.31025 32.4481 9.47389 32.6003 9.66982 32.7013L14.0165 35.1054C14.2129 35.2128 14.4341 35.2692 14.6591 35.2692C14.884 35.2692 15.1052 35.2128 15.3016 35.1054L18.2497 33.4662L20.2529 32.3371L23.2012 30.6979C23.3975 30.5904 23.6188 30.5339 23.8437 30.5339C24.0687 30.5339 24.2899 30.5904 24.4862 30.6979L26.7919 31.9728C26.9826 32.08 27.1418 32.2335 27.2543 32.4185C27.3668 32.6035 27.4287 32.8138 27.434 33.0291V35.6153C27.4366 35.8322 27.3781 36.0457 27.2648 36.2321C27.1515 36.4185 26.9878 36.5706 26.7919 36.6716L24.4862 37.9829C24.2898 38.0904 24.0686 38.1468 23.8437 38.1468C23.6188 38.1468 23.3976 38.0904 23.2012 37.9829L20.8955 36.7081C20.7049 36.6009 20.5456 36.4474 20.4331 36.2624C20.3206 36.0773 20.2588 35.867 20.2534 35.6517V33.976L18.2502 35.1052V36.7807C18.2476 36.9977 18.3061 37.2111 18.4194 37.3975C18.5327 37.5839 18.6964 37.736 18.8923 37.8371L23.239 40.2411C23.4354 40.3486 23.6566 40.405 23.8816 40.405C24.1065 40.405 24.3277 40.3486 24.5241 40.2411L28.8708 37.8371C29.0615 37.7299 29.2207 37.5764 29.3332 37.3914C29.4457 37.2064 29.5076 36.996 29.5129 36.7807V31.9364C29.5155 31.7194 29.457 31.506 29.3437 31.3196C29.2304 31.1332 29.0667 30.9811 28.8708 30.8801L24.4867 28.4396Z" fill="#8247E5"/>
<path d="M39.4625 27.92C40.1478 27.9097 40.8215 28.0941 41.4022 28.4509C41.9898 28.8239 42.458 29.3519 42.7528 29.9742C43.0986 30.7092 43.2679 31.5122 43.2475 32.3214C43.2662 33.1278 43.097 33.9277 42.7528 34.6604C42.4597 35.2859 41.9913 35.8169 41.4022 36.1916C40.8215 36.5484 40.1478 36.7328 39.4625 36.7226C38.8548 36.7388 38.2552 36.5837 37.7349 36.2755C37.2625 35.9887 36.8943 35.5633 36.6827 35.0598V40.7073H33.9972V28.0281H36.6827V29.5823C36.8945 29.0789 37.2627 28.6537 37.7351 28.367C38.2553 28.0589 38.8549 27.9038 39.4625 27.92ZM38.5987 30.2285C38.3396 30.2202 38.0817 30.266 37.8421 30.3628C37.6025 30.4596 37.3866 30.6053 37.2089 30.7901C36.8476 31.1645 36.667 31.6749 36.667 32.3213C36.6384 32.8788 36.8328 33.4252 37.2089 33.8445C37.3854 34.0314 37.6009 34.179 37.8406 34.2773C38.0804 34.3756 38.3389 34.4223 38.5987 34.4142C38.8573 34.4247 39.1152 34.3806 39.355 34.2851C39.5947 34.1895 39.8108 34.0446 39.9885 33.8602C40.3394 33.4909 40.5149 32.978 40.5149 32.3214C40.5149 31.6649 40.3395 31.152 39.9887 30.7826C39.8109 30.5982 39.5949 30.4533 39.3551 30.3577C39.1153 30.2621 38.8574 30.218 38.5987 30.2285ZM48.7443 27.92C49.5543 27.9065 50.3552 28.0888 51.0761 28.4509C51.7546 28.798 52.3163 29.3297 52.6937 29.9821C53.0987 30.6966 53.302 31.504 53.2826 32.3211C53.3023 33.1382 53.0993 33.9457 52.6946 34.6604C52.3172 35.3128 51.7555 35.8446 51.077 36.1916C50.3561 36.5537 49.5551 36.7361 48.7451 36.7226C47.9325 36.7355 47.1291 36.5532 46.405 36.1916C45.7232 35.8463 45.1584 35.3144 44.7795 34.6604C44.3742 33.946 44.1706 33.1386 44.1897 32.3214C44.1704 31.5043 44.3737 30.697 44.7786 29.9825C45.1576 29.3285 45.7223 28.7965 46.4042 28.4513C47.1282 28.0895 47.9317 27.9071 48.7443 27.92ZM48.7443 30.1975C48.5011 30.1931 48.2597 30.2396 48.0363 30.3338C47.8129 30.428 47.6125 30.5678 47.4486 30.7439C47.0978 31.1082 46.9224 31.6339 46.9224 32.3213C46.9224 33.0086 47.0978 33.5318 47.4486 33.8909C47.6137 34.0649 47.8145 34.2028 48.0378 34.2957C48.261 34.3885 48.5018 34.4341 48.7443 34.4294C48.9857 34.4345 49.2254 34.3891 49.4475 34.2963C49.6695 34.2034 49.8688 34.0652 50.032 33.8909C50.3775 33.5318 50.5503 33.0086 50.5503 32.3213C50.5503 31.6339 50.3775 31.1082 50.032 30.7439C49.87 30.5677 49.6711 30.4277 49.4489 30.3334C49.2267 30.2392 48.9864 30.1926 48.7443 30.1975ZM57.3664 23.0104V36.6148H54.6807V23.0107L57.3664 23.0104ZM61.2456 28.0271L63.35 33.2908L65.3131 28.0279H68.2814L62.8162 40.7081H59.8635L61.9206 36.2916L58.2459 28.0281L61.2456 28.0271ZM72.5061 27.92C73.1138 27.9037 73.7134 28.0589 74.2337 28.367C74.7079 28.656 75.0805 29.0803 75.3016 29.5828V28.0286H77.9714V36.5686C77.9833 37.315 77.8221 38.0542 77.5001 38.7307C77.1863 39.3717 76.6828 39.9052 76.0552 40.2619C75.406 40.6415 74.5998 40.8313 73.6367 40.8313C72.3174 40.8313 71.2626 40.5261 70.4721 39.9157C69.6811 39.3045 69.1699 38.4107 69.0509 37.4305H71.705C71.7791 37.7657 71.985 38.0587 72.2781 38.2461C72.6299 38.4551 73.0371 38.5569 73.4481 38.5385C73.9412 38.5606 74.4234 38.392 74.7909 38.0691C75.1313 37.7562 75.3014 37.2561 75.3014 36.5688V35.0606C75.0804 35.5631 74.7077 35.9873 74.2335 36.2764C73.7132 36.5845 73.1136 36.7396 72.5059 36.7234C71.8206 36.7337 71.1469 36.5492 70.5662 36.1924C69.9771 35.8177 69.5087 35.2867 69.2156 34.6612C68.8714 33.9286 68.7022 33.1286 68.7209 32.3223C68.7006 31.5132 68.8698 30.7104 69.2156 29.9755C69.5104 29.3532 69.9786 28.8252 70.5662 28.4523C71.1468 28.0949 71.8206 27.9101 72.5061 27.92ZM73.3699 30.2283C73.1112 30.2179 72.8533 30.2619 72.6136 30.3575C72.3738 30.453 72.1578 30.5979 71.98 30.7823C71.6293 31.1516 71.4539 31.6646 71.4539 32.3211C71.4539 32.9776 71.6293 33.4906 71.98 33.8599C72.1578 34.0443 72.3738 34.1892 72.6136 34.2847C72.8533 34.3803 73.1112 34.4243 73.3699 34.4139C73.6296 34.422 73.8881 34.3753 74.1279 34.2771C74.3677 34.1789 74.5831 34.0313 74.7597 33.8445C75.1358 33.4252 75.3302 32.8788 75.3016 32.3213C75.3016 31.675 75.121 31.1646 74.7597 30.7901C74.5819 30.6053 74.366 30.4596 74.1264 30.3628C73.8868 30.266 73.6289 30.22 73.3699 30.2283ZM83.9237 27.92C84.7337 27.9065 85.5346 28.0888 86.2556 28.4509C86.9341 28.798 87.4958 29.3297 87.8732 29.9821C88.2781 30.6966 88.4814 31.504 88.462 32.3211C88.4815 33.1383 88.2784 33.9458 87.8735 34.6604C87.4961 35.3128 86.9344 35.8446 86.2559 36.1916C85.535 36.5537 84.7341 36.7361 83.9241 36.7226C83.1115 36.7355 82.308 36.5532 81.5839 36.1916C80.9021 35.8463 80.3373 35.3144 79.9584 34.6604C79.5534 33.9459 79.3502 33.1385 79.3695 32.3214C79.3502 31.5043 79.5534 30.697 79.9584 29.9825C80.3373 29.3285 80.9021 28.7965 81.5839 28.4513C82.3079 28.0896 83.1112 27.9072 83.9237 27.92ZM83.9237 30.1975C83.6805 30.1931 83.4392 30.2396 83.2157 30.3338C82.9923 30.428 82.792 30.5678 82.628 30.7439C82.2772 31.1082 82.1018 31.6339 82.1018 32.3213C82.1018 33.0086 82.2772 33.5318 82.628 33.8909C82.7932 34.0649 82.9939 34.2028 83.2172 34.2957C83.4405 34.3885 83.6812 34.4341 83.9237 34.4294C84.1651 34.4345 84.4048 34.3891 84.6269 34.2963C84.8489 34.2034 85.0482 34.0652 85.2115 33.8909C85.557 33.5318 85.7297 33.0086 85.7297 32.3213C85.7297 31.6339 85.557 31.1082 85.2115 30.7439C85.0494 30.5677 84.8505 30.4277 84.6283 30.3334C84.4061 30.2392 84.1658 30.1926 83.9237 30.1975ZM95.4199 27.9357C96.4251 27.9357 97.2235 28.264 97.815 28.9205C98.4065 29.577 98.7023 30.4798 98.7023 31.6287V36.6148H96.0167V31.9367C96.0167 31.3627 95.8623 30.9138 95.5534 30.5901C95.3949 30.4279 95.2029 30.3007 94.9901 30.2171C94.7774 30.1335 94.5489 30.0954 94.3199 30.1053C94.0794 30.0939 93.8392 30.1334 93.6156 30.221C93.3921 30.3086 93.1904 30.4423 93.0242 30.6131C92.7053 30.9517 92.5458 31.4338 92.5458 32.0592V36.6148H89.8603V28.0281H92.5458V29.5977C92.7896 29.0928 93.1802 28.6698 93.6687 28.3819C94.1985 28.0759 94.8051 27.9213 95.4199 27.9357Z" fill="black"/>
<g clip-path="url(#clip0_1308_4032)">
<path d="M139.929 28.5137L143.38 25.0414L146.832 28.5155L148.84 26.495L143.38 21L137.921 26.4932L139.929 28.5137Z" fill="#F3BA2F"/>
<path d="M138.511 29.9402L136.503 27.9197L134.495 29.9403L136.502 31.9608L138.511 29.9402Z" fill="#F3BA2F"/>
<path d="M139.929 31.3672L143.38 34.8395L146.832 31.3655L148.841 33.3849L148.84 33.386L143.38 38.8809L137.92 33.3878L137.918 33.385L139.929 31.3672Z" fill="#F3BA2F"/>
<path d="M150.257 31.9616L152.265 29.941L150.257 27.9205L148.249 29.9411L150.257 31.9616Z" fill="#F3BA2F"/>
<path d="M145.416 29.9394H145.417L143.38 27.889L141.874 29.4043H141.874L141.701 29.5784L141.344 29.9375L141.341 29.9404L141.344 29.9433L143.38 31.9918L145.417 29.9415L145.418 29.9404L145.416 29.9394Z" fill="#F3BA2F"/>
<path d="M155.395 25.3328H159.762C160.846 25.3328 161.666 25.6127 162.221 26.1725C162.651 26.6061 162.866 27.1434 162.866 27.7845V27.8116C162.866 28.0825 162.833 28.3218 162.766 28.5294C162.699 28.7373 162.61 28.9244 162.498 29.0915C162.387 29.2587 162.258 29.4055 162.11 29.5317C161.963 29.6583 161.805 29.7667 161.636 29.8568C162.181 30.0647 162.609 30.3467 162.922 30.7035C163.235 31.0604 163.391 31.5548 163.391 32.1868V32.2138C163.391 32.6473 163.308 33.0265 163.143 33.3518C162.977 33.6767 162.739 33.9478 162.43 34.1645C162.121 34.3813 161.749 34.5437 161.315 34.6522C160.88 34.7605 160.399 34.8146 159.87 34.8146H155.395V25.3328ZM159.326 29.1661C159.783 29.1661 160.147 29.0873 160.416 28.9291C160.685 28.7711 160.82 28.5159 160.82 28.1638V28.1367C160.82 27.8208 160.703 27.5793 160.47 27.412C160.236 27.245 159.9 27.1614 159.46 27.1614H157.414V29.1661H159.326V29.1661ZM159.878 32.9861C160.335 32.9861 160.694 32.9028 160.955 32.7356C161.215 32.5685 161.345 32.3088 161.345 31.9566V31.9296C161.345 31.6136 161.224 31.363 160.982 31.1777C160.739 30.9929 160.349 30.9002 159.81 30.9002H157.414V32.9863H159.878V32.9861Z" fill="#F3BA2F"/>
<path d="M165.992 25.3328H168.065V34.8149H165.992V25.3328Z" fill="#F3BA2F"/>
<path d="M171.205 25.3328H173.117L177.532 31.1711V25.3328H179.578V34.8149H177.815L173.251 28.787V34.8149H171.205V25.3328Z" fill="#F3BA2F"/>
<path d="M185.855 25.265H187.766L191.805 34.8148H189.638L188.776 32.6882H184.791L183.93 34.8148H181.816L185.855 25.265ZM188.036 30.8457L186.784 27.7709L185.532 30.8457H188.036Z" fill="#F3BA2F"/>
<path d="M194.043 25.3328H195.955L200.37 31.1711V25.3328H202.416V34.8149H200.653L196.089 28.787V34.8149H194.043V25.3328V25.3328Z" fill="#F3BA2F"/>
<path d="M209.877 34.9773C209.186 34.9773 208.544 34.8507 207.952 34.5981C207.36 34.3454 206.848 33.9998 206.417 33.5617C205.986 33.1238 205.65 32.6068 205.408 32.0108C205.165 31.4147 205.044 30.778 205.044 30.1007V30.0737C205.044 29.3964 205.165 28.7621 205.408 28.1705C205.65 27.5791 205.986 27.0598 206.417 26.6128C206.848 26.1658 207.364 25.8135 207.965 25.5561C208.566 25.2988 209.231 25.1702 209.958 25.1702C210.397 25.1702 210.799 25.2065 211.162 25.2785C211.526 25.3509 211.856 25.4501 212.152 25.5765C212.448 25.703 212.722 25.8565 212.973 26.037C213.224 26.2178 213.458 26.4164 213.673 26.6331L212.354 28.1638C211.986 27.8298 211.611 27.5676 211.23 27.3781C210.848 27.1886 210.42 27.0937 209.944 27.0937C209.549 27.0937 209.184 27.1705 208.847 27.324C208.511 27.4775 208.221 27.6897 207.979 27.9605C207.737 28.2314 207.548 28.5454 207.413 28.9019C207.279 29.2588 207.212 29.6403 207.212 30.0466V30.0736C207.212 30.4799 207.279 30.8639 207.413 31.2249C207.548 31.5863 207.734 31.9022 207.972 32.173C208.21 32.4439 208.497 32.6586 208.833 32.8166C209.17 32.9748 209.54 33.0536 209.944 33.0536C210.483 33.0536 210.938 32.9543 211.31 32.7556C211.683 32.5572 212.053 32.2862 212.421 31.9428L213.74 33.2839C213.498 33.5459 213.246 33.7808 212.987 33.9882C212.726 34.1961 212.441 34.3744 212.132 34.5235C211.822 34.6723 211.483 34.7855 211.115 34.862C210.747 34.9387 210.335 34.9773 209.877 34.9773Z" fill="#F3BA2F"/>
<path d="M216.18 25.3328H223.275V27.1886H218.227V29.1121H222.669V30.9679H218.227V32.9592H223.342V34.8149H216.18V25.3328Z" fill="#F3BA2F"/>
</g>
<g clip-path="url(#clip1_1308_4032)">
<path d="M168.36 92.6525H171.242C171.647 92.6525 171.975 92.9833 171.975 93.3914C171.975 93.7995 171.647 94.1304 171.242 94.1304H167.766C167.712 94.1304 167.66 94.1499 167.618 94.1855L166.569 95.0908C166.408 95.2293 166.506 95.4946 166.717 95.4946H171.068C171.07 95.4946 171.071 95.4932 171.071 95.4914C171.071 95.4895 171.073 95.488 171.074 95.4881C171.129 95.4924 171.185 95.4946 171.24 95.4946C172.395 95.4946 173.33 94.553 173.33 93.3914C173.33 92.2884 172.486 91.3837 171.413 91.2953C171.411 91.2951 171.41 91.2936 171.41 91.2917C171.41 91.2898 171.408 91.2882 171.406 91.2882H168.302C167.897 91.2882 167.569 90.9574 167.569 90.5493C167.569 90.1411 167.897 89.8103 168.302 89.8103H171.773C171.83 89.8103 171.885 89.7886 171.927 89.7496L172.901 88.8443C173.054 88.7027 172.954 88.446 172.747 88.446H168.36C168.36 88.446 168.36 88.4462 168.36 88.4464C168.36 88.4466 168.36 88.4468 168.36 88.4468C168.341 88.4463 168.322 88.446 168.304 88.446C167.149 88.446 166.214 89.3877 166.214 90.5493C166.214 91.7108 167.149 92.6525 168.304 92.6525C168.322 92.6525 168.341 92.6522 168.36 92.6517C168.36 92.6517 168.36 92.6519 168.36 92.6521C168.36 92.6523 168.36 92.6525 168.36 92.6525Z" fill="black"/>
<path d="M185.143 88.446C185.017 88.446 184.915 88.5488 184.915 88.6755V95.2652C184.915 95.3919 185.017 95.4946 185.143 95.4946H190.419C190.482 95.4946 190.542 95.4684 190.585 95.4221L191.246 94.7133C191.382 94.5667 191.279 94.3269 191.079 94.3269H186.472C186.347 94.3269 186.244 94.2241 186.244 94.0974V88.6755C186.244 88.5488 186.142 88.446 186.016 88.446H185.143Z" fill="black"/>
<path fill-rule="evenodd" clip-rule="evenodd" d="M176.692 88.446C176.692 88.446 176.691 88.4463 176.691 88.4466C176.691 88.447 176.691 88.4473 176.691 88.4473C176.016 88.4765 175.475 89.0196 175.446 89.696C175.446 89.6963 175.445 89.6966 175.445 89.6966C175.445 89.6966 175.445 89.6967 175.445 89.6968C175.445 89.6969 175.445 89.6971 175.445 89.6972V94.1298C175.445 94.1301 175.445 94.1304 175.445 94.1304C175.445 94.1304 175.446 94.1307 175.446 94.131C175.445 94.1496 175.445 94.1684 175.445 94.1872C175.445 94.8901 175.997 95.4633 176.691 95.4934C176.691 95.4934 176.691 95.4937 176.691 95.494L176.691 95.4943L176.692 95.4945C176.692 95.4946 176.692 95.4946 176.692 95.4946H181.479C181.48 95.4946 181.48 95.4944 181.48 95.494V95.4937L181.48 95.4935L181.481 95.4934C182.174 95.4633 182.727 94.8901 182.727 94.1872C182.727 94.1684 182.727 94.1496 182.726 94.131C182.726 94.1307 182.726 94.1304 182.726 94.1304C182.727 94.1304 182.727 94.1301 182.727 94.1298V89.6972C182.727 89.6969 182.727 89.6966 182.726 89.6966C182.726 89.6966 182.726 89.6963 182.726 89.696C182.697 89.0196 182.155 88.4765 181.481 88.4473C181.48 88.4473 181.48 88.447 181.48 88.4466C181.48 88.4463 181.48 88.446 181.479 88.446H176.692ZM177.584 89.6966L177.584 89.6967V89.697C177.584 89.6972 177.584 89.6974 177.584 89.6974C177.162 89.7158 176.824 90.0574 176.806 90.4829C176.806 90.483 176.805 90.4832 176.805 90.4832C176.805 90.4832 176.805 90.4834 176.805 90.4836V93.2719C176.805 93.2721 176.805 93.2722 176.805 93.2722C176.805 93.2722 176.806 93.2724 176.805 93.2726C176.805 93.2844 176.805 93.2961 176.805 93.308C176.805 93.7501 177.15 94.1107 177.584 94.1296C177.584 94.1296 177.584 94.1298 177.584 94.13V94.1302V94.1303L177.584 94.1304H180.587V94.1304V94.1302L180.588 94.13C180.588 94.1298 180.588 94.1296 180.588 94.1296C181.021 94.1107 181.367 93.7501 181.367 93.308C181.367 93.2961 181.367 93.2844 181.366 93.2726V93.2725V93.2724L181.367 93.2722C181.367 93.2722 181.367 93.2721 181.367 93.2719V90.4836C181.367 90.4834 181.367 90.4832 181.367 90.4832C181.366 90.4832 181.366 90.483 181.366 90.4829C181.348 90.0574 181.009 89.7158 180.588 89.6974C180.588 89.6974 180.588 89.6972 180.588 89.697L180.587 89.6968V89.6966V89.6966H177.584Z" fill="black"/>
<path fill-rule="evenodd" clip-rule="evenodd" d="M198.918 95.2652C198.918 95.3919 199.019 95.4946 199.144 95.4946H200.039C200.164 95.4946 200.265 95.3919 200.265 95.2652V89.8109C200.265 89.8106 200.265 89.8103 200.264 89.8103L200.264 89.8102V89.8101C200.264 89.81 200.264 89.8099 200.264 89.8096C200.265 89.791 200.265 89.7723 200.265 89.7534C200.265 89.0506 199.717 88.4773 199.03 88.4473C199.03 88.4473 199.03 88.447 199.03 88.4466C199.03 88.4463 199.03 88.446 199.029 88.446H194.433C194.433 88.446 194.433 88.4463 194.433 88.4466C194.433 88.447 194.432 88.4472 194.432 88.4472C194.414 88.4464 194.395 88.446 194.376 88.446C193.663 88.446 193.085 89.0314 193.085 89.7534C193.085 89.7723 193.086 89.791 193.087 89.8096C193.087 89.81 193.086 89.8103 193.086 89.8103C193.085 89.8103 193.085 89.8106 193.085 89.8109V95.2652C193.085 95.3919 193.187 95.4946 193.312 95.4946H194.207C194.331 95.4946 194.433 95.3919 194.433 95.2652V92.9956C194.433 92.8689 194.534 92.7661 194.659 92.7661H198.691C198.816 92.7661 198.918 92.8689 198.918 92.9956V95.2652ZM194.433 91.5135V90.3787C194.433 89.9392 194.784 89.5829 195.219 89.5829H198.132C198.566 89.5829 198.918 89.9392 198.918 90.3787V91.5135C198.918 91.6402 198.816 91.7429 198.691 91.7429H194.659C194.534 91.7429 194.433 91.6402 194.433 91.5135Z" fill="black"/>
<path fill-rule="evenodd" clip-rule="evenodd" d="M217.806 95.4946C217.68 95.4946 217.578 95.3919 217.578 95.2652V92.9956C217.578 92.8689 217.475 92.7661 217.349 92.7661H213.272C213.146 92.7661 213.044 92.8689 213.044 92.9956V95.2652C213.044 95.3919 212.941 95.4946 212.815 95.4946H211.912C211.786 95.4946 211.683 95.3919 211.683 95.2652V89.8109V89.8107L211.684 89.8105C211.684 89.8104 211.684 89.8103 211.684 89.8103C211.684 89.8103 211.685 89.81 211.685 89.8096C211.684 89.791 211.683 89.7723 211.683 89.7534C211.683 89.0314 212.267 88.446 212.987 88.446C213.006 88.446 213.025 88.4464 213.043 88.4472C213.043 88.4472 213.044 88.447 213.044 88.4466C213.044 88.4463 213.044 88.446 213.044 88.446H217.69C217.691 88.446 217.691 88.4463 217.691 88.4466C217.691 88.447 217.691 88.4473 217.692 88.4473C218.385 88.4773 218.938 89.0506 218.938 89.7534C218.938 89.7723 218.937 89.791 218.937 89.8096C218.937 89.81 218.937 89.8103 218.937 89.8103C218.937 89.8103 218.938 89.8103 218.938 89.8104C218.938 89.8106 218.938 89.8107 218.938 89.8109V95.2652C218.938 95.3919 218.836 95.4946 218.709 95.4946H217.806ZM213.044 90.3787V91.5135C213.044 91.6402 213.146 91.7429 213.272 91.7429H217.349C217.475 91.7429 217.578 91.6402 217.578 91.5135V90.3787C217.578 89.9392 217.223 89.5829 216.784 89.5829H213.837C213.399 89.5829 213.044 89.9392 213.044 90.3787Z" fill="black"/>
<path d="M203.633 88.446C203.699 88.446 203.762 88.4755 203.805 88.5266L207.818 93.3146C207.955 93.4769 208.216 93.379 208.216 93.1657V88.6755C208.216 88.5488 208.318 88.446 208.443 88.446H209.337C209.463 88.446 209.564 88.5488 209.564 88.6755V95.2652C209.564 95.3919 209.463 95.4946 209.337 95.4946H208.225C208.22 95.4946 208.216 95.4908 208.216 95.4861C208.216 95.484 208.216 95.482 208.214 95.4804L204.134 90.7258C203.996 90.5661 203.737 90.6647 203.737 90.8768V95.2652C203.737 95.3919 203.636 95.4946 203.511 95.4946H202.61C202.486 95.4946 202.384 95.3919 202.384 95.2652V88.6755C202.384 88.5488 202.486 88.446 202.61 88.446H203.633Z" fill="black"/>
<path d="M145.411 95.7372C145.523 95.6257 145.674 95.563 145.832 95.563H160.385C160.65 95.563 160.783 95.8838 160.595 96.0714L157.72 98.9472C157.608 99.0588 157.457 99.1215 157.299 99.1215H142.746C142.481 99.1215 142.348 98.8006 142.535 98.6131L145.411 95.7372Z" fill="url(#paint0_linear_1308_4032)"/>
<path d="M145.411 84.9934C145.523 84.8818 145.674 84.8191 145.832 84.8191H160.385C160.65 84.8191 160.783 85.1399 160.595 85.3275L157.72 88.2033C157.608 88.3149 157.457 88.3776 157.299 88.3776H142.746C142.481 88.3776 142.348 88.0567 142.535 87.8692L145.411 84.9934Z" fill="url(#paint1_linear_1308_4032)"/>
<path d="M157.72 90.331C157.608 90.2194 157.457 90.1567 157.299 90.1567H142.746C142.481 90.1567 142.348 90.4776 142.535 90.6652L145.411 93.541C145.523 93.6526 145.674 93.7153 145.832 93.7153H160.385C160.65 93.7153 160.783 93.3944 160.595 93.2069L157.72 90.331Z" fill="url(#paint2_linear_1308_4032)"/>
</g>
<path d="M322.395 88.3328C323.081 88.3328 323.637 87.7743 323.637 87.0854C323.637 86.3966 323.081 85.8381 322.395 85.8381C321.71 85.8381 321.154 86.3966 321.154 87.0854C321.154 87.7743 321.71 88.3328 322.395 88.3328Z" fill="#FF4500"/>
<path d="M304.667 92.4044C305.276 92.4044 305.627 91.9455 305.604 91.4983C305.592 91.263 305.569 91.11 305.545 90.9923C305.171 89.3685 303.859 88.1682 302.302 88.1682C300.452 88.1682 298.953 89.8509 298.953 91.9219C298.953 93.9929 300.452 95.6756 302.302 95.6756C303.461 95.6756 304.293 95.252 304.89 94.5813C305.182 94.2518 305.124 93.7458 304.773 93.4987C304.48 93.2987 304.117 93.3693 303.848 93.5929C303.59 93.8164 303.098 94.2636 302.302 94.2636C301.365 94.2636 300.569 93.4516 300.393 92.3808H304.667V92.4044ZM302.29 89.592C303.133 89.592 303.859 90.251 304.129 91.1571H300.452C300.721 90.2392 301.447 89.592 302.29 89.592Z" fill="black"/>
<path d="M299.023 88.9095C299.023 88.5565 298.766 88.274 298.438 88.2152C297.419 88.0622 296.459 88.4388 295.909 89.133V89.0389C295.909 88.6035 295.557 88.3329 295.206 88.3329C294.82 88.3329 294.503 88.6506 294.503 89.0389V94.8048C294.503 95.1813 294.784 95.5108 295.159 95.5344C295.569 95.5579 295.909 95.2402 295.909 94.8283V91.8512C295.909 90.5333 296.892 89.4508 298.25 89.6037C298.297 89.6037 298.344 89.6037 298.391 89.6037C298.742 89.5802 299.023 89.2742 299.023 88.9095Z" fill="black"/>
<path d="M323.098 89.6626C323.098 89.2743 322.782 88.9565 322.395 88.9565C322.009 88.9565 321.693 89.2743 321.693 89.6626C321.693 89.6861 321.693 94.6048 321.693 94.8283C321.693 95.2166 322.009 95.5344 322.395 95.5344C322.782 95.5344 323.098 95.2166 323.098 94.8283C323.098 94.6165 323.098 89.6979 323.098 89.6626Z" fill="black"/>
<path d="M312.653 85.7558C312.653 85.3675 312.337 85.0498 311.951 85.0498C311.564 85.0498 311.248 85.3675 311.248 85.7558V88.8977C310.768 88.4152 310.171 88.1799 309.456 88.1799C307.606 88.1799 306.108 89.8626 306.108 91.9336C306.108 94.0046 307.606 95.6873 309.456 95.6873C310.171 95.6873 310.78 95.4402 311.26 94.9577C311.318 95.2872 311.611 95.5343 311.951 95.5343C312.337 95.5343 312.653 95.2166 312.653 94.8283C312.653 94.8283 312.653 85.7558 312.653 85.7558ZM309.468 94.287C308.391 94.287 307.524 93.2397 307.524 91.9336C307.524 90.6392 308.391 89.5801 309.468 89.5801C310.545 89.5801 311.412 90.6274 311.412 91.9336C311.412 93.2397 310.534 94.287 309.468 94.287Z" fill="black"/>
<path d="M319.983 85.7558C319.983 85.3675 319.667 85.0498 319.281 85.0498C318.894 85.0498 318.578 85.3675 318.578 85.7558V88.8977C318.098 88.4152 317.501 88.1799 316.787 88.1799C314.937 88.1799 313.438 89.8626 313.438 91.9336C313.438 94.0046 314.937 95.6873 316.787 95.6873C317.501 95.6873 318.11 95.4402 318.59 94.9577C318.648 95.2872 318.941 95.5343 319.281 95.5343C319.667 95.5343 319.983 95.2166 319.983 94.8283C319.983 94.8283 319.983 85.7558 319.983 85.7558ZM316.787 94.287C315.709 94.287 314.843 93.2397 314.843 91.9336C314.843 90.6392 315.709 89.5801 316.787 89.5801C317.864 89.5801 318.73 90.6274 318.73 91.9336C318.73 93.2397 317.864 94.287 316.787 94.287Z" fill="black"/>
<path d="M326.658 94.84V89.5918H327.278C327.606 89.5918 327.899 89.3447 327.922 89.0035C327.946 88.6387 327.653 88.3328 327.302 88.3328H326.658V87.3443C326.658 86.9678 326.377 86.6383 326.002 86.6148C325.592 86.5912 325.253 86.9089 325.253 87.3208V88.3445H324.667C324.339 88.3445 324.047 88.5916 324.023 88.9329C324 89.2977 324.292 89.6036 324.644 89.6036H325.241V94.8517C325.241 95.24 325.557 95.5578 325.943 95.5578C326.353 95.5342 326.658 95.2283 326.658 94.84Z" fill="black"/>
<path d="M280.756 100.018C286.176 100.018 290.569 95.6027 290.569 90.1567C290.569 84.7107 286.176 80.2959 280.756 80.2959C275.337 80.2959 270.944 84.7107 270.944 90.1567C270.944 95.6027 275.337 100.018 280.756 100.018Z" fill="#FF4500"/>
<path d="M287.302 90.1568C287.302 89.3566 286.658 88.7212 285.874 88.7212C285.487 88.7212 285.136 88.8742 284.878 89.1213C283.895 88.4153 282.548 87.9563 281.049 87.8975L281.705 84.8145L283.836 85.2734C283.859 85.8147 284.304 86.2501 284.855 86.2501C285.417 86.2501 285.874 85.7912 285.874 85.2264C285.874 84.6616 285.417 84.2026 284.855 84.2026C284.457 84.2026 284.105 84.438 283.941 84.7792L281.564 84.2732C281.494 84.2615 281.424 84.2732 281.377 84.3085C281.319 84.3438 281.283 84.4027 281.272 84.4733L280.546 87.9093C279.023 87.9563 277.653 88.4153 276.658 89.1331C276.401 88.8859 276.049 88.733 275.663 88.733C274.867 88.733 274.234 89.3802 274.234 90.1686C274.234 90.7569 274.586 91.2511 275.077 91.4747C275.054 91.6159 275.042 91.7571 275.042 91.9101C275.042 94.1223 277.607 95.9227 280.768 95.9227C283.93 95.9227 286.494 94.1341 286.494 91.9101C286.494 91.7689 286.482 91.6159 286.459 91.4747C286.951 91.2511 287.302 90.7452 287.302 90.1568ZM277.49 91.1805C277.49 90.6157 277.946 90.1568 278.508 90.1568C279.07 90.1568 279.527 90.6157 279.527 91.1805C279.527 91.7454 279.07 92.2043 278.508 92.2043C277.946 92.216 277.49 91.7454 277.49 91.1805ZM283.192 93.8987C282.489 94.6048 281.155 94.6518 280.768 94.6518C280.37 94.6518 279.035 94.593 278.344 93.8987C278.239 93.7928 278.239 93.6281 278.344 93.5222C278.45 93.4163 278.614 93.4163 278.719 93.5222C279.164 93.9693 280.101 94.1223 280.768 94.1223C281.436 94.1223 282.384 93.9693 282.817 93.5222C282.923 93.4163 283.087 93.4163 283.192 93.5222C283.286 93.6281 283.286 93.7928 283.192 93.8987ZM283.005 92.216C282.443 92.216 281.986 91.7571 281.986 91.1923C281.986 90.6275 282.443 90.1686 283.005 90.1686C283.567 90.1686 284.023 90.6275 284.023 91.1923C284.023 91.7454 283.567 92.216 283.005 92.216Z" fill="white"/>
<g clip-path="url(#clip2_1308_4032)">
<path d="M21.4354 88.671C21.679 88.2444 22.0618 87.8533 22.549 87.6045C23.3146 87.2489 24.3238 87.4267 24.985 87.96C25.5766 88.4933 25.9246 89.2754 25.7506 90.1287C25.9246 90.1287 26.029 90.022 26.203 89.9509C27.1426 89.6665 28.117 89.9509 28.7434 90.7686C29.1958 91.373 29.335 92.2619 29.0218 92.9374C28.9174 93.2929 28.6738 93.5773 28.3954 93.8973L28.465 93.9684C29.335 94.0395 30.2049 94.6794 30.4833 95.5683C30.7617 96.4571 30.5529 97.3459 29.8917 97.9858C29.3698 98.5191 28.7434 98.6969 28.0474 98.6258H14.9627C13.8491 98.6258 13.0487 98.1636 12.666 97.2037C12.318 96.386 12.492 95.3194 13.1183 94.6794C13.5359 94.2528 14.0579 94.075 14.6147 93.9684C13.9883 93.364 13.6751 92.5463 13.8491 91.6575C13.9187 91.0175 14.4755 90.2354 15.1715 89.9865C15.7631 89.7376 16.5635 89.8087 17.1203 90.0931C16.9463 89.1332 17.3639 88.28 18.1643 87.7467C18.8603 87.2845 19.9391 87.2845 20.6351 87.8178C20.9831 88.0311 21.2615 88.3866 21.4354 88.671Z" fill="black"/>
<path d="M25.1242 89.0267C25.0198 88.7778 24.8458 88.5645 24.637 88.3867C24.115 87.9246 23.245 87.8534 22.6186 88.209C22.027 88.4934 21.679 89.1689 21.679 89.8088H22.4446C22.5142 89.88 22.549 89.88 22.6186 89.9155C22.3054 90.1644 21.7138 90.3777 21.853 90.8754L22.6534 96.1372L24.9154 90.9465C25.2634 90.3421 25.4374 89.6311 25.1242 89.0267Z" fill="#645FA9"/>
<path d="M20.2871 96.066L21.2267 90.0576C21.2963 89.631 21.1571 89.2399 20.9831 88.8844C20.8091 88.4933 20.4611 88.2444 20.1131 88.0667C19.4867 87.7822 18.6515 87.96 18.1991 88.4222C17.7467 88.8844 17.5031 89.5954 17.7467 90.3065L20.0435 95.5683L20.2871 96.066Z" fill="#C8234A"/>
<path d="M28.4998 91.373C28.7782 91.9063 28.7434 92.724 28.3954 93.1862C28.1518 93.5417 27.8038 93.7195 27.5254 93.9683L22.723 97.3458L22.7926 97.1681L25.333 91.3374C25.7506 90.6264 26.4466 90.2709 27.1774 90.3775C27.6994 90.5197 28.2214 90.8753 28.4998 91.373Z" fill="#0088CF"/>
<path d="M14.9279 93.5773L20.2523 97.3104H20.3219L17.6771 91.3375C17.2247 90.5554 16.2851 90.1998 15.4151 90.5198C14.8931 90.7687 14.4755 91.2309 14.3711 91.7641C14.0927 92.4396 14.3363 93.1507 14.9279 93.5773Z" fill="#F26F21"/>
<path d="M29.6482 97.488C30.0658 97.0258 30.1006 96.1726 29.8918 95.6748C29.7178 95.2482 29.3698 94.8927 28.9522 94.7149C28.4302 94.466 27.7342 94.5371 27.2818 94.8216L22.549 98.1635H28.2214C28.7782 98.1635 29.2306 97.9502 29.6482 97.488Z" fill="#0DB04B"/>
<path d="M20.3915 98.1636L15.6587 94.7505C15.2063 94.4661 14.5103 94.395 13.9883 94.6438C13.5707 94.8216 13.2227 95.1771 13.0487 95.6038C12.7704 96.2082 12.8748 96.9548 13.2923 97.417C13.6403 97.8791 14.1623 98.128 14.7539 98.128L20.3915 98.1636Z" fill="#FCB813"/>
<path d="M41.6192 91.7284C41.3756 90.6618 40.5752 90.3774 39.6008 90.3063C36.5385 90.0219 36.0165 92.3684 36.0165 93.3638C36.0165 95.0704 36.4689 96.4214 39.4964 96.4214C40.088 96.4214 41.5844 95.817 41.5844 94.8926H45.9344C45.7604 97.7368 41.132 98.3767 39.1136 98.3767C34.9377 98.3767 31.3533 97.5946 31.5273 93.3638C31.6317 90.3418 34.4157 88.2442 39.9488 88.3865C43.0112 88.4576 45.9692 89.453 45.9692 91.6929H41.6192V91.7284Z" fill="black"/>
<path d="M84.9795 91.7286C84.7359 90.662 83.9355 90.3776 82.9611 90.3064C79.8988 90.022 79.3768 92.3685 79.3768 93.3284C79.3768 95.035 79.8292 96.386 82.8567 96.386C83.4483 96.386 84.9447 95.7816 84.9447 94.8572H89.2946C89.1206 97.7014 84.4923 98.3413 82.4739 98.3413C78.298 98.3413 74.7136 97.5592 74.8876 93.3284C74.992 90.3064 77.776 88.2088 83.3091 88.3511C86.3715 88.4222 89.3642 89.4176 89.3642 91.6574H84.9795V91.7286V91.7286Z" fill="black"/>
<path d="M46.7695 88.5999H52.3723L57.1746 95.4615H57.2442V88.5999H60.8286V98.0924H55.4694L50.4583 91.2307H50.3887V98.0924H46.7695C46.7695 98.128 46.7695 88.5999 46.7695 88.5999Z" fill="black"/>
<path d="M61.9074 88.5999H68.7281C72.0341 88.5999 73.9132 89.5598 73.9132 90.9463C73.9132 91.764 73.1128 92.8306 71.3033 93.115C73.426 93.2217 74.2612 94.6438 74.2612 95.4615C74.2612 97.168 72.4169 98.0569 68.7281 98.0569H61.9074V88.5999ZM65.9093 92.3329H67.0577C68.7977 92.3329 69.7025 92.2262 69.7025 91.4441C69.7025 90.6619 68.9369 90.3775 67.4057 90.3775H65.9441V92.3329H65.9093ZM65.9093 96.1726H67.0577C69.1457 96.1726 69.9461 95.9237 69.9461 95.2126C69.9461 94.4305 68.9717 94.1461 67.4057 94.1461H65.9441V96.137H65.9093V96.1726Z" fill="black"/>
</g>
<line opacity="0.4" y1="56.5597" x2="358" y2="56.5597" stroke="url(#paint3_radial_1308_4032)"/>
<line opacity="0.4" x1="115.2" y1="-2.18557e-08" x2="115.2" y2="131.132" stroke="url(#paint4_radial_1308_4032)"/>
<line opacity="0.4" x1="245.002" y1="-2.18557e-08" x2="245.002" y2="131.132" stroke="url(#paint5_radial_1308_4032)"/>
<path fill-rule="evenodd" clip-rule="evenodd" d="M289.063 34.352L290.115 36.4924H286.553C286.273 36.5594 285.976 36.5961 285.656 36.5961C284.455 36.5961 283.536 36.1097 282.795 35.2386C281.757 34.0198 281.757 32.5211 281.758 30.4706L281.758 30.2987L281.758 30.1267C281.757 28.0744 281.757 26.5763 282.795 25.3569C283.536 24.4871 284.455 24 285.656 24C286.856 24 287.76 24.4871 288.5 25.3569C289.553 26.5937 289.553 28.1173 289.553 30.215L289.553 30.2987L289.553 30.3631C289.553 31.9935 289.553 33.2791 289.063 34.352ZM283.818 30.2987C283.818 32.682 283.921 33.2561 284.322 33.778C284.618 34.1774 285.092 34.439 285.656 34.439C286.219 34.439 286.677 34.1774 286.974 33.778C287.374 33.2561 287.493 32.682 287.493 30.2987C287.493 27.9148 287.374 27.3407 286.974 26.8182C286.677 26.4187 286.219 26.1578 285.656 26.1578C285.092 26.1578 284.618 26.4187 284.322 26.8182C283.921 27.3407 283.818 27.9148 283.818 30.2987ZM316.256 24.1044H314.223V36.4866H316.256V24.1044ZM265.185 36.5962C263.584 36.5962 262.369 36.1967 261.332 34.9616L262.666 33.3953C263.333 34.1787 264.237 34.439 265.214 34.439C266.43 34.439 267.082 33.8997 267.082 32.9082C267.082 32.4733 266.977 32.1073 266.755 31.8638C266.548 31.6376 266.311 31.5165 265.822 31.4295L264.548 31.2201C263.643 31.0642 262.976 30.7336 262.503 30.1944C261.998 29.6023 261.747 28.8014 261.747 27.7582C261.747 25.549 263.14 24 265.422 24C266.874 24 267.926 24.4175 268.83 25.4445L267.526 26.958C266.859 26.21 266.059 26.1056 265.362 26.1056C264.267 26.1056 263.732 26.8188 263.732 27.6713C263.732 27.9844 263.821 28.3149 264.043 28.5585C264.251 28.7846 264.592 28.976 265.022 29.0456L266.266 29.2543C267.23 29.4109 267.837 29.724 268.282 30.2111C268.844 30.838 269.097 31.7426 269.097 32.8386C269.097 35.2386 267.392 36.5962 265.185 36.5962ZM272.111 24.1044V36.4924H279.061V34.3347H274.171V31.3251H278.335V29.1667H274.171V26.2622H279.061V24.1044H272.111ZM296.542 36.5962C294.378 36.5962 292.659 34.8739 292.659 32.2465V24.1044H294.72V32.1601C294.72 33.5872 295.43 34.439 296.542 34.439C297.653 34.439 298.379 33.5872 298.379 32.1601V24.1044H300.424V32.2465C300.424 34.8739 298.705 36.5962 296.542 36.5962ZM307.302 36.5961C308.502 36.5961 309.407 36.1097 310.147 35.2392C311.2 34.0031 311.2 32.4789 311.2 30.3823L311.2 30.2987L311.2 30.2151C311.2 28.1179 311.2 26.5937 310.147 25.3569C309.407 24.4871 308.502 24 307.302 24C306.102 24 305.183 24.4871 304.442 25.3569C303.403 26.5769 303.404 28.0765 303.404 30.1298L303.404 30.2987L303.404 30.4676C303.404 32.5203 303.403 34.0199 304.442 35.2392C305.183 36.1097 306.102 36.5961 307.302 36.5961ZM307.302 26.1571C307.865 26.1571 308.325 26.4187 308.621 26.8182C309.021 27.3407 309.139 27.9148 309.139 30.2987C309.139 32.6813 309.021 33.2561 308.621 33.778C308.325 34.1781 307.865 34.439 307.302 34.439C306.739 34.439 306.265 34.1781 305.968 33.778C305.568 33.2561 305.465 32.6813 305.465 30.2987C305.465 27.9148 305.568 27.3407 305.968 26.8182C306.265 26.4187 306.739 26.1571 307.302 26.1571ZM325.958 36.4925L325.334 34.2999H321.585L320.948 36.4925H318.799L322.637 24.1038H324.252L328.105 36.4925H325.958ZM323.497 27.7577L322.163 32.2646H324.786L323.497 27.7577ZM342.828 24.1038H340.19V27.201H342.828V24.1038ZM333.597 33.8483V24.1038H332.277V35.3965L333.597 33.8483ZM333.211 36.4925L334.529 34.9435H342.828V36.4925H333.211ZM336.234 30.7517V24.1044H334.915V32.3006L336.234 30.7517ZM335.847 33.3954L337.166 31.8471H342.828V33.3954H335.847ZM338.871 27.6551V24.105H337.553V29.2034L338.871 27.6551ZM338.485 30.2981L339.804 28.7499H342.828V30.2981H338.485Z" fill="black"/>
<defs>
<linearGradient id="paint0_linear_1308_4032" x1="154.776" y1="80.8957" x2="144.69" y2="100.197" gradientUnits="userSpaceOnUse">
<stop stop-color="#00FFA3"/>
<stop offset="1" stop-color="#DC1FFF"/>
</linearGradient>
<linearGradient id="paint1_linear_1308_4032" x1="154.776" y1="80.8958" x2="144.69" y2="100.197" gradientUnits="userSpaceOnUse">
<stop stop-color="#00FFA3"/>
<stop offset="1" stop-color="#DC1FFF"/>
</linearGradient>
<linearGradient id="paint2_linear_1308_4032" x1="154.776" y1="80.8957" x2="144.69" y2="100.197" gradientUnits="userSpaceOnUse">
<stop stop-color="#00FFA3"/>
<stop offset="1" stop-color="#DC1FFF"/>
</linearGradient>
<radialGradient id="paint3_radial_1308_4032" cx="0" cy="0" r="1" gradientUnits="userSpaceOnUse" gradientTransform="translate(170.104 111.196) rotate(-144.107) scale(219.667 430579)">
<stop/>
<stop offset="1" stop-color="white" stop-opacity="0"/>
</radialGradient>
<radialGradient id="paint4_radial_1308_4032" cx="0" cy="0" r="1" gradientUnits="userSpaceOnUse" gradientTransform="translate(60.5633 62.3072) rotate(-26.8454) scale(144.342 240021)">
<stop/>
<stop offset="1" stop-color="white" stop-opacity="0"/>
</radialGradient>
<radialGradient id="paint5_radial_1308_4032" cx="0" cy="0" r="1" gradientUnits="userSpaceOnUse" gradientTransform="translate(190.366 62.3072) rotate(-26.8454) scale(144.342 240021)">
<stop/>
<stop offset="1" stop-color="white" stop-opacity="0"/>
</radialGradient>
<clipPath id="clip0_1308_4032">
<rect width="88.7033" height="17.8809" fill="white" transform="translate(134.571 21)"/>
</clipPath>
<clipPath id="clip1_1308_4032">
<rect width="76.5302" height="14.3047" fill="white" transform="translate(142.439 84.8191)"/>
</clipPath>
<clipPath id="clip2_1308_4032">
<rect width="77.6031" height="12.159" fill="white" transform="translate(12.1092 86.9646)"/>
</clipPath>
</defs>
</svg>
