<svg width="31" height="69" viewBox="0 0 31 69" fill="none" xmlns="http://www.w3.org/2000/svg">
<path fill-rule="evenodd" clip-rule="evenodd" d="M20.0002 0.568394C24.1548 1.8796 27.5688 4.79287 29.4266 8.61202C31.0348 11.9183 30.9999 11.555 30.9999 24.9514C30.9999 35.8556 30.9676 36.9958 30.6216 38.2392C29.3938 42.6541 26.461 46.2814 22.5063 48.2762C19.9718 49.5548 18.6115 49.8509 15.3305 49.8375C12.8987 49.8277 12.3184 49.7557 10.9374 49.292C6.47175 47.7924 2.82606 44.4113 1.12587 40.1924C-0.00191495 37.3943 -0.0575372 36.5857 0.0263099 24.2027C0.0947989 14.1178 0.145233 12.6708 0.467132 11.559C2.16026 5.71277 6.75837 1.40961 12.648 0.159507C14.2409 -0.178652 18.3589 0.050483 20.0002 0.568394ZM12.0098 2.73755C8.30518 3.85122 5.32217 6.31522 3.73675 9.57104C2.29745 12.5266 2.26258 12.8901 2.26258 24.9514C2.26258 37.0142 2.29786 37.3817 3.73675 40.3247C5.87091 44.69 10.6025 47.6386 15.4949 47.6522C21.7172 47.6694 27.2621 43.1405 28.5088 37.0224C28.9586 34.8154 28.9604 14.9914 28.5113 12.8145C26.9911 5.44931 19.0729 0.613802 12.0098 2.73755ZM16.7187 9.77026C17.6141 10.3206 17.8185 11.1886 17.8197 14.4467C17.8212 17.436 17.6176 18.1305 16.5826 18.6702C15.808 19.074 15.2628 19.0713 14.4738 18.6599C13.485 18.1443 13.2551 17.2891 13.2555 14.1291C13.2557 11.9011 13.3277 11.2049 13.6187 10.6203C14.2384 9.37414 15.5081 9.02593 16.7187 9.77026ZM7.88532 60.1589C8.97866 61.0508 10.2332 62.0631 10.6732 62.4084C11.1132 62.7537 12.0376 63.512 12.7273 64.0936C13.4172 64.6749 14.3297 65.4144 14.7554 65.7366L15.5291 66.3226L16.3232 65.7255C17.0761 65.1597 18.6871 63.8491 23.1656 60.1589C24.5329 59.0325 25.3039 58.5372 25.6906 58.5372C26.4041 58.5372 26.7453 58.8887 26.7453 59.6236C26.7453 60.2949 26.8632 60.1823 22.2832 63.8883C20.4568 65.3662 18.3017 67.1209 17.4939 67.7878C16.671 68.467 15.8199 69 15.5582 69C15.2676 69 13.7046 67.8757 11.4231 66.0256C3.4628 59.5707 4.33863 60.3677 4.33385 59.573C4.33219 59.2794 4.44281 58.9264 4.57979 58.7883C5.14182 58.2216 5.89209 58.5328 7.88532 60.1589Z" fill="white"/>
</svg>
