<svg width="72" height="71" viewBox="0 0 72 71" fill="none" xmlns="http://www.w3.org/2000/svg">
<g clip-path="url(#clip0_67_5782)">
<path d="M18.3884 53.0331C13.7 48.3447 11.066 41.9859 11.066 35.3555C11.066 28.7251 13.7 22.3662 18.3884 17.6778C23.0768 12.9894 29.4356 10.3555 36.066 10.3555C42.6964 10.3555 49.0553 12.9894 53.7437 17.6778C58.4321 22.3662 61.066 28.7251 61.066 35.3555C61.066 41.9859 58.4321 48.3447 53.7437 53.0331C49.0553 57.7215 42.6964 60.3555 36.066 60.3555C29.4356 60.3555 23.0768 57.7215 18.3884 53.0331ZM25.2407 33.7932C25.0332 33.7896 24.8271 33.8273 24.6344 33.9042C24.4417 33.9811 24.2663 34.0956 24.1183 34.2411C23.9703 34.3865 23.8528 34.5599 23.7726 34.7513C23.6923 34.9426 23.651 35.148 23.651 35.3555C23.651 35.5629 23.6923 35.7683 23.7726 35.9597C23.8528 36.151 23.9703 36.3245 24.1183 36.4699C24.2663 36.6153 24.4417 36.7298 24.6344 36.8067C24.8271 36.8836 25.0332 36.9213 25.2407 36.9177H43.3426L37.2261 43.0342C36.9331 43.3272 36.7685 43.7247 36.7685 44.1391C36.7685 44.5535 36.9331 44.9509 37.2261 45.2439C37.5192 45.5369 37.9166 45.7016 38.331 45.7016C38.7454 45.7016 39.1428 45.5369 39.4358 45.2439L48.2194 36.4603C48.5125 36.1673 48.6771 35.7699 48.6771 35.3555C48.6771 34.9411 48.5125 34.5436 48.2194 34.2506L39.4358 25.467C39.1428 25.174 38.7454 25.0094 38.331 25.0094C37.9166 25.0094 37.5192 25.174 37.2261 25.467C36.9331 25.76 36.7685 26.1575 36.7685 26.5719C36.7685 26.9863 36.9331 27.3837 37.2261 27.6767L43.3426 33.7932H25.2407Z" fill="white"/>
</g>
<defs>
<clipPath id="clip0_67_5782">
<rect width="50" height="50" fill="white" transform="translate(0.710693 35.3555) rotate(-45)"/>
</clipPath>
</defs>
</svg>
