<svg width="1440" height="214" viewBox="0 0 1440 214" fill="none" xmlns="http://www.w3.org/2000/svg">
<g clip-path="url(#clip0_67_1167)">
<rect width="1472" height="214" transform="translate(-18)" fill="white"/>
<path d="M1628 -3H-141V214H1628V-3Z" fill="#CC1D19"/>
<path d="M1628 -3H-141V214H1628V-3Z" fill="url(#paint0_linear_67_1167)"/>
<g opacity="0.1">
<path d="M9.19977 16.2005C11.1046 14.8641 12.5704 12.9928 13.4118 10.8233C14.2531 8.65389 14.4323 6.28366 13.9266 4.01238C13.4208 1.7411 12.253 -0.3292 10.5706 -1.93674C8.88829 -3.54427 6.76703 -4.61684 4.47511 -5.01879C2.1832 -5.42075 -0.176438 -5.13405 -2.30541 -4.19494C-4.43439 -3.25584 -6.23708 -1.7065 -7.48551 0.257134C-8.73395 2.22077 -9.37207 4.51051 -9.31917 6.8368C-9.26627 9.1631 -8.52473 11.4215 -7.18833 13.3263C-5.39627 15.8807 -2.6629 17.6185 0.410463 18.1575C3.48383 18.6965 6.64543 17.9925 9.19977 16.2005Z" fill="white"/>
<path d="M34.14 -2.5628C35.878 -3.78095 37.2158 -5.48719 37.984 -7.46568C38.7522 -9.44417 38.9165 -11.6061 38.4559 -13.6779C37.9954 -15.7497 36.9307 -17.6384 35.3966 -19.1051C33.8626 -20.5719 31.928 -21.5507 29.8376 -21.9178C27.7471 -22.2849 25.5948 -22.0238 23.6528 -21.1676C21.7108 -20.3114 20.0663 -18.8984 18.9273 -17.1075C17.7884 -15.3166 17.2062 -13.2281 17.2543 -11.1062C17.3024 -8.98436 17.9787 -6.92442 19.1977 -5.18697C20.8316 -2.85806 23.3235 -1.27336 26.1256 -0.781266C28.9276 -0.289174 31.8103 -0.929977 34.14 -2.5628Z" fill="white"/>
<path d="M17.8076 38.7967C16.5515 33.1552 10.9599 29.6002 5.31835 30.8563C-0.323161 32.1124 -3.87821 37.7041 -2.62208 43.3456C-1.36595 48.9871 4.22569 52.5421 9.86719 51.286C15.5087 50.0299 19.0638 44.4382 17.8076 38.7967Z" fill="white"/>
<path d="M38.9498 31.4328C40.59 30.2833 41.8525 28.673 42.5774 26.8059C43.3023 24.9387 43.4572 22.8985 43.0223 20.9433C42.5875 18.9881 41.5825 17.2058 40.1346 15.8219C38.6866 14.4379 36.8607 13.5146 34.8878 13.1686C32.915 12.8226 30.8838 13.0695 29.0513 13.8781C27.2189 14.6867 25.6674 16.0206 24.5931 17.7112C23.5189 19.4017 22.9702 21.3729 23.0165 23.3753C23.0628 25.3777 23.7019 27.3214 24.8531 28.9605C26.3955 31.1566 28.7465 32.6506 31.3898 33.1141C34.033 33.5777 36.7522 32.973 38.9498 31.4328Z" fill="white"/>
<path d="M65.5231 11.3472C68.89 7.56392 68.5525 1.76761 64.7692 -1.59926C60.986 -4.96614 55.1897 -4.6286 51.8228 -0.84537C48.4559 2.93786 48.7935 8.73415 52.5767 12.101C56.3599 15.4679 62.1562 15.1304 65.5231 11.3472Z" fill="white"/>
<path d="M19.3252 81.4499C22.5654 77.809 22.2406 72.2307 18.5997 68.9905C14.9588 65.7503 9.38054 66.0752 6.14034 69.7161C2.90014 73.3569 3.22496 78.9352 6.86586 82.1754C10.5068 85.4156 16.085 85.0908 19.3252 81.4499Z" fill="white"/>
<path d="M43.3917 64.9432C47.42 62.117 48.3946 56.5603 45.5684 52.5319C42.7422 48.5036 37.1855 47.5291 33.1572 50.3553C29.1288 53.1815 28.1543 58.7381 30.9805 62.7665C33.8067 66.7948 39.3634 67.7693 43.3917 64.9432Z" fill="white"/>
<path d="M68.6305 46.6024C69.9889 45.6493 71.0342 44.3149 71.6342 42.7678C72.2342 41.2207 72.362 39.5304 72.0013 37.9107C71.6407 36.2909 70.8078 34.8145 69.6081 33.6681C68.4084 32.5218 66.8957 31.7569 65.2612 31.4702C63.6268 31.1836 61.944 31.388 60.4258 32.0577C58.9075 32.7275 57.622 33.8323 56.7317 35.2327C55.8414 36.633 55.3863 38.2659 55.4241 39.9248C55.4618 41.5838 55.9906 43.1943 56.9436 44.5527C58.2216 46.3743 60.1708 47.6136 62.3626 47.998C64.5543 48.3824 66.8089 47.8803 68.6305 46.6024Z" fill="white"/>
<path d="M93.6749 27.974C97.077 25.5871 97.9001 20.8941 95.5132 17.492C93.1263 14.0898 88.4334 13.2668 85.0312 15.6536C81.6291 18.0405 80.806 22.7335 83.1929 26.1356C85.5798 29.5378 90.2727 30.3608 93.6749 27.974Z" fill="white"/>
<path d="M119.419 8.52804C121.985 6.02591 122.038 1.91701 119.535 -0.649467C117.033 -3.21594 112.924 -3.26811 110.358 -0.765983C107.791 1.73614 107.739 5.84506 110.241 8.41153C112.744 10.978 116.852 11.0302 119.419 8.52804Z" fill="white"/>
<path d="M-3.82581 133.436C-2.74594 132.679 -1.91467 131.62 -1.43714 130.391C-0.959617 129.162 -0.857304 127.819 -1.14312 126.532C-1.42894 125.245 -2.09005 124.071 -3.04284 123.16C-3.99563 122.249 -5.19729 121.641 -6.49581 121.412C-7.79433 121.184 -9.13138 121.346 -10.3378 121.878C-11.5442 122.41 -12.5659 123.287 -13.2734 124.4C-13.981 125.512 -14.3428 126.81 -14.3129 128.128C-14.2831 129.446 -13.863 130.725 -13.1057 131.805C-12.6037 132.521 -11.9654 133.132 -11.2273 133.602C-10.4891 134.072 -9.66559 134.392 -8.80378 134.543C-7.94196 134.695 -7.05874 134.675 -6.2046 134.485C-5.35045 134.295 -4.54212 133.938 -3.82581 133.436Z" fill="white"/>
<path d="M22.0079 115.938C23.1704 115.123 24.065 113.981 24.5784 112.657C25.0919 111.333 25.2012 109.886 24.8926 108.5C24.584 107.114 23.8712 105.85 22.8445 104.869C21.8178 103.888 20.5232 103.234 19.1245 102.989C17.7258 102.743 16.2857 102.918 14.9865 103.491C13.6872 104.064 12.587 105.01 11.8251 106.208C11.0632 107.407 10.6738 108.804 10.7061 110.224C10.7384 111.643 11.1909 113.022 12.0065 114.184C12.5476 114.957 13.2357 115.615 14.0313 116.121C14.827 116.627 15.7147 116.972 16.6436 117.135C17.5725 117.298 18.5244 117.276 19.4448 117.07C20.3653 116.865 21.2363 116.48 22.0079 115.938Z" fill="white"/>
<path d="M47.6952 98.2362C48.8998 97.391 49.8267 96.2077 50.3588 94.8357C50.8908 93.4638 51.0041 91.9649 50.6843 90.5286C50.3645 89.0923 49.626 87.783 48.5621 86.7665C47.4982 85.7499 46.1567 85.0716 44.7074 84.8174C43.258 84.5632 41.7658 84.7445 40.4195 85.3384C39.0731 85.9323 37.9332 86.9121 37.1437 88.1538C36.3542 89.3956 35.9506 90.8436 35.9841 92.3147C36.0175 93.7858 36.4865 95.214 37.3316 96.4186C38.4649 98.0339 40.1934 99.1329 42.137 99.4737C44.0805 99.8146 46.0798 99.3694 47.6952 98.2362Z" fill="white"/>
<path d="M73.1456 80.1706C74.3235 79.3455 75.2301 78.1896 75.7509 76.8491C76.2717 75.5087 76.3832 74.0438 76.0714 72.64C75.7596 71.2361 75.0384 69.9563 73.9991 68.9623C72.9598 67.9684 71.6491 67.305 70.2327 67.0561C68.8163 66.8072 67.3579 66.9839 66.042 67.564C64.7261 68.144 63.6118 69.1013 62.84 70.3148C62.0682 71.5282 61.6737 72.9433 61.7062 74.381C61.7388 75.8187 62.197 77.2145 63.023 78.3917C64.1298 79.9694 65.8179 81.0431 67.7161 81.3766C69.6142 81.7102 71.5672 81.2764 73.1456 80.1706Z" fill="white"/>
<path d="M98.3729 61.8367C99.4658 61.07 100.307 59.9964 100.789 58.7517C101.272 57.507 101.375 56.1471 101.085 54.844C100.795 53.5409 100.125 52.353 99.1594 51.4307C98.1942 50.5084 96.9772 49.8931 95.6622 49.6625C94.3473 49.4318 92.9934 49.5963 91.772 50.1351C90.5505 50.6739 89.5163 51.5628 88.8 52.6894C88.0837 53.816 87.7176 55.1298 87.7479 56.4644C87.7783 57.7991 88.2037 59.0948 88.9705 60.1877C89.4791 60.9139 90.126 61.5326 90.874 62.0086C91.622 62.4846 92.4565 62.8084 93.3298 62.9616C94.2031 63.1147 95.098 63.0942 95.9633 62.9012C96.8287 62.7082 97.6475 62.3465 98.3729 61.8367Z" fill="white"/>
<path d="M123.417 43.2102C124.371 42.5424 125.105 41.6068 125.526 40.5217C125.948 39.4366 126.039 38.2508 125.786 37.1144C125.534 35.9779 124.95 34.9417 124.109 34.137C123.268 33.3323 122.207 32.7952 121.06 32.5936C119.914 32.392 118.733 32.535 117.668 33.0045C116.603 33.474 115.7 34.2489 115.076 35.2312C114.451 36.2135 114.131 37.359 114.158 38.5229C114.184 39.6867 114.555 40.8166 115.224 41.7696C116.12 43.0466 117.486 43.9157 119.022 44.1858C120.559 44.456 122.139 44.105 123.417 43.2102Z" fill="white"/>
<path d="M148.412 24.5159C149.211 23.9553 149.826 23.1704 150.178 22.2604C150.531 21.3504 150.606 20.3561 150.394 19.4034C150.182 18.4507 149.692 17.5823 148.987 16.908C148.281 16.2337 147.391 15.7838 146.43 15.6152C145.468 15.4466 144.479 15.5668 143.586 15.9607C142.693 16.3547 141.936 17.0046 141.413 17.8282C140.889 18.6519 140.621 19.6124 140.644 20.5882C140.666 21.564 140.977 22.5113 141.537 23.3103C142.289 24.3818 143.436 25.1107 144.725 25.3368C146.014 25.5629 147.34 25.2676 148.412 24.5159Z" fill="white"/>
<path d="M173.252 5.60239C173.854 5.17983 174.318 4.58814 174.584 3.90217C174.85 3.21621 174.906 2.46678 174.746 1.74862C174.587 1.03046 174.217 0.375831 173.685 -0.132459C173.153 -0.640749 172.483 -0.979871 171.758 -1.10697C171.033 -1.23406 170.287 -1.14342 169.614 -0.846486C168.941 -0.549548 168.371 -0.0596509 167.976 0.561234C167.581 1.18212 167.38 1.9061 167.396 2.64165C167.413 3.37721 167.648 4.09131 168.07 4.69361C168.637 5.50127 169.501 6.05074 170.473 6.22117C171.445 6.3916 172.444 6.16902 173.252 5.60239Z" fill="white"/>
<path d="M1.01861 165.917C2.92523 163.973 2.89513 160.852 0.951361 158.945C-0.992403 157.039 -4.11377 157.069 -6.0204 159.013C-7.92702 160.956 -7.89691 164.078 -5.95314 165.984C-4.00938 167.891 -0.88802 167.861 1.01861 165.917Z" fill="white"/>
<path d="M26.2131 149.092C27.1093 148.463 27.7989 147.583 28.1947 146.562C28.5906 145.542 28.6748 144.427 28.4369 143.358C28.199 142.29 27.6496 141.316 26.8581 140.559C26.0666 139.803 25.0686 139.298 23.9903 139.109C22.9121 138.92 21.802 139.055 20.8004 139.497C19.7988 139.939 18.9507 140.668 18.3633 141.591C17.776 142.515 17.4758 143.592 17.5006 144.687C17.5255 145.781 17.8744 146.844 18.5031 147.74C19.3462 148.942 20.6322 149.759 22.0781 150.013C23.524 150.266 25.0114 149.935 26.2131 149.092Z" fill="white"/>
<path d="M51.8965 131.391C52.8347 130.733 53.5567 129.811 53.9712 128.742C54.3856 127.674 54.4738 126.506 54.2247 125.388C53.9756 124.269 53.4004 123.249 52.5717 122.457C51.7431 121.665 50.6982 121.137 49.5693 120.939C48.4404 120.741 47.2781 120.882 46.2295 121.345C45.1808 121.808 44.2929 122.571 43.6779 123.538C43.063 124.505 42.7487 125.633 42.7747 126.779C42.8008 127.925 43.1661 129.037 43.8243 129.975C44.707 131.233 46.0534 132.089 47.5672 132.355C49.081 132.62 50.6383 132.274 51.8965 131.391Z" fill="white"/>
<path d="M77.48 113.523C78.433 112.853 79.1657 111.915 79.5855 110.829C80.0053 109.742 80.0932 108.556 79.8381 107.419C79.583 106.283 78.9964 105.247 78.1525 104.445C77.3087 103.642 76.2455 103.107 75.0978 102.909C73.95 102.711 72.7692 102.857 71.7048 103.331C70.6405 103.804 69.7406 104.582 69.119 105.568C68.4974 106.553 68.1821 107.7 68.213 108.864C68.244 110.029 68.6198 111.158 69.2928 112.108C69.7375 112.739 70.302 113.276 70.9541 113.688C71.6063 114.1 72.3332 114.38 73.0935 114.511C73.8537 114.643 74.6324 114.623 75.3851 114.453C76.1377 114.284 76.8496 113.967 77.48 113.523Z" fill="white"/>
<path d="M102.826 95.3431C103.723 94.7144 104.412 93.834 104.808 92.8134C105.204 91.7927 105.288 90.6776 105.05 89.609C104.812 88.5405 104.263 87.5665 103.471 86.8102C102.68 86.0539 101.682 85.5493 100.604 85.3602C99.5254 85.1711 98.4153 85.306 97.4137 85.7478C96.4121 86.1896 95.564 86.9185 94.9766 87.8423C94.3893 88.7662 94.089 89.8434 94.1139 90.9378C94.1388 92.0323 94.4877 93.0948 95.1164 93.9909C95.9595 95.1927 97.2455 96.0102 98.6914 96.2638C100.137 96.5174 101.625 96.1862 102.826 95.3431Z" fill="white"/>
<path d="M128.071 77.0018C130.341 75.4095 130.89 72.2788 129.297 70.0092C127.705 67.7395 124.574 67.1905 122.305 68.7828C120.035 70.3751 119.486 73.5058 121.078 75.7754C122.671 78.045 125.801 78.5941 128.071 77.0018Z" fill="white"/>
<path d="M153.177 58.4354C153.864 57.9538 154.392 57.2794 154.695 56.4975C154.998 55.7157 155.063 54.8615 154.881 54.0429C154.698 53.2244 154.278 52.4782 153.671 51.8989C153.065 51.3195 152.3 50.933 151.474 50.7882C150.649 50.6433 149.798 50.7466 149.031 51.0851C148.264 51.4235 147.614 51.9819 147.164 52.6895C146.714 53.3972 146.484 54.2224 146.503 55.0608C146.522 55.8992 146.789 56.7131 147.271 57.3996C147.917 58.3201 148.902 58.9464 150.01 59.1407C151.117 59.3349 152.257 59.0812 153.177 58.4354Z" fill="white"/>
<path d="M178.148 39.7488C178.682 39.3756 179.092 38.8525 179.329 38.2457C179.565 37.6389 179.615 36.9757 179.474 36.34C179.333 35.7044 179.007 35.1249 178.536 34.6748C178.066 34.2248 177.472 33.9246 176.831 33.8121C176.189 33.6996 175.529 33.78 174.934 34.043C174.338 34.306 173.834 34.7398 173.485 35.2896C173.136 35.8393 172.958 36.4802 172.973 37.1312C172.989 37.7821 173.197 38.4138 173.572 38.9463C174.073 39.6584 174.836 40.1428 175.694 40.2932C176.552 40.4436 177.434 40.2478 178.148 39.7488Z" fill="white"/>
<path d="M203.044 20.9085C203.395 20.6625 203.665 20.3179 203.82 19.9184C203.974 19.519 204.007 19.0826 203.914 18.6644C203.821 18.2463 203.605 17.8653 203.295 17.5696C202.985 17.2739 202.595 17.0768 202.172 17.0033C201.75 16.9298 201.316 16.9831 200.924 17.1566C200.533 17.3301 200.201 17.6159 199.972 17.9778C199.743 18.3397 199.626 18.7615 199.637 19.1898C199.647 19.6181 199.785 20.0336 200.031 20.3837C200.194 20.6168 200.401 20.8154 200.641 20.9681C200.881 21.1207 201.149 21.2244 201.429 21.2732C201.709 21.322 201.996 21.3149 202.273 21.2523C202.55 21.1897 202.812 21.0729 203.044 20.9085Z" fill="white"/>
<path d="M227.937 2.07112C228.105 1.95286 228.235 1.78725 228.309 1.59523C228.384 1.40321 228.399 1.19344 228.354 0.992506C228.309 0.791577 228.206 0.608538 228.056 0.466558C227.907 0.324578 227.719 0.230033 227.516 0.194953C227.314 0.159873 227.105 0.185833 226.917 0.2695C226.729 0.353168 226.569 0.490794 226.46 0.664952C226.35 0.83911 226.294 1.04195 226.3 1.24778C226.305 1.45361 226.372 1.65318 226.491 1.82117C226.65 2.0455 226.891 2.19772 227.162 2.24457C227.433 2.29141 227.712 2.22904 227.937 2.07112Z" fill="white"/>
<path d="M4.53089 199.669C5.06357 199.295 5.47347 198.772 5.70875 198.165C5.94403 197.558 5.99412 196.896 5.8527 196.26C5.71128 195.625 5.3847 195.046 4.91424 194.597C4.44379 194.147 3.85059 193.847 3.20967 193.735C2.56875 193.623 1.9089 193.703 1.31355 193.965C0.718195 194.228 0.214086 194.661 -0.135031 195.21C-0.484148 195.759 -0.662599 196.4 -0.647806 197.05C-0.633014 197.701 -0.425647 198.332 -0.0519308 198.865C0.449206 199.579 1.21357 200.065 2.07302 200.216C2.93246 200.367 3.81658 200.17 4.53089 199.669Z" fill="white"/>
<path d="M30.3605 182.174C30.9766 181.742 31.4506 181.137 31.7227 180.435C31.9949 179.733 32.0528 178.967 31.8892 178.232C31.7257 177.498 31.348 176.828 30.8039 176.308C30.2598 175.788 29.5737 175.442 28.8325 175.312C28.0912 175.182 27.3281 175.274 26.6395 175.578C25.951 175.882 25.368 176.383 24.9642 177.018C24.5604 177.653 24.3541 178.393 24.3712 179.146C24.3883 179.898 24.6281 180.629 25.0603 181.245C25.3473 181.654 25.712 182.002 26.1337 182.27C26.5554 182.538 27.0257 182.721 27.5179 182.807C28.0101 182.893 28.5144 182.882 29.0022 182.773C29.4899 182.665 29.9515 182.461 30.3605 182.174Z" fill="white"/>
<path d="M56.1538 164.611C56.8403 164.13 57.3685 163.455 57.6718 162.673C57.975 161.891 58.0395 161.037 57.8573 160.219C57.675 159.4 57.2541 158.654 56.6478 158.075C56.0415 157.495 55.277 157.109 54.4511 156.964C53.6251 156.819 52.7747 156.922 52.0074 157.261C51.2402 157.599 50.5905 158.158 50.1406 158.865C49.6906 159.573 49.4606 160.398 49.4797 161.237C49.4988 162.075 49.766 162.889 50.2476 163.575C50.8935 164.496 51.8786 165.122 52.9862 165.316C54.0938 165.511 55.2332 165.257 56.1538 164.611Z" fill="white"/>
<path d="M81.739 146.765C82.4392 146.274 82.9781 145.586 83.2874 144.788C83.5967 143.991 83.6625 143.119 83.4766 142.284C83.2907 141.449 82.8614 140.688 82.2429 140.097C81.6245 139.507 80.8447 139.112 80.0021 138.964C79.1596 138.817 78.2921 138.922 77.5095 139.267C76.7268 139.613 76.0641 140.182 75.6052 140.904C75.1462 141.626 74.9117 142.468 74.9311 143.323C74.9506 144.178 75.2231 145.008 75.7144 145.708C76.3732 146.647 77.3781 147.286 78.5079 147.484C79.6377 147.683 80.7999 147.424 81.739 146.765Z" fill="white"/>
<path d="M107.24 128.77C107.927 128.289 108.456 127.615 108.76 126.834C109.064 126.052 109.13 125.198 108.948 124.379C108.766 123.56 108.346 122.813 107.74 122.233C107.134 121.653 106.369 121.266 105.543 121.121C104.717 120.975 103.867 121.078 103.099 121.416C102.331 121.755 101.681 122.313 101.231 123.021C100.781 123.728 100.551 124.554 100.57 125.392C100.588 126.231 100.856 127.045 101.337 127.732C101.983 128.651 102.967 129.278 104.074 129.472C105.18 129.667 106.319 129.415 107.24 128.77Z" fill="white"/>
<path d="M133.055 110.157C134.595 108.655 134.627 106.189 133.125 104.649C131.623 103.108 129.157 103.077 127.617 104.579C126.077 106.08 126.045 108.546 127.547 110.087C129.049 111.627 131.515 111.658 133.055 110.157Z" fill="white"/>
<path d="M157.761 92.1648C158.295 91.7918 158.705 91.2689 158.942 90.6623C159.178 90.0558 159.229 89.3928 159.088 88.7573C158.947 88.1218 158.621 87.5423 158.151 87.0922C157.681 86.642 157.088 86.3415 156.447 86.2286C155.806 86.1156 155.145 86.1954 154.55 86.4577C153.954 86.7201 153.449 87.1533 153.1 87.7024C152.751 88.2516 152.572 88.8921 152.587 89.5428C152.601 90.1936 152.809 90.8253 153.182 91.3582C153.684 92.0707 154.447 92.5556 155.305 92.7067C156.163 92.8579 157.046 92.663 157.761 92.1648Z" fill="white"/>
<path d="M182.852 73.6082C183.987 72.8121 184.261 71.2467 183.465 70.1119C182.669 68.9771 181.104 68.7026 179.969 69.4988C178.834 70.2949 178.559 71.8602 179.356 72.995C180.152 74.1298 181.717 74.4044 182.852 73.6082Z" fill="white"/>
<path d="M207.904 55.0013C208.17 54.8145 208.375 54.5528 208.493 54.2495C208.611 53.9462 208.636 53.6148 208.565 53.2972C208.494 52.9796 208.331 52.6901 208.096 52.4654C207.861 52.2406 207.564 52.0906 207.244 52.0344C206.923 51.9782 206.593 52.0183 206.295 52.1496C205.998 52.2809 205.746 52.4975 205.571 52.7721C205.397 53.0467 205.307 53.3668 205.315 53.6921C205.322 54.0174 205.426 54.3331 205.613 54.5995C205.863 54.9566 206.245 55.1996 206.675 55.2749C207.105 55.3503 207.547 55.2519 207.904 55.0013Z" fill="white"/>
<path d="M232.831 36.2181C232.929 36.1494 233.004 36.0532 233.047 35.9416C233.091 35.8301 233.1 35.7082 233.074 35.5914C233.048 35.4746 232.988 35.3681 232.901 35.2854C232.815 35.2028 232.706 35.1476 232.588 35.127C232.47 35.1063 232.349 35.121 232.239 35.1693C232.13 35.2176 232.037 35.2973 231.973 35.3983C231.909 35.4993 231.876 35.617 231.878 35.7366C231.881 35.8562 231.919 35.9724 231.988 36.0703C232.08 36.2017 232.221 36.291 232.379 36.3187C232.537 36.3465 232.699 36.3103 232.831 36.2181Z" fill="white"/>
<path d="M34.5717 215.325C34.9224 215.078 35.1922 214.734 35.347 214.334C35.5018 213.935 35.5346 213.499 35.4412 213.08C35.3479 212.662 35.1326 212.281 34.8226 211.986C34.5126 211.69 34.1218 211.493 33.6998 211.419C33.2777 211.346 32.8433 211.399 32.4516 211.573C32.0599 211.746 31.7285 212.032 31.4992 212.394C31.27 212.756 31.1533 213.178 31.1639 213.606C31.1745 214.034 31.3119 214.45 31.5588 214.8C31.8892 215.268 32.3919 215.587 32.9567 215.685C33.5215 215.783 34.1023 215.654 34.5717 215.325Z" fill="white"/>
<path d="M60.3629 197.761C60.7831 197.466 61.1064 197.054 61.2919 196.575C61.4775 196.097 61.517 195.574 61.4055 195.073C61.294 194.572 61.0364 194.115 60.6653 193.761C60.2942 193.406 59.8263 193.169 59.3208 193.081C58.8153 192.992 58.2948 193.055 57.8252 193.262C57.3556 193.47 56.958 193.811 56.6827 194.244C56.4073 194.678 56.2665 195.183 56.2782 195.696C56.2899 196.209 56.4534 196.707 56.7482 197.127C57.1435 197.691 57.7464 198.074 58.4242 198.193C59.1021 198.312 59.7995 198.156 60.3629 197.761Z" fill="white"/>
<path d="M85.9921 179.988C86.4416 179.674 86.7876 179.234 86.9866 178.723C87.1855 178.212 87.2284 177.653 87.1097 177.118C86.991 176.583 86.7161 176.095 86.3199 175.716C85.9237 175.337 85.4239 175.084 84.8839 174.989C84.3438 174.895 83.7878 174.962 83.2863 175.184C82.7847 175.405 82.3602 175.771 82.0665 176.234C81.7727 176.696 81.623 177.236 81.6362 177.784C81.6494 178.332 81.8249 178.864 82.1406 179.313C82.5627 179.912 83.2049 180.319 83.9269 180.446C84.6488 180.573 85.3914 180.408 85.9921 179.988Z" fill="white"/>
<path d="M111.535 162.069C111.984 161.754 112.329 161.314 112.527 160.803C112.725 160.292 112.767 159.733 112.648 159.198C112.529 158.663 112.253 158.176 111.857 157.798C111.46 157.419 110.96 157.167 110.42 157.073C109.881 156.979 109.325 157.047 108.824 157.268C108.322 157.49 107.898 157.856 107.605 158.319C107.311 158.781 107.162 159.321 107.175 159.869C107.189 160.417 107.364 160.948 107.68 161.397C107.888 161.694 108.154 161.948 108.461 162.143C108.768 162.337 109.11 162.47 109.468 162.532C109.826 162.595 110.193 162.586 110.548 162.507C110.903 162.427 111.238 162.278 111.535 162.069Z" fill="white"/>
<path d="M136.972 144.015C137.392 143.72 137.716 143.307 137.901 142.829C138.087 142.35 138.126 141.828 138.015 141.327C137.903 140.826 137.646 140.369 137.275 140.014C136.904 139.66 136.436 139.423 135.93 139.335C135.425 139.246 134.904 139.309 134.435 139.516C133.965 139.724 133.567 140.065 133.292 140.498C133.017 140.931 132.876 141.437 132.888 141.95C132.899 142.463 133.063 142.961 133.358 143.381C133.553 143.66 133.802 143.898 134.09 144.081C134.377 144.263 134.698 144.388 135.034 144.447C135.369 144.506 135.713 144.498 136.046 144.424C136.379 144.35 136.693 144.211 136.972 144.015Z" fill="white"/>
<path d="M162.263 125.739C162.614 125.493 162.884 125.148 163.038 124.748C163.193 124.349 163.226 123.913 163.133 123.495C163.039 123.076 162.824 122.695 162.514 122.4C162.204 122.104 161.813 121.907 161.391 121.833C160.969 121.76 160.535 121.813 160.143 121.987C159.751 122.16 159.42 122.446 159.191 122.808C158.961 123.17 158.845 123.592 158.855 124.02C158.866 124.448 159.003 124.864 159.25 125.214C159.581 125.682 160.083 126.001 160.648 126.099C161.213 126.198 161.794 126.068 162.263 125.739Z" fill="white"/>
<path d="M187.471 107.315C187.724 107.138 187.919 106.89 188.03 106.602C188.142 106.314 188.165 105.999 188.098 105.698C188.03 105.397 187.875 105.122 187.652 104.909C187.428 104.696 187.147 104.554 186.842 104.501C186.538 104.448 186.225 104.487 185.943 104.612C185.661 104.737 185.422 104.943 185.257 105.204C185.092 105.465 185.008 105.769 185.016 106.078C185.024 106.387 185.123 106.686 185.301 106.938C185.419 107.106 185.568 107.248 185.741 107.358C185.914 107.468 186.106 107.542 186.308 107.577C186.51 107.612 186.716 107.607 186.916 107.562C187.115 107.517 187.304 107.433 187.471 107.315Z" fill="white"/>
<path d="M212.592 88.847C212.732 88.7488 212.84 88.6112 212.902 88.4517C212.964 88.2922 212.977 88.1179 212.94 87.9509C212.903 87.784 212.817 87.6317 212.693 87.5135C212.569 87.3953 212.413 87.3165 212.245 87.2869C212.076 87.2574 211.903 87.2785 211.746 87.3475C211.59 87.4166 211.457 87.5305 211.366 87.6748C211.274 87.8192 211.227 87.9876 211.231 88.1586C211.235 88.3296 211.289 88.4957 211.387 88.6357C211.519 88.8235 211.72 88.9513 211.946 88.9909C212.172 89.0305 212.404 88.9788 212.592 88.847Z" fill="white"/>
<path d="M237.736 70.3586C237.773 70.3327 237.798 70.2932 237.806 70.2488C237.814 70.2044 237.803 70.1587 237.777 70.1218C237.751 70.0845 237.712 70.0588 237.667 70.0503C237.622 70.0418 237.576 70.051 237.538 70.0761C237.5 70.1028 237.474 70.1435 237.466 70.1892C237.458 70.2349 237.468 70.2819 237.495 70.3199C237.522 70.3564 237.563 70.3809 237.608 70.3881C237.653 70.3954 237.699 70.3847 237.736 70.3586Z" fill="white"/>
<path d="M90.2476 213.208C90.7947 212.824 90.927 212.069 90.5432 211.522C90.1594 210.975 89.4048 210.843 88.8577 211.227C88.3107 211.611 88.1783 212.365 88.5621 212.912C88.9459 213.459 89.7006 213.592 90.2476 213.208Z" fill="white"/>
<path d="M115.838 195.366C116.05 195.219 116.213 195.013 116.306 194.773C116.4 194.533 116.421 194.271 116.366 194.02C116.311 193.769 116.182 193.539 115.996 193.361C115.811 193.183 115.576 193.064 115.323 193.019C115.07 192.974 114.809 193.005 114.573 193.109C114.337 193.212 114.138 193.383 114 193.6C113.861 193.817 113.791 194.071 113.796 194.328C113.802 194.585 113.884 194.835 114.032 195.046C114.23 195.326 114.531 195.517 114.869 195.577C115.208 195.637 115.556 195.561 115.838 195.366Z" fill="white"/>
<path d="M141.337 177.366C141.533 177.229 141.684 177.036 141.771 176.813C141.857 176.59 141.876 176.346 141.824 176.113C141.772 175.879 141.651 175.666 141.478 175.501C141.305 175.335 141.087 175.225 140.852 175.184C140.616 175.142 140.373 175.172 140.154 175.268C139.935 175.365 139.75 175.524 139.621 175.726C139.493 175.928 139.427 176.164 139.433 176.403C139.438 176.642 139.515 176.875 139.652 177.071C139.836 177.333 140.117 177.512 140.433 177.567C140.75 177.623 141.075 177.55 141.337 177.366Z" fill="white"/>
<path d="M166.713 159.244C166.866 159.135 166.983 158.984 167.05 158.809C167.117 158.633 167.131 158.442 167.09 158.259C167.048 158.076 166.953 157.909 166.817 157.78C166.681 157.651 166.51 157.565 166.325 157.533C166.14 157.501 165.95 157.525 165.778 157.601C165.606 157.677 165.461 157.802 165.361 157.961C165.26 158.119 165.209 158.304 165.213 158.491C165.218 158.679 165.278 158.861 165.385 159.015C165.457 159.117 165.549 159.205 165.654 159.272C165.76 159.339 165.878 159.384 166.001 159.405C166.125 159.427 166.251 159.423 166.373 159.396C166.495 159.368 166.611 159.317 166.713 159.244Z" fill="white"/>
<path d="M192.003 140.978C192.084 140.921 192.146 140.841 192.182 140.749C192.218 140.657 192.226 140.556 192.204 140.46C192.183 140.363 192.133 140.275 192.061 140.207C191.99 140.139 191.9 140.093 191.802 140.076C191.705 140.059 191.605 140.071 191.514 140.111C191.424 140.151 191.347 140.217 191.294 140.3C191.241 140.384 191.214 140.481 191.216 140.58C191.218 140.679 191.25 140.775 191.307 140.855C191.383 140.964 191.499 141.038 191.63 141.061C191.76 141.084 191.895 141.054 192.003 140.978Z" fill="white"/>
</g>
<g opacity="0.1">
<path d="M1275.48 213.708C1273.39 213.476 1271.51 214.981 1271.27 217.069C1271.04 219.158 1272.55 221.039 1274.64 221.271C1276.72 221.503 1278.61 219.998 1278.84 217.91C1279.07 215.821 1277.57 213.94 1275.48 213.708Z" fill="white"/>
<path d="M1246.47 204.767C1246.04 204.611 1245.56 204.588 1245.12 204.701C1244.67 204.813 1244.26 205.056 1243.95 205.398C1243.64 205.74 1243.44 206.167 1243.38 206.623C1243.31 207.08 1243.38 207.547 1243.57 207.964C1243.77 208.382 1244.09 208.731 1244.49 208.969C1244.88 209.206 1245.34 209.32 1245.8 209.298C1246.26 209.275 1246.71 209.116 1247.08 208.841C1247.45 208.565 1247.73 208.186 1247.88 207.751C1248.09 207.168 1248.06 206.526 1247.8 205.967C1247.53 205.407 1247.05 204.975 1246.47 204.767Z" fill="white"/>
<path d="M1216.6 195.649C1216.44 195.592 1216.26 195.583 1216.1 195.625C1215.93 195.666 1215.78 195.756 1215.67 195.883C1215.55 196.01 1215.48 196.168 1215.45 196.337C1215.43 196.506 1215.45 196.679 1215.53 196.834C1215.6 196.988 1215.72 197.118 1215.86 197.206C1216.01 197.294 1216.18 197.336 1216.35 197.328C1216.52 197.319 1216.69 197.26 1216.82 197.158C1216.96 197.056 1217.07 196.916 1217.12 196.755C1217.16 196.648 1217.18 196.534 1217.17 196.421C1217.17 196.307 1217.14 196.196 1217.09 196.093C1217.04 195.99 1216.98 195.898 1216.89 195.822C1216.81 195.745 1216.71 195.687 1216.6 195.649Z" fill="white"/>
<path d="M1391.52 216.049C1389.78 215.427 1387.9 215.335 1386.1 215.784C1384.31 216.234 1382.69 217.205 1381.45 218.575C1380.21 219.945 1379.4 221.652 1379.13 223.48C1378.86 225.308 1379.14 227.176 1379.93 228.846C1380.72 230.517 1381.99 231.916 1383.58 232.865C1385.16 233.815 1386.99 234.273 1388.84 234.182C1390.68 234.091 1392.46 233.454 1393.95 232.353C1395.43 231.252 1396.55 229.735 1397.18 227.994C1397.59 226.839 1397.77 225.613 1397.71 224.387C1397.65 223.161 1397.35 221.959 1396.83 220.85C1396.3 219.74 1395.56 218.745 1394.65 217.922C1393.74 217.098 1392.68 216.461 1391.52 216.049Z" fill="white"/>
<path d="M1361.66 206.845C1360.18 206.323 1358.57 206.252 1357.05 206.641C1355.53 207.03 1354.15 207.862 1353.1 209.032C1352.05 210.201 1351.37 211.656 1351.14 213.212C1350.92 214.769 1351.16 216.357 1351.83 217.777C1352.51 219.196 1353.59 220.384 1354.94 221.19C1356.29 221.995 1357.85 222.383 1359.42 222.303C1360.99 222.224 1362.51 221.681 1363.77 220.743C1365.03 219.805 1365.99 218.514 1366.52 217.033C1366.87 216.045 1367.02 214.998 1366.97 213.951C1366.92 212.903 1366.66 211.877 1366.21 210.93C1365.76 209.983 1365.12 209.135 1364.34 208.434C1363.56 207.733 1362.65 207.193 1361.66 206.845Z" fill="white"/>
<path d="M1331.81 197.735C1330.6 197.302 1329.29 197.238 1328.04 197.551C1326.8 197.863 1325.67 198.539 1324.81 199.492C1323.95 200.444 1323.38 201.632 1323.2 202.903C1323.01 204.175 1323.2 205.474 1323.75 206.636C1324.3 207.798 1325.18 208.771 1326.29 209.431C1327.39 210.092 1328.66 210.411 1329.95 210.347C1331.23 210.284 1332.47 209.841 1333.5 209.075C1334.53 208.309 1335.31 207.254 1335.75 206.043C1336.33 204.42 1336.24 202.633 1335.5 201.075C1334.76 199.516 1333.44 198.315 1331.81 197.735Z" fill="white"/>
<path d="M1301.91 188.697C1300.99 188.367 1300 188.318 1299.05 188.554C1298.1 188.791 1297.25 189.303 1296.59 190.026C1295.93 190.749 1295.51 191.651 1295.36 192.616C1295.22 193.582 1295.37 194.568 1295.78 195.451C1296.2 196.334 1296.87 197.073 1297.71 197.575C1298.54 198.077 1299.51 198.319 1300.49 198.271C1301.46 198.223 1302.4 197.887 1303.19 197.306C1303.97 196.724 1304.56 195.923 1304.89 195.003C1305.33 193.772 1305.27 192.416 1304.71 191.233C1304.15 190.051 1303.14 189.138 1301.91 188.697Z" fill="white"/>
<path d="M1272.04 179.578C1271.39 179.347 1270.7 179.311 1270.03 179.477C1269.36 179.643 1268.76 180.003 1268.3 180.51C1267.84 181.018 1267.54 181.651 1267.44 182.329C1267.34 183.007 1267.44 183.7 1267.74 184.319C1268.03 184.939 1268.5 185.458 1269.09 185.811C1269.67 186.163 1270.35 186.334 1271.04 186.3C1271.72 186.267 1272.38 186.031 1272.93 185.622C1273.48 185.214 1273.9 184.651 1274.13 184.006C1274.28 183.578 1274.35 183.124 1274.33 182.669C1274.31 182.215 1274.2 181.77 1274 181.358C1273.81 180.947 1273.54 180.578 1273.2 180.273C1272.86 179.967 1272.47 179.731 1272.04 179.578Z" fill="white"/>
<path d="M1242.17 170.467C1241.8 170.334 1241.39 170.315 1241.01 170.411C1240.63 170.507 1240.28 170.715 1240.01 171.008C1239.75 171.301 1239.58 171.666 1239.52 172.058C1239.46 172.449 1239.52 172.849 1239.69 173.206C1239.86 173.564 1240.13 173.863 1240.47 174.066C1240.81 174.27 1241.2 174.368 1241.6 174.348C1241.99 174.329 1242.37 174.193 1242.69 173.957C1243.01 173.721 1243.25 173.396 1243.38 173.024C1243.56 172.524 1243.53 171.975 1243.3 171.495C1243.08 171.016 1242.67 170.646 1242.17 170.467Z" fill="white"/>
<path d="M1212.31 161.326C1212.21 161.292 1212.11 161.287 1212.02 161.311C1211.92 161.335 1211.83 161.387 1211.77 161.461C1211.7 161.534 1211.66 161.625 1211.64 161.723C1211.63 161.821 1211.64 161.921 1211.69 162.01C1211.73 162.1 1211.8 162.175 1211.88 162.225C1211.97 162.276 1212.06 162.301 1212.16 162.296C1212.26 162.291 1212.36 162.257 1212.44 162.198C1212.52 162.139 1212.58 162.058 1212.61 161.965C1212.65 161.84 1212.65 161.702 1212.59 161.583C1212.53 161.463 1212.43 161.37 1212.31 161.326Z" fill="white"/>
<path d="M1446.95 199.98C1444.73 199.184 1442.32 199.066 1440.03 199.64C1437.74 200.213 1435.67 201.454 1434.08 203.204C1432.49 204.954 1431.46 207.136 1431.12 209.472C1430.77 211.808 1431.13 214.195 1432.14 216.33C1433.15 218.465 1434.77 220.252 1436.79 221.466C1438.82 222.679 1441.16 223.264 1443.52 223.147C1445.88 223.03 1448.15 222.216 1450.05 220.808C1451.94 219.4 1453.38 217.461 1454.17 215.237C1455.24 212.256 1455.07 208.975 1453.72 206.114C1452.37 203.253 1449.93 201.047 1446.95 199.98Z" fill="white"/>
<path d="M1415.4 190.397C1409.71 189.39 1404.28 193.188 1403.28 198.879C1402.27 204.571 1406.07 210 1411.76 211.007C1417.45 212.014 1422.88 208.216 1423.89 202.525C1424.89 196.834 1421.09 191.404 1415.4 190.397Z" fill="white"/>
<path d="M1385.77 181.428C1380.93 180.562 1376.3 183.787 1375.44 188.631C1374.57 193.475 1377.79 198.104 1382.64 198.97C1387.48 199.835 1392.11 196.61 1392.98 191.766C1393.84 186.922 1390.62 182.293 1385.77 181.428Z" fill="white"/>
<path d="M1355.63 172.327C1351.54 171.876 1347.87 174.821 1347.42 178.905C1346.97 182.989 1349.91 186.666 1354 187.117C1358.08 187.568 1361.76 184.623 1362.21 180.539C1362.66 176.454 1359.71 172.778 1355.63 172.327Z" fill="white"/>
<path d="M1327.42 163.678C1326.32 163.286 1325.14 163.228 1324.01 163.512C1322.88 163.795 1321.86 164.407 1321.08 165.27C1320.3 166.133 1319.79 167.208 1319.62 168.36C1319.45 169.511 1319.62 170.687 1320.12 171.74C1320.62 172.792 1321.42 173.672 1322.42 174.27C1323.42 174.867 1324.57 175.155 1325.73 175.097C1326.9 175.039 1328.02 174.637 1328.95 173.943C1329.88 173.248 1330.59 172.292 1330.98 171.196C1331.24 170.468 1331.36 169.697 1331.32 168.925C1331.28 168.153 1331.09 167.396 1330.76 166.698C1330.43 166 1329.97 165.373 1329.39 164.855C1328.82 164.337 1328.15 163.937 1327.42 163.678Z" fill="white"/>
<path d="M1297.53 154.624C1296.73 154.337 1295.85 154.294 1295.02 154.502C1294.19 154.71 1293.44 155.16 1292.87 155.793C1292.3 156.427 1291.92 157.217 1291.8 158.064C1291.67 158.91 1291.8 159.774 1292.17 160.547C1292.53 161.321 1293.12 161.968 1293.85 162.407C1294.59 162.847 1295.43 163.059 1296.29 163.017C1297.14 162.975 1297.97 162.68 1298.65 162.17C1299.34 161.66 1299.86 160.958 1300.15 160.153C1300.34 159.618 1300.42 159.051 1300.39 158.484C1300.37 157.916 1300.23 157.36 1299.98 156.847C1299.74 156.333 1299.4 155.873 1298.98 155.492C1298.56 155.11 1298.07 154.816 1297.53 154.624Z" fill="white"/>
<path d="M1267.65 145.524C1266.16 144.993 1264.53 145.766 1264 147.251C1263.47 148.736 1264.24 150.369 1265.73 150.9C1267.21 151.431 1268.84 150.658 1269.38 149.173C1269.91 147.688 1269.13 146.054 1267.65 145.524Z" fill="white"/>
<path d="M1237.75 136.492C1237.51 136.404 1237.24 136.39 1236.99 136.452C1236.74 136.514 1236.52 136.649 1236.35 136.84C1236.17 137.03 1236.06 137.268 1236.02 137.523C1235.98 137.777 1236.02 138.038 1236.13 138.27C1236.24 138.503 1236.42 138.698 1236.64 138.83C1236.86 138.962 1237.12 139.026 1237.37 139.013C1237.63 138.999 1237.88 138.91 1238.08 138.756C1238.29 138.602 1238.45 138.39 1238.53 138.147C1238.65 137.824 1238.63 137.468 1238.48 137.158C1238.34 136.848 1238.07 136.609 1237.75 136.492Z" fill="white"/>
<path d="M1207.96 127.128C1207.94 127.122 1207.92 127.123 1207.9 127.133C1207.88 127.142 1207.86 127.159 1207.86 127.179C1207.85 127.201 1207.85 127.224 1207.86 127.244C1207.87 127.265 1207.89 127.28 1207.91 127.288C1207.92 127.292 1207.93 127.295 1207.94 127.295C1207.95 127.295 1207.96 127.292 1207.97 127.288C1207.99 127.283 1208 127.276 1208 127.268C1208.01 127.259 1208.02 127.249 1208.02 127.238C1208.03 127.216 1208.03 127.192 1208.01 127.172C1208 127.151 1207.99 127.136 1207.96 127.128Z" fill="white"/>
<path d="M1442.37 166.494C1440.37 165.778 1438.21 165.672 1436.15 166.187C1434.09 166.702 1432.23 167.817 1430.8 169.389C1429.38 170.962 1428.45 172.922 1428.14 175.021C1427.83 177.121 1428.15 179.265 1429.05 181.184C1429.96 183.102 1431.42 184.709 1433.24 185.8C1435.06 186.891 1437.16 187.417 1439.28 187.313C1441.4 187.208 1443.44 186.477 1445.15 185.213C1446.85 183.948 1448.14 182.206 1448.86 180.208C1449.82 177.529 1449.67 174.579 1448.45 172.008C1447.24 169.436 1445.05 167.453 1442.37 166.494Z" fill="white"/>
<path d="M1412.56 157.216C1410.8 156.588 1408.9 156.495 1407.09 156.949C1405.28 157.402 1403.64 158.382 1402.39 159.765C1401.14 161.147 1400.33 162.869 1400.05 164.714C1399.78 166.559 1400.06 168.444 1400.86 170.13C1401.66 171.815 1402.93 173.227 1404.53 174.185C1406.13 175.143 1407.98 175.606 1409.85 175.514C1411.71 175.422 1413.5 174.779 1415 173.668C1416.5 172.557 1417.63 171.026 1418.26 169.27C1418.68 168.104 1418.86 166.867 1418.8 165.63C1418.74 164.393 1418.44 163.18 1417.91 162.06C1417.38 160.941 1416.63 159.937 1415.71 159.105C1414.79 158.274 1413.72 157.632 1412.56 157.216Z" fill="white"/>
<path d="M1382.67 148.091C1381.18 147.569 1379.58 147.498 1378.05 147.887C1376.53 148.276 1375.16 149.108 1374.1 150.278C1373.05 151.447 1372.37 152.902 1372.15 154.458C1371.92 156.015 1372.16 157.603 1372.84 159.023C1373.51 160.443 1374.6 161.63 1375.95 162.436C1377.3 163.241 1378.86 163.629 1380.43 163.549C1382 163.47 1383.51 162.927 1384.77 161.989C1386.03 161.051 1386.99 159.76 1387.52 158.279C1387.87 157.292 1388.03 156.244 1387.97 155.197C1387.92 154.149 1387.66 153.123 1387.21 152.176C1386.76 151.229 1386.13 150.381 1385.35 149.68C1384.57 148.979 1383.66 148.439 1382.67 148.091Z" fill="white"/>
<path d="M1352.82 138.983C1349.45 137.777 1345.73 139.535 1344.52 142.91C1343.32 146.285 1345.08 149.999 1348.45 151.206C1351.83 152.412 1355.54 150.655 1356.75 147.279C1357.95 143.904 1356.2 140.19 1352.82 138.983Z" fill="white"/>
<path d="M1317.55 131.223C1315.69 133.27 1315.83 136.441 1317.88 138.307C1319.93 140.173 1323.1 140.027 1324.97 137.98C1326.83 135.933 1326.68 132.761 1324.64 130.895C1322.59 129.029 1319.42 129.176 1317.55 131.223Z" fill="white"/>
<path d="M1293.04 120.83C1292.4 120.6 1291.7 120.565 1291.03 120.732C1290.37 120.898 1289.77 121.258 1289.31 121.765C1288.85 122.272 1288.55 122.904 1288.45 123.581C1288.35 124.258 1288.46 124.95 1288.75 125.568C1289.04 126.187 1289.51 126.705 1290.1 127.056C1290.68 127.408 1291.36 127.577 1292.05 127.544C1292.73 127.51 1293.39 127.274 1293.94 126.866C1294.49 126.459 1294.9 125.897 1295.13 125.253C1295.44 124.389 1295.4 123.437 1295 122.608C1294.61 121.778 1293.9 121.139 1293.04 120.83Z" fill="white"/>
<path d="M1263.17 111.714C1262.8 111.581 1262.4 111.562 1262.01 111.658C1261.63 111.754 1261.28 111.962 1261.02 112.255C1260.75 112.548 1260.58 112.914 1260.52 113.305C1260.46 113.696 1260.52 114.096 1260.69 114.453C1260.86 114.811 1261.13 115.11 1261.47 115.314C1261.81 115.517 1262.2 115.615 1262.6 115.595C1262.99 115.576 1263.38 115.44 1263.69 115.204C1264.01 114.968 1264.25 114.644 1264.38 114.271C1264.56 113.772 1264.54 113.222 1264.31 112.742C1264.08 112.263 1263.67 111.893 1263.17 111.714Z" fill="white"/>
<path d="M1233.3 102.596C1233.21 102.563 1233.11 102.558 1233.01 102.582C1232.92 102.606 1232.83 102.658 1232.76 102.731C1232.7 102.805 1232.65 102.896 1232.64 102.994C1232.63 103.092 1232.64 103.191 1232.68 103.281C1232.73 103.37 1232.79 103.445 1232.88 103.496C1232.96 103.547 1233.06 103.571 1233.16 103.566C1233.26 103.561 1233.35 103.527 1233.43 103.468C1233.51 103.41 1233.57 103.328 1233.61 103.235C1233.65 103.11 1233.64 102.973 1233.59 102.853C1233.53 102.733 1233.43 102.641 1233.3 102.596Z" fill="white"/>
<path d="M1435.6 132.841C1430.57 132.277 1426.03 135.9 1425.47 140.933C1424.9 145.966 1428.53 150.503 1433.56 151.067C1438.59 151.631 1443.13 148.008 1443.69 142.975C1444.26 137.942 1440.63 133.405 1435.6 132.841Z" fill="white"/>
<path d="M1407.91 123.891C1406.41 123.355 1404.79 123.276 1403.24 123.663C1401.7 124.05 1400.3 124.886 1399.24 126.065C1398.17 127.245 1397.47 128.714 1397.24 130.288C1397.01 131.862 1397.25 133.47 1397.93 134.908C1398.61 136.346 1399.7 137.55 1401.07 138.368C1402.43 139.186 1404.01 139.58 1405.6 139.502C1407.19 139.423 1408.72 138.875 1409.99 137.927C1411.27 136.979 1412.24 135.673 1412.77 134.175C1413.49 132.165 1413.38 129.953 1412.47 128.025C1411.56 126.096 1409.92 124.609 1407.91 123.891Z" fill="white"/>
<path d="M1378.09 114.611C1376.83 114.162 1375.47 114.095 1374.18 114.42C1372.88 114.745 1371.71 115.447 1370.82 116.437C1369.92 117.426 1369.34 118.66 1369.14 119.981C1368.95 121.302 1369.15 122.651 1369.72 123.857C1370.29 125.064 1371.21 126.074 1372.35 126.76C1373.5 127.445 1374.82 127.776 1376.16 127.709C1377.49 127.642 1378.77 127.182 1379.84 126.385C1380.92 125.589 1381.73 124.493 1382.18 123.235C1382.47 122.4 1382.61 121.515 1382.56 120.63C1382.52 119.745 1382.3 118.877 1381.92 118.077C1381.54 117.276 1381.01 116.557 1380.35 115.963C1379.69 115.368 1378.93 114.909 1378.09 114.611Z" fill="white"/>
<path d="M1343.39 106.131C1341.02 107.814 1340.45 111.105 1342.13 113.484C1343.82 115.863 1347.11 116.427 1349.49 114.745C1351.86 113.063 1352.43 109.771 1350.75 107.392C1349.06 105.014 1345.77 104.449 1343.39 106.131Z" fill="white"/>
<path d="M1318.38 96.2949C1316.36 95.5707 1314.13 96.6258 1313.41 98.6514C1312.68 100.677 1313.74 102.906 1315.76 103.63C1317.79 104.354 1320.02 103.299 1320.74 101.274C1321.46 99.2481 1320.41 97.019 1318.38 96.2949Z" fill="white"/>
<path d="M1288.51 87.1792C1288.05 87.0177 1287.56 86.9939 1287.1 87.1107C1286.63 87.2275 1286.21 87.4798 1285.89 87.8356C1285.57 88.1914 1285.36 88.6347 1285.29 89.1094C1285.22 89.5841 1285.29 90.0689 1285.5 90.5024C1285.7 90.9359 1286.03 91.2986 1286.45 91.5446C1286.86 91.7907 1287.33 91.909 1287.81 91.8846C1288.29 91.8601 1288.75 91.6941 1289.14 91.4075C1289.52 91.1208 1289.81 90.7265 1289.97 90.2743C1290.08 89.9747 1290.13 89.6568 1290.11 89.339C1290.1 89.0212 1290.02 88.7096 1289.88 88.4221C1289.75 88.1346 1289.55 87.8769 1289.32 87.6636C1289.08 87.4503 1288.81 87.2857 1288.51 87.1792Z" fill="white"/>
<path d="M1258.64 78.0624C1258.46 77.9977 1258.26 77.9874 1258.08 78.0327C1257.9 78.078 1257.73 78.177 1257.6 78.3169C1257.48 78.4569 1257.39 78.6316 1257.36 78.8188C1257.34 79.0061 1257.36 79.1974 1257.45 79.3685C1257.53 79.5396 1257.66 79.6828 1257.82 79.7798C1257.98 79.8769 1258.17 79.9235 1258.36 79.9136C1258.55 79.9038 1258.73 79.838 1258.88 79.7246C1259.03 79.6112 1259.15 79.4553 1259.21 79.2767C1259.29 79.0394 1259.28 78.7782 1259.17 78.5505C1259.07 78.3228 1258.87 78.1472 1258.64 78.0624Z" fill="white"/>
<path d="M1432.92 100.256C1429 98.8572 1424.7 100.895 1423.3 104.809C1421.9 108.722 1423.94 113.029 1427.85 114.428C1431.77 115.827 1436.07 113.789 1437.47 109.875C1438.87 105.962 1436.83 101.655 1432.92 100.256Z" fill="white"/>
<path d="M1402.18 90.4702C1398.65 89.8199 1395.27 92.1503 1394.62 95.6752C1393.97 99.2 1396.3 102.585 1399.82 103.235C1403.35 103.885 1406.73 101.555 1407.38 98.0298C1408.03 94.5049 1405.7 91.1204 1402.18 90.4702Z" fill="white"/>
<path d="M1366.72 84.4122C1365.66 87.1267 1367 90.1848 1369.72 91.2426C1372.43 92.3005 1375.49 90.9575 1376.55 88.2431C1377.6 85.5286 1376.26 82.4706 1373.55 81.4127C1370.83 80.3548 1367.77 81.6978 1366.72 84.4122Z" fill="white"/>
<path d="M1342.97 71.9364C1340.81 71.5377 1338.73 72.9668 1338.33 75.1284C1337.93 77.29 1339.36 79.3656 1341.52 79.7643C1343.69 80.1631 1345.76 78.734 1346.16 76.5724C1346.56 74.4107 1345.13 72.3351 1342.97 71.9364Z" fill="white"/>
<path d="M1313.76 62.8917C1313.27 62.7189 1312.75 62.6933 1312.25 62.8182C1311.75 62.943 1311.3 63.2127 1310.96 63.5931C1310.62 63.9735 1310.39 64.4475 1310.32 64.9552C1310.24 65.4629 1310.32 65.9815 1310.54 66.4454C1310.76 66.9093 1311.11 67.2977 1311.55 67.5614C1311.99 67.8252 1312.5 67.9524 1313.01 67.9271C1313.52 67.9018 1314.02 67.725 1314.43 67.4191C1314.84 67.1133 1315.15 66.6921 1315.33 66.2088C1315.56 65.5607 1315.52 64.8472 1315.23 64.2251C1314.93 63.603 1314.4 63.1234 1313.76 62.8917Z" fill="white"/>
<path d="M1283.91 53.6938C1283.69 53.6132 1283.44 53.6013 1283.21 53.6595C1282.98 53.7177 1282.77 53.8435 1282.61 54.0208C1282.45 54.1982 1282.34 54.4192 1282.31 54.656C1282.27 54.8927 1282.31 55.1345 1282.41 55.3508C1282.51 55.5671 1282.68 55.7482 1282.88 55.8712C1283.09 55.9942 1283.33 56.0535 1283.57 56.0417C1283.8 56.0299 1284.04 55.9475 1284.23 55.8049C1284.42 55.6622 1284.57 55.4658 1284.65 55.2405C1284.75 54.9383 1284.74 54.6056 1284.6 54.3155C1284.46 54.0255 1284.22 53.8018 1283.91 53.6938Z" fill="white"/>
<path d="M1254.16 44.2517C1254.15 44.248 1254.14 44.2463 1254.13 44.2469C1254.12 44.2474 1254.11 44.2502 1254.1 44.255C1254.09 44.2597 1254.08 44.2664 1254.07 44.2747C1254.06 44.283 1254.06 44.2927 1254.05 44.3032C1254.05 44.3137 1254.05 44.3248 1254.05 44.336C1254.05 44.3471 1254.05 44.3581 1254.06 44.3681C1254.06 44.3782 1254.07 44.3873 1254.08 44.3948C1254.08 44.4023 1254.09 44.4081 1254.1 44.4118C1254.11 44.4156 1254.13 44.4172 1254.14 44.4167C1254.15 44.4161 1254.16 44.4134 1254.17 44.4086C1254.18 44.4038 1254.19 44.3971 1254.2 44.3888C1254.2 44.3806 1254.21 44.3709 1254.21 44.3604C1254.22 44.3499 1254.22 44.3387 1254.22 44.3276C1254.22 44.3164 1254.21 44.3055 1254.21 44.2954C1254.2 44.2853 1254.2 44.2763 1254.19 44.2688C1254.18 44.2613 1254.17 44.2555 1254.16 44.2517Z" fill="white"/>
<path d="M1428.18 67.1749C1427.08 66.782 1425.9 66.7231 1424.77 67.0054C1423.64 67.2877 1422.62 67.8987 1421.83 68.761C1421.05 69.6233 1420.54 70.6982 1420.37 71.8497C1420.2 73.0012 1420.38 74.1776 1420.87 75.2301C1421.37 76.2825 1422.17 77.1638 1423.17 77.7623C1424.17 78.3609 1425.32 78.6498 1426.48 78.5926C1427.65 78.5354 1428.76 78.1346 1429.7 77.441C1430.63 76.7473 1431.34 75.792 1431.73 74.6958C1432.26 73.2269 1432.18 71.6096 1431.51 70.1993C1430.85 68.7891 1429.65 67.7012 1428.18 67.1749Z" fill="white"/>
<path d="M1398.48 57.5682C1397.57 57.2396 1396.57 57.191 1395.62 57.4284C1394.68 57.6658 1393.82 58.1787 1393.17 58.9021C1392.51 59.6255 1392.08 60.5269 1391.94 61.4924C1391.8 62.458 1391.94 63.4442 1392.36 64.3264C1392.78 65.2086 1393.45 65.9472 1394.29 66.4488C1395.12 66.9503 1396.09 67.1923 1397.07 67.1442C1398.04 67.096 1398.98 66.7599 1399.76 66.1782C1400.55 65.5966 1401.14 64.7955 1401.47 63.8765C1401.91 62.644 1401.84 61.287 1401.28 60.104C1400.72 58.9209 1399.72 58.0088 1398.48 57.5682Z" fill="white"/>
<path d="M1368.7 48.2097C1368 47.9621 1367.25 47.9254 1366.54 48.1044C1365.83 48.2833 1365.18 48.6699 1364.69 49.2152C1364.19 49.7605 1363.87 50.44 1363.76 51.1678C1363.66 51.8956 1363.77 52.639 1364.08 53.3041C1364.4 53.9691 1364.9 54.5258 1365.53 54.9039C1366.16 55.282 1366.89 55.4644 1367.63 55.4281C1368.36 55.3918 1369.07 55.1384 1369.66 54.6999C1370.25 54.2615 1370.7 53.6577 1370.95 52.9649C1371.28 52.0358 1371.23 51.0129 1370.81 50.1212C1370.38 49.2294 1369.63 48.5418 1368.7 48.2097Z" fill="white"/>
<path d="M1338.91 38.8487C1338.45 38.6822 1337.94 38.6576 1337.47 38.7779C1336.99 38.8981 1336.55 39.1579 1336.22 39.5244C1335.89 39.8908 1335.67 40.3475 1335.6 40.8366C1335.53 41.3257 1335.6 41.8254 1335.81 42.2723C1336.03 42.7192 1336.36 43.0934 1336.79 43.3475C1337.21 43.6015 1337.7 43.7241 1338.2 43.6997C1338.69 43.6753 1339.17 43.505 1339.56 43.2104C1339.96 42.9157 1340.26 42.5099 1340.43 42.0443C1340.65 41.42 1340.62 40.7325 1340.33 40.1332C1340.05 39.5339 1339.54 39.0719 1338.91 38.8487Z" fill="white"/>
<path d="M1309.1 29.5662C1308.88 29.4843 1308.63 29.4714 1308.4 29.5291C1308.17 29.5867 1307.95 29.7124 1307.79 29.8901C1307.63 30.0679 1307.53 30.2898 1307.49 30.5276C1307.45 30.7654 1307.49 31.0085 1307.59 31.2261C1307.69 31.4437 1307.86 31.6261 1308.06 31.75C1308.27 31.8739 1308.51 31.9338 1308.75 31.9222C1308.99 31.9106 1309.22 31.8279 1309.41 31.6847C1309.61 31.5415 1309.75 31.3441 1309.83 31.1176C1309.89 30.9678 1309.91 30.8088 1309.91 30.6496C1309.9 30.4905 1309.86 30.3344 1309.79 30.1902C1309.72 30.0461 1309.63 29.9167 1309.51 29.8097C1309.39 29.7026 1309.25 29.6198 1309.1 29.5662Z" fill="white"/>
<path d="M1279.38 20.0427C1279.36 20.0303 1279.33 20.0228 1279.31 20.0208C1279.28 20.0188 1279.26 20.0224 1279.23 20.0313C1279.21 20.0402 1279.19 20.0543 1279.17 20.0724C1279.15 20.0905 1279.14 20.1123 1279.13 20.1363C1279.12 20.1603 1279.12 20.1859 1279.12 20.2113C1279.12 20.2366 1279.13 20.2612 1279.14 20.2832C1279.15 20.3052 1279.17 20.3242 1279.19 20.3388C1279.21 20.3534 1279.24 20.3632 1279.26 20.3676C1279.3 20.3748 1279.34 20.3673 1279.38 20.3465C1279.42 20.3258 1279.44 20.2931 1279.46 20.2542C1279.47 20.2153 1279.47 20.1727 1279.46 20.134C1279.44 20.0953 1279.41 20.063 1279.38 20.0427Z" fill="white"/>
<path d="M1423.42 34.0866C1422.63 33.8043 1421.78 33.7625 1420.96 33.9665C1420.15 34.1705 1419.41 34.6111 1418.85 35.2327C1418.29 35.8542 1417.92 36.6287 1417.8 37.4582C1417.68 38.2878 1417.8 39.1351 1418.16 39.8931C1418.52 40.651 1419.1 41.2856 1419.81 41.7166C1420.53 42.1475 1421.37 42.3554 1422.2 42.314C1423.04 42.2726 1423.85 41.9838 1424.52 41.4841C1425.19 40.9843 1425.7 40.2961 1425.99 39.5065C1426.36 38.4476 1426.31 37.2817 1425.83 36.2653C1425.34 35.2489 1424.48 34.4652 1423.42 34.0866Z" fill="white"/>
<path d="M1393.75 24.4932C1393.13 24.273 1392.47 24.2397 1391.84 24.3974C1391.21 24.555 1390.64 24.8966 1390.2 25.3788C1389.76 25.8611 1389.48 26.4623 1389.38 27.1064C1389.28 27.7504 1389.38 28.4084 1389.66 28.9969C1389.94 29.5855 1390.39 30.0781 1390.94 30.4125C1391.5 30.7468 1392.15 30.9079 1392.8 30.8753C1393.45 30.8427 1394.08 30.6178 1394.6 30.2292C1395.12 29.8406 1395.52 29.3057 1395.73 28.6922C1396.03 27.8718 1395.98 26.9691 1395.61 26.182C1395.24 25.3948 1394.57 24.7875 1393.75 24.4932Z" fill="white"/>
<path d="M1363.99 15.0494C1363.59 14.9052 1363.15 14.8839 1362.73 14.9882C1362.32 15.0925 1361.94 15.3178 1361.66 15.6355C1361.37 15.9532 1361.18 16.349 1361.12 16.7728C1361.06 17.1966 1361.12 17.6295 1361.3 18.0165C1361.49 18.4035 1361.78 18.7273 1362.15 18.9469C1362.52 19.1665 1362.94 19.2721 1363.37 19.2502C1363.8 19.2283 1364.21 19.08 1364.55 18.824C1364.9 18.568 1365.16 18.2158 1365.3 17.8121C1365.4 17.5446 1365.44 17.2608 1365.43 16.9769C1365.41 16.6929 1365.34 16.4146 1365.22 16.1578C1365.1 15.901 1364.93 15.6708 1364.72 15.4806C1364.5 15.2904 1364.26 15.1438 1363.99 15.0494Z" fill="white"/>
<path d="M1334.24 5.60732C1334.04 5.53801 1333.83 5.52779 1333.63 5.57799C1333.43 5.6282 1333.25 5.73657 1333.11 5.88934C1332.98 6.04211 1332.89 6.23242 1332.86 6.43616C1332.83 6.6399 1332.86 6.84791 1332.95 7.03381C1333.04 7.21971 1333.18 7.37513 1333.35 7.48041C1333.53 7.58568 1333.74 7.63608 1333.94 7.62517C1334.15 7.61427 1334.34 7.54256 1334.51 7.41916C1334.67 7.29576 1334.8 7.1262 1334.87 6.93199C1334.96 6.67263 1334.94 6.38768 1334.83 6.13944C1334.71 5.89119 1334.5 5.69988 1334.24 5.60732Z" fill="white"/>
<path d="M1418.67 1.09798C1417.36 0.631336 1415.93 1.31123 1415.46 2.61656C1415 3.92189 1415.67 5.35835 1416.98 5.82499C1418.29 6.29164 1419.72 5.61176 1420.19 4.30643C1420.66 3.0011 1419.98 1.56463 1418.67 1.09798Z" fill="white"/>
</g>
</g>
<defs>
<linearGradient id="paint0_linear_67_1167" x1="-247.996" y1="-18.3462" x2="-218.637" y2="405.032" gradientUnits="userSpaceOnUse">
<stop stop-color="#CC1D19"/>
<stop offset="1" stop-color="#CC4F19"/>
</linearGradient>
<clipPath id="clip0_67_1167">
<rect width="1472" height="214" fill="white" transform="translate(-18)"/>
</clipPath>
</defs>
</svg>
