<svg width="71" height="71" viewBox="0 0 71 71" fill="none" xmlns="http://www.w3.org/2000/svg">
<g clip-path="url(#clip0_67_5779)">
<path d="M53.033 53.0331C57.7214 48.3447 60.3554 41.9859 60.3554 35.3555C60.3554 28.7251 57.7214 22.3662 53.033 17.6778C48.3446 12.9894 41.9858 10.3555 35.3554 10.3555C28.7249 10.3555 22.3661 12.9894 17.6777 17.6778C12.9893 22.3662 10.3554 28.7251 10.3554 35.3555C10.3554 41.9859 12.9893 48.3447 17.6777 53.0331C22.3661 57.7215 28.7249 60.3555 35.3554 60.3555C41.9858 60.3555 48.3446 57.7215 53.033 53.0331ZM46.1807 33.7932C46.3882 33.7896 46.5942 33.8273 46.7869 33.9042C46.9796 33.9811 47.1551 34.0956 47.3031 34.2411C47.4511 34.3865 47.5686 34.5599 47.6488 34.7513C47.7291 34.9426 47.7704 35.148 47.7704 35.3555C47.7704 35.5629 47.7291 35.7683 47.6488 35.9597C47.5686 36.151 47.4511 36.3245 47.3031 36.4699C47.1551 36.6153 46.9796 36.7298 46.7869 36.8067C46.5942 36.8836 46.3882 36.9213 46.1807 36.9177H28.0788L34.1953 43.0342C34.4883 43.3272 34.6529 43.7247 34.6529 44.1391C34.6529 44.5535 34.4883 44.9509 34.1953 45.2439C33.9022 45.5369 33.5048 45.7016 33.0904 45.7016C32.676 45.7016 32.2786 45.5369 31.9855 45.2439L23.202 36.4603C22.9089 36.1673 22.7443 35.7699 22.7443 35.3555C22.7443 34.9411 22.9089 34.5436 23.202 34.2506L31.9855 25.467C32.2786 25.174 32.676 25.0094 33.0904 25.0094C33.5048 25.0094 33.9022 25.174 34.1953 25.467C34.4883 25.76 34.6529 26.1575 34.6529 26.5719C34.6529 26.9863 34.4883 27.3837 34.1953 27.6767L28.0788 33.7932H46.1807Z" fill="white"/>
</g>
<defs>
<clipPath id="clip0_67_5779">
<rect width="50" height="50" fill="white" transform="matrix(-0.707107 -0.707107 -0.707107 0.707107 70.7107 35.3555)"/>
</clipPath>
</defs>
</svg>
