<svg width="561" height="1517" viewBox="0 0 561 1517" fill="none" xmlns="http://www.w3.org/2000/svg">
<path d="M22.4527 1516.98H560.335C545.917 1484.26 532.491 1452.4 520.209 1421.4C499.209 1369.27 480.629 1313.88 464.674 1255.82C452.362 1211.49 443.304 1164.25 437.746 1115.38C430.011 1040.06 434.611 962.121 450.943 891.786C465.728 832.558 483.942 776.551 505.258 724.773C538.899 636.766 563.005 555.616 545.307 492.611C527.609 429.606 476.651 378.316 429.126 331.312C385.872 288.452 348.111 251.449 344.145 213.16C340.941 182.158 366.344 154.584 390.526 131.439C412.648 110.152 431.567 87.2928 426.227 68.4341C419.59 44.8608 393.348 28.7166 367.106 11.2866L240.627 0C263.512 18.0015 286.779 35.8601 287.465 57.1475C288.152 78.4349 261.91 98.7223 232.769 119.867C200.882 142.869 167.164 166.728 161.519 201.445C155.874 236.162 185.473 277.165 219.648 320.454C257.791 368.458 297.84 421.605 299.671 484.325C300.586 517.327 290.669 553.759 273.505 590.048C248.772 637.95 222.066 682.138 193.635 722.201C156.554 775.574 121.458 833.618 88.5914 895.93C54.1871 964.221 25.4279 1042.8 11.0864 1131.23C3.38492 1179.71 -0.344695 1230.1 0.0250199 1280.67C0.679338 1340.72 5.21315 1400.4 13.5274 1458.4C16.1211 1477.55 19.1725 1497.12 22.4527 1516.98Z" fill="#1A1A1A"/>
<path d="M57.6182 1455.14C60.8221 1475.43 64.4838 1496 68.4506 1517H81.8004C77.6047 1495.71 73.7905 1474.14 70.3577 1454.28C60.5839 1397.05 54.3888 1337.89 51.8969 1277.98C50.0459 1228.15 52.3102 1178.08 58.6099 1129.54C71.5442 1041.91 95.5954 961.425 128.715 894.95C159.504 832.88 192.647 775.058 227.885 721.936C258.018 674.504 285.175 631.786 303.712 589.925C319.732 553.78 328.581 517.205 326.598 484.488C323.012 421.34 281.59 368.765 242.685 320.761C207.517 277.9 176.927 236.897 181.657 201.894C186.386 166.891 219.113 143.461 250.313 120.316C278.691 99.1715 304.094 79.027 302.949 57.5967C301.805 36.1664 277.775 18.0221 254.737 0.449219H251.686C274.572 18.5935 298.449 36.1664 299.517 57.5967C300.585 79.027 275.029 99.1715 246.117 120.316C214.841 143.318 181.809 167.463 176.927 201.894C172.045 236.325 202.406 277.614 237.421 320.904C276.174 368.765 317.367 420.912 320.571 484.488C322.249 517.348 312.943 553.78 296.847 590.068C278.004 631.929 250.542 674.647 220.028 722.222C184.336 775.342 150.735 833.211 119.485 895.379C86.8352 963.384 59.983 1041.68 47.7012 1129.54C41.1331 1178.1 38.5607 1228.25 40.0727 1278.27C42.1273 1338.32 48.0178 1397.71 57.6182 1455.14Z" fill="#FFA800"/>
<path d="M57.6182 1455.14C60.8221 1475.43 64.4838 1496 68.4506 1517H81.8004C77.6047 1495.71 73.7905 1474.14 70.3577 1454.28C60.5839 1397.05 54.3888 1337.89 51.8969 1277.98C50.0459 1228.15 52.3102 1178.08 58.6099 1129.54C71.5442 1041.91 95.5954 961.425 128.715 894.95C159.504 832.88 192.647 775.058 227.885 721.936C258.018 674.504 285.175 631.786 303.712 589.925C319.732 553.78 328.581 517.205 326.598 484.488C323.012 421.34 281.59 368.765 242.685 320.761C207.517 277.9 176.927 236.897 181.657 201.894C186.386 166.891 219.113 143.461 250.313 120.316C278.691 99.1715 304.094 79.027 302.949 57.5967C301.805 36.1664 277.775 18.0221 254.737 0.449219H251.686C274.572 18.5935 298.449 36.1664 299.517 57.5967C300.585 79.027 275.029 99.1715 246.117 120.316C214.841 143.318 181.809 167.463 176.927 201.894C172.045 236.325 202.406 277.614 237.421 320.904C276.174 368.765 317.367 420.912 320.571 484.488C322.249 517.348 312.943 553.78 296.847 590.068C278.004 631.929 250.542 674.647 220.028 722.222C184.336 775.342 150.735 833.211 119.485 895.379C86.8352 963.384 59.983 1041.68 47.7012 1129.54C41.1331 1178.1 38.5607 1228.25 40.0727 1278.27C42.1273 1338.32 48.0178 1397.71 57.6182 1455.14Z" fill="url(#paint0_linear_191_6)"/>
<path d="M404.786 330.027C451.472 377.459 500.447 426.749 516.848 491.611C533.249 556.474 505.863 636.194 469.17 724.487C446.089 776.373 425.968 832.636 409.134 892.358C390.572 961.864 383.506 1040.16 388.842 1117.23C392.777 1166.1 400.326 1213.7 411.27 1258.67C425.529 1317.1 442.611 1372.95 462.304 1425.54C473.137 1455.26 485.19 1485.69 497.853 1516.98H510.364C497.243 1485.41 485.037 1454.69 473.9 1424.69C453.99 1372.17 436.629 1316.42 422.026 1258.1C410.793 1213.26 402.962 1165.7 398.759 1116.8C392.884 1040.1 399.448 961.852 417.602 892.215C434.009 832.562 453.751 776.338 476.493 724.487C512.5 636.337 538.894 555.331 522.264 491.754C505.634 428.178 456.278 377.459 409.439 330.17C367.025 287.309 329.874 250.02 326.823 212.017C324.382 180.586 350.624 153.441 375.569 130.296C398.454 109.152 417.983 86.4357 413.101 67.2912C406.998 43.8608 380.985 27.5738 355.048 9.42944H352.073C377.857 27.7166 403.87 43.8608 409.744 67.2912C414.626 86.5785 394.487 109.152 371.602 130.296C346.504 153.441 320.034 180.586 322.322 212.017C325.602 249.592 362.6 287.023 404.786 330.027Z" fill="#FFA800"/>
<path d="M404.786 330.027C451.472 377.459 500.447 426.749 516.848 491.611C533.249 556.474 505.863 636.194 469.17 724.487C446.089 776.373 425.968 832.636 409.134 892.358C390.572 961.864 383.506 1040.16 388.842 1117.23C392.777 1166.1 400.326 1213.7 411.27 1258.67C425.529 1317.1 442.611 1372.95 462.304 1425.54C473.137 1455.26 485.19 1485.69 497.853 1516.98H510.364C497.243 1485.41 485.037 1454.69 473.9 1424.69C453.99 1372.17 436.629 1316.42 422.026 1258.1C410.793 1213.26 402.962 1165.7 398.759 1116.8C392.884 1040.1 399.448 961.852 417.602 892.215C434.009 832.562 453.751 776.338 476.493 724.487C512.5 636.337 538.894 555.331 522.264 491.754C505.634 428.178 456.278 377.459 409.439 330.17C367.025 287.309 329.874 250.02 326.823 212.017C324.382 180.586 350.624 153.441 375.569 130.296C398.454 109.152 417.983 86.4357 413.101 67.2912C406.998 43.8608 380.985 27.5738 355.048 9.42944H352.073C377.857 27.7166 403.87 43.8608 409.744 67.2912C414.626 86.5785 394.487 109.152 371.602 130.296C346.504 153.441 320.034 180.586 322.322 212.017C325.602 249.592 362.6 287.023 404.786 330.027Z" fill="url(#paint1_linear_191_6)"/>
<path d="M306.161 5.02148L319.434 15.0223H316.307C311.958 11.5934 307.534 8.30747 303.109 5.16436L306.161 5.02148Z" fill="white"/>
<g style="mix-blend-mode:multiply">
<path opacity="0.06" d="M168.783 1503.34C168.783 1510.05 144.679 1515.39 114.778 1515.39C84.8762 1515.39 60.8867 1510.05 60.8867 1503.34C60.8867 1496.63 84.9899 1491.29 114.778 1491.29C144.566 1491.29 168.783 1496.63 168.783 1503.34Z" fill="#EBEAEA"/>
<path opacity="0.13" d="M167.886 1503.23C167.886 1509.71 144.124 1514.6 114.791 1514.6C85.4575 1514.6 61.6953 1509.26 61.6953 1503.23C61.6953 1497.21 85.4575 1491.86 114.791 1491.86C144.124 1491.86 167.886 1496.64 167.886 1503.23Z" fill="#DDDCDB"/>
<path opacity="0.19" d="M166.79 1503.01C166.79 1509.49 143.369 1514.38 114.49 1514.38C85.612 1514.38 62.3047 1509.15 62.3047 1503.01C62.3047 1496.87 85.7257 1491.64 114.49 1491.64C143.255 1491.64 166.79 1496.53 166.79 1503.01Z" fill="#D1CFCF"/>
<path opacity="0.25" d="M166.744 1502.88C166.744 1509.25 144.005 1514.25 115.354 1514.25C86.7033 1514.25 64.0781 1509.13 64.0781 1502.88C64.0781 1496.63 86.817 1491.51 115.354 1491.51C143.892 1491.51 166.744 1496.51 166.744 1502.88Z" fill="#C5C3C3"/>
<path opacity="0.31" d="M165.288 1502.66C165.288 1508.91 142.549 1514.03 114.808 1514.03C87.0666 1514.03 64.4414 1508.91 64.4414 1502.66C64.4414 1496.4 87.1803 1491.29 114.808 1491.29C142.436 1491.29 165.288 1496.52 165.288 1502.66Z" fill="#BAB7B7"/>
<path opacity="0.38" d="M164.388 1502.54C164.388 1508.68 141.649 1513.91 114.817 1513.91C87.985 1513.91 65.2461 1508.91 65.2461 1502.54C65.2461 1496.18 87.985 1491.17 114.817 1491.17C141.649 1491.17 164.388 1496.4 164.388 1502.54Z" fill="#B0ADAC"/>
<path opacity="0.44" d="M163.573 1502.44C163.573 1508.46 141.743 1513.81 114.798 1513.81C87.8523 1513.81 66.1367 1508.92 66.1367 1502.44C66.1367 1495.96 87.966 1491.07 114.798 1491.07C141.63 1491.07 163.573 1496.41 163.573 1502.44Z" fill="#A5A2A2"/>
<path opacity="0.5" d="M162.64 1502.2C162.64 1508.22 141.266 1513 114.775 1513C88.2843 1513 67.0234 1508.22 67.0234 1502.2C67.0234 1496.17 88.398 1491.51 114.775 1491.51C141.152 1491.51 162.64 1496.4 162.64 1502.2Z" fill="#9B9898"/>
<path opacity="0.56" d="M161.79 1502.1C161.79 1507.9 140.757 1512.68 114.834 1512.68C88.9119 1512.68 67.9922 1507.9 67.9922 1502.1C67.9922 1496.3 88.9119 1491.64 114.834 1491.64C140.757 1491.64 161.79 1496.3 161.79 1502.1Z" fill="#928E8E"/>
<path opacity="0.63" d="M160.848 1501.99C160.848 1507.67 140.27 1512.22 114.802 1512.22C89.3344 1512.22 69.3242 1507.67 69.3242 1501.99C69.3242 1496.3 90.0166 1491.64 114.802 1491.64C139.587 1491.64 160.848 1496.3 160.848 1501.99Z" fill="#888585"/>
<path opacity="0.69" d="M160.022 1501.76C160.022 1507.45 139.784 1511.88 114.544 1511.88C89.304 1511.88 69.0664 1507.45 69.0664 1501.76C69.0664 1496.08 89.304 1491.76 114.544 1491.76C139.784 1491.76 160.022 1496.19 160.022 1501.76Z" fill="#807E7E"/>
<path opacity="0.75" d="M159.142 1501.65C159.142 1507.11 139.359 1511.54 114.801 1511.54C90.2433 1511.54 70.5742 1507.11 70.5742 1501.65C70.5742 1496.19 90.357 1491.76 114.801 1491.76C139.246 1491.76 159.142 1496.19 159.142 1501.65Z" fill="#787675"/>
<path opacity="0.81" d="M158.214 1501.53C158.214 1506.88 138.772 1511.2 114.782 1511.2C90.7929 1511.2 71.4648 1506.88 71.4648 1501.53C71.4648 1496.19 90.7929 1491.76 114.782 1491.76C138.772 1491.76 158.214 1496.19 158.214 1501.53Z" fill="#706E6D"/>
<path opacity="0.88" d="M157.297 1501.3C157.297 1506.64 138.31 1510.85 114.776 1510.85C91.2409 1510.85 72.2539 1506.64 72.2539 1501.3C72.2539 1495.96 91.3546 1491.86 114.776 1491.86C138.197 1491.86 157.297 1496.07 157.297 1501.3Z" fill="#686666"/>
<path opacity="0.94" d="M156.482 1501.19C156.482 1506.3 137.837 1510.51 114.757 1510.51C91.6767 1510.51 73.1445 1506.3 73.1445 1501.19C73.1445 1496.07 91.7904 1491.86 114.757 1491.86C137.723 1491.86 156.482 1496.07 156.482 1501.19Z" fill="#615F5F"/>
<path d="M155.37 1501.07C155.37 1506.08 137.066 1510.17 114.554 1510.17C92.0426 1510.17 73.8516 1506.08 73.8516 1501.07C73.8516 1496.07 92.0426 1491.98 114.554 1491.98C137.066 1491.98 155.37 1495.96 155.37 1501.07Z" fill="#585858"/>
</g>
<g style="mix-blend-mode:multiply">
<path opacity="0.06" d="M468.288 1502.67C468.288 1509.38 444.071 1514.84 414.283 1514.84C384.495 1514.84 360.051 1509.38 360.051 1502.67C360.051 1495.97 384.154 1490.62 414.056 1490.62C443.957 1490.62 468.288 1496.08 468.288 1502.67Z" fill="#EBEAEA"/>
<path opacity="0.13" d="M467.308 1502.57C467.308 1509.16 443.546 1513.94 414.212 1513.94C384.879 1513.94 361.117 1508.59 361.117 1502.57C361.117 1496.54 384.879 1491.2 414.212 1491.2C443.546 1491.2 467.308 1495.97 467.308 1502.57Z" fill="#DDDCDB"/>
<path opacity="0.19" d="M466.407 1502.46C466.407 1508.83 442.986 1513.83 414.221 1513.83C385.457 1513.83 361.922 1508.6 361.922 1502.46C361.922 1496.32 385.343 1491.09 414.221 1491.09C443.1 1491.09 466.407 1495.98 466.407 1502.46Z" fill="#D1CFCF"/>
<path opacity="0.25" d="M465.561 1502.21C465.561 1508.58 442.822 1513.58 414.284 1513.58C385.747 1513.58 362.895 1508.47 362.895 1502.21C362.895 1495.96 385.633 1490.84 414.284 1490.84C442.935 1490.84 465.561 1495.96 465.561 1502.21Z" fill="#C5C3C3"/>
<path opacity="0.31" d="M464.742 1502.1C464.742 1508.35 442.003 1513.47 414.261 1513.47C386.52 1513.47 363.781 1508.47 363.781 1502.1C363.781 1495.73 386.52 1490.73 414.261 1490.73C442.003 1490.73 464.742 1495.85 464.742 1502.1Z" fill="#BAB7B7"/>
<path opacity="0.38" d="M463.809 1501.99C463.809 1508.13 441.639 1513.36 414.239 1513.36C386.838 1513.36 364.668 1508.47 364.668 1501.99C364.668 1495.51 387.407 1490.62 414.239 1490.62C441.071 1490.62 463.809 1495.85 463.809 1501.99Z" fill="#B0ADAC"/>
<path opacity="0.44" d="M462.913 1501.77C462.913 1507.8 441.083 1513.14 414.251 1513.14C387.42 1513.14 365.477 1508.25 365.477 1501.77C365.477 1495.29 387.306 1490.4 414.251 1490.4C441.197 1490.4 462.913 1495.74 462.913 1501.77Z" fill="#A5A2A2"/>
<path opacity="0.5" d="M462.328 1501.66C462.328 1507.58 440.953 1512.35 414.576 1512.35C388.199 1512.35 366.711 1507.58 366.711 1501.66C366.711 1495.75 388.086 1490.98 414.576 1490.98C441.067 1490.98 462.328 1495.75 462.328 1501.66Z" fill="#9B9898"/>
<path opacity="0.56" d="M461.13 1501.55C461.13 1507.35 440.21 1512.01 414.288 1512.01C388.365 1512.01 367.332 1507.35 367.332 1501.55C367.332 1495.75 388.365 1490.98 414.288 1490.98C440.21 1490.98 461.13 1495.75 461.13 1501.55Z" fill="#928E8E"/>
<path opacity="0.63" d="M460.327 1501.32C460.327 1507.01 439.634 1511.67 414.849 1511.67C390.063 1511.67 369.371 1507.01 369.371 1501.32C369.371 1495.64 389.95 1491.09 414.849 1491.09C439.748 1491.09 460.327 1495.64 460.327 1501.32Z" fill="#888585"/>
<path opacity="0.69" d="M459.362 1501.21C459.362 1506.78 439.124 1511.33 413.884 1511.33C388.644 1511.33 368.406 1506.78 368.406 1501.21C368.406 1495.64 388.644 1491.09 413.884 1491.09C439.124 1491.09 459.362 1495.64 459.362 1501.21Z" fill="#807E7E"/>
<path opacity="0.75" d="M458.482 1501.1C458.482 1506.55 438.699 1510.99 414.255 1510.99C389.811 1510.99 369.914 1506.55 369.914 1501.1C369.914 1495.64 389.811 1491.09 414.255 1491.09C438.699 1491.09 458.482 1495.52 458.482 1501.1Z" fill="#787675"/>
<path opacity="0.81" d="M457.594 1500.86C457.594 1506.32 438.266 1510.64 414.277 1510.64C390.287 1510.64 371.414 1506.32 371.414 1500.86C371.414 1495.41 390.856 1491.2 414.845 1491.2C438.835 1491.2 457.594 1495.52 457.594 1500.86Z" fill="#706E6D"/>
<path opacity="0.88" d="M456.799 1500.75C456.799 1505.98 437.698 1510.3 414.277 1510.3C390.856 1510.3 371.414 1505.98 371.414 1500.75C371.414 1495.52 390.401 1491.2 413.936 1491.2C437.47 1491.2 456.799 1495.52 456.799 1500.75Z" fill="#686666"/>
<path opacity="0.94" d="M455.888 1500.64C455.888 1505.75 437.242 1509.96 414.276 1509.96C391.31 1509.96 372.664 1505.75 372.664 1500.64C372.664 1495.52 391.196 1491.31 414.276 1491.31C437.356 1491.31 455.888 1495.41 455.888 1500.64Z" fill="#615F5F"/>
<path d="M454.988 1500.41C454.988 1505.52 436.796 1509.62 414.285 1509.62C391.774 1509.62 373.469 1505.52 373.469 1500.41C373.469 1495.29 391.774 1491.31 414.285 1491.31C436.796 1491.31 454.988 1495.41 454.988 1500.41Z" fill="#585858"/>
</g>
<path d="M155.42 1499.26L153.828 1490.51L133.704 1492.78C127.774 1492.17 121.816 1491.86 115.854 1491.87C109.893 1491.87 103.935 1492.17 98.0042 1492.78L78.2214 1490.51L76.4022 1499.26C76.2982 1499.56 76.2982 1499.88 76.4022 1500.17C76.4022 1504.72 94.1386 1508.47 116.082 1508.47C138.025 1508.47 155.875 1504.72 155.875 1500.17C155.781 1499.84 155.627 1499.54 155.42 1499.26Z" fill="url(#paint2_linear_191_6)"/>
<path opacity="0.09" d="M153.936 1491.41C153.936 1497.1 137.336 1502.1 115.962 1502.1C94.5872 1502.1 78.1016 1497.1 78.1016 1491.41C78.1016 1485.73 94.4735 1481.18 115.962 1481.18C137.45 1481.18 153.936 1485.62 153.936 1491.41Z" fill="url(#paint3_linear_191_6)"/>
<path opacity="0.18" d="M153.936 1491.3C153.936 1496.99 137.336 1501.87 115.962 1501.87C94.5872 1501.87 78.1016 1496.99 78.1016 1491.3C78.1016 1485.62 94.5872 1481.18 115.962 1481.18C137.336 1481.18 153.936 1485.62 153.936 1491.3Z" fill="url(#paint4_linear_191_6)"/>
<path opacity="0.27" d="M153.936 1491.19C153.936 1496.87 137.223 1501.65 115.962 1501.65C94.7009 1501.65 78.1016 1496.87 78.1016 1491.19C78.1016 1485.5 94.7009 1481.18 115.962 1481.18C137.223 1481.18 153.936 1485.5 153.936 1491.19Z" fill="url(#paint5_linear_191_6)"/>
<path opacity="0.36" d="M153.924 1491.07C153.924 1496.64 137.21 1501.42 115.95 1501.42C94.6888 1501.42 78.2031 1496.64 78.2031 1491.07C78.2031 1485.5 94.8025 1481.18 115.95 1481.18C137.097 1481.18 153.924 1485.5 153.924 1491.07Z" fill="url(#paint6_linear_191_6)"/>
<path opacity="0.45" d="M153.924 1491.07C153.924 1496.53 137.21 1501.19 115.95 1501.19C94.6888 1501.19 78.2031 1496.53 78.2031 1491.07C78.2031 1485.62 94.8025 1481.18 115.95 1481.18C137.097 1481.18 153.924 1485.5 153.924 1491.07Z" fill="url(#paint7_linear_191_6)"/>
<path opacity="0.55" d="M153.924 1490.96C153.924 1496.42 137.097 1500.96 116.063 1500.96C95.0299 1500.96 78.2031 1496.42 78.2031 1490.96C78.2031 1485.5 94.9162 1481.18 116.063 1481.18C137.211 1481.18 153.924 1485.5 153.924 1490.96Z" fill="url(#paint8_linear_191_6)"/>
<path opacity="0.64" d="M153.888 1490.85C153.888 1496.19 137.061 1500.74 116.028 1500.74C94.9943 1500.74 78.2812 1496.19 78.2812 1490.85C78.2812 1485.5 94.9943 1481.18 116.028 1481.18C137.061 1481.18 153.888 1485.5 153.888 1490.85Z" fill="url(#paint9_linear_191_6)"/>
<path opacity="0.73" d="M153.888 1490.73C153.888 1496.08 137.061 1500.51 116.028 1500.51C94.9943 1500.51 78.2812 1496.08 78.2812 1490.73C78.2812 1485.39 95.108 1481.18 116.028 1481.18C136.948 1481.18 153.888 1485.39 153.888 1490.73Z" fill="url(#paint10_linear_191_6)"/>
<path opacity="0.82" d="M153.872 1490.73C153.872 1495.96 136.932 1500.28 116.012 1500.28C95.092 1500.28 78.3789 1495.96 78.3789 1490.73C78.3789 1485.5 95.092 1481.18 116.012 1481.18C136.932 1481.18 153.872 1485.39 153.872 1490.73Z" fill="url(#paint11_linear_191_6)"/>
<path opacity="0.91" d="M153.758 1490.62C153.758 1495.73 136.932 1500.05 116.012 1500.05C95.092 1500.05 78.3789 1495.73 78.3789 1490.62C78.3789 1485.5 95.2057 1481.18 116.012 1481.18C136.818 1481.18 153.758 1485.39 153.758 1490.62Z" fill="url(#paint12_linear_191_6)"/>
<path d="M153.758 1490.5C153.758 1495.62 136.932 1499.83 116.125 1499.83C95.3194 1499.83 78.3789 1495.62 78.3789 1490.5C78.3789 1485.39 95.3194 1481.18 116.125 1481.18C136.932 1481.18 153.758 1485.39 153.758 1490.5Z" fill="url(#paint13_linear_191_6)"/>
<path style="mix-blend-mode:multiply" d="M125.51 1490.05C125.51 1491.18 121.304 1491.98 115.96 1491.98C110.616 1491.98 106.523 1491.18 106.523 1490.05C106.523 1488.91 110.73 1488.11 115.96 1488.11C121.19 1488.11 125.51 1489.02 125.51 1490.05Z" fill="url(#paint14_linear_191_6)"/>
<path d="M122.075 1490.74C122.075 1493.02 109.91 1493.02 109.91 1490.74V1222.65C109.91 1220.38 112.639 1218.56 115.936 1218.56C119.347 1218.56 122.075 1220.38 122.075 1222.65V1490.74Z" fill="url(#paint15_linear_191_6)"/>
<path d="M133.865 1206.4C133.865 1209.84 132.844 1213.2 130.933 1216.06C129.022 1218.92 126.305 1221.15 123.126 1222.47C119.948 1223.78 116.45 1224.13 113.076 1223.46C109.701 1222.79 106.602 1221.13 104.169 1218.7C101.736 1216.26 100.08 1213.16 99.4084 1209.79C98.7372 1206.41 99.0817 1202.92 100.398 1199.74C101.715 1196.56 103.944 1193.84 106.805 1191.93C109.666 1190.02 113.029 1189 116.469 1189C121.083 1189 125.507 1190.83 128.77 1194.09C132.032 1197.36 133.865 1201.78 133.865 1206.4Z" fill="url(#paint16_linear_191_6)"/>
<path d="M131.622 1206.38C131.622 1209.37 130.735 1212.3 129.073 1214.78C127.412 1217.27 125.05 1219.21 122.287 1220.35C119.524 1221.5 116.483 1221.8 113.55 1221.21C110.617 1220.63 107.923 1219.19 105.808 1217.08C103.693 1214.96 102.253 1212.27 101.669 1209.33C101.086 1206.4 101.385 1203.36 102.53 1200.6C103.674 1197.83 105.613 1195.47 108.099 1193.81C110.586 1192.15 113.51 1191.26 116.5 1191.26C120.511 1191.26 124.357 1192.85 127.193 1195.69C130.029 1198.53 131.622 1202.37 131.622 1206.38Z" fill="url(#paint17_linear_191_6)"/>
<path d="M125.23 1227.19C125.245 1227.55 125.189 1227.9 125.064 1228.23C124.94 1228.56 124.75 1228.86 124.505 1229.12C124.261 1229.37 123.967 1229.57 123.642 1229.71C123.318 1229.85 122.968 1229.92 122.615 1229.92H109.881C109.157 1229.92 108.463 1229.63 107.952 1229.12C107.44 1228.61 107.152 1227.92 107.152 1227.19C107.152 1226.47 107.44 1225.77 107.952 1225.26C108.463 1224.75 109.157 1224.46 109.881 1224.46H122.274C122.627 1224.46 122.976 1224.53 123.301 1224.67C123.626 1224.81 123.92 1225.01 124.164 1225.27C124.408 1225.52 124.599 1225.83 124.723 1226.16C124.848 1226.49 124.904 1226.84 124.889 1227.19H125.23Z" fill="url(#paint18_linear_191_6)"/>
<path d="M454.72 1499.26L453.242 1490.51L433.118 1492.78C427.188 1492.17 421.23 1491.87 415.268 1491.87C409.306 1491.86 403.348 1492.17 397.418 1492.78L377.521 1490.51L375.702 1499.26C375.651 1499.56 375.651 1499.87 375.702 1500.17C375.702 1504.72 393.552 1508.47 415.495 1508.47C437.438 1508.47 455.288 1504.72 455.288 1500.17C455.219 1499.81 455.017 1499.48 454.72 1499.26Z" fill="url(#paint19_linear_191_6)"/>
<path opacity="0.09" d="M453.303 1491.41C453.303 1497.1 436.59 1502.1 415.216 1502.1C393.841 1502.1 377.355 1497.1 377.355 1491.41C377.355 1485.73 393.841 1481.18 415.216 1481.18C436.59 1481.18 453.303 1485.62 453.303 1491.41Z" fill="url(#paint20_linear_191_6)"/>
<path opacity="0.18" d="M453.303 1491.3C453.303 1496.99 436.59 1501.87 415.216 1501.87C393.841 1501.87 377.355 1496.99 377.355 1491.3C377.355 1485.62 393.955 1481.18 415.216 1481.18C436.477 1481.18 453.303 1485.62 453.303 1491.3Z" fill="url(#paint21_linear_191_6)"/>
<path opacity="0.27" d="M453.272 1491.19C453.272 1496.87 436.559 1501.65 415.184 1501.65C393.809 1501.65 377.438 1496.87 377.438 1491.19C377.438 1485.5 393.923 1481.18 415.184 1481.18C436.445 1481.18 453.272 1485.5 453.272 1491.19Z" fill="url(#paint22_linear_191_6)"/>
<path opacity="0.36" d="M453.272 1491.07C453.272 1496.64 436.445 1501.42 415.298 1501.42C394.151 1501.42 377.438 1496.64 377.438 1491.07C377.438 1485.5 394.037 1481.18 415.298 1481.18C436.559 1481.18 453.272 1485.5 453.272 1491.07Z" fill="url(#paint23_linear_191_6)"/>
<path opacity="0.45" d="M453.158 1491.07C453.158 1496.53 436.445 1501.19 415.298 1501.19C394.151 1501.19 377.438 1496.53 377.438 1491.07C377.438 1485.62 394.151 1481.18 415.298 1481.18C436.445 1481.18 453.158 1485.5 453.158 1491.07Z" fill="url(#paint24_linear_191_6)"/>
<path opacity="0.55" d="M453.146 1490.96C453.146 1496.42 436.433 1500.96 415.286 1500.96C394.138 1500.96 377.539 1496.42 377.539 1490.96C377.539 1485.5 394.138 1481.18 415.286 1481.18C436.433 1481.18 453.146 1485.5 453.146 1490.96Z" fill="url(#paint25_linear_191_6)"/>
<path opacity="0.64" d="M453.146 1490.85C453.146 1496.19 436.319 1500.74 415.286 1500.74C394.252 1500.74 377.539 1496.19 377.539 1490.85C377.539 1485.5 394.252 1481.18 415.286 1481.18C436.319 1481.18 453.146 1485.5 453.146 1490.85Z" fill="url(#paint26_linear_191_6)"/>
<path opacity="0.73" d="M453.146 1490.73C453.146 1496.08 436.319 1500.51 415.286 1500.51C394.252 1500.51 377.539 1496.08 377.539 1490.73C377.539 1485.39 394.366 1481.18 415.286 1481.18C436.205 1481.18 453.146 1485.39 453.146 1490.73Z" fill="url(#paint27_linear_191_6)"/>
<path opacity="0.82" d="M453.11 1490.73C453.11 1495.96 436.283 1500.28 415.364 1500.28C394.444 1500.28 377.617 1495.96 377.617 1490.73C377.617 1485.5 394.444 1481.18 415.364 1481.18C436.283 1481.18 453.11 1485.39 453.11 1490.73Z" fill="url(#paint28_linear_191_6)"/>
<path opacity="0.91" d="M453.11 1490.62C453.11 1495.73 436.283 1500.05 415.364 1500.05C394.444 1500.05 377.617 1495.73 377.617 1490.62C377.617 1485.5 394.444 1481.18 415.364 1481.18C436.283 1481.18 453.11 1485.39 453.11 1490.62Z" fill="url(#paint29_linear_191_6)"/>
<path d="M453.18 1490.5C453.18 1495.62 436.24 1499.83 415.434 1499.83C394.628 1499.83 377.801 1495.62 377.801 1490.5C377.801 1485.39 394.628 1481.18 415.434 1481.18C436.24 1481.18 453.18 1485.39 453.18 1490.5Z" fill="url(#paint30_linear_191_6)"/>
<path style="mix-blend-mode:multiply" d="M424.878 1490.05C424.878 1491.18 420.558 1491.98 415.328 1491.98C410.098 1491.98 405.777 1491.18 405.777 1490.05C405.777 1488.91 409.984 1488.11 415.328 1488.11C420.671 1488.11 424.878 1489.02 424.878 1490.05Z" fill="url(#paint31_linear_191_6)"/>
<path d="M421.314 1490.74C421.314 1493.02 409.148 1493.02 409.148 1490.74V1222.65C409.148 1220.38 411.877 1218.56 415.288 1218.56C418.585 1218.56 421.314 1220.38 421.314 1222.65V1490.74Z" fill="url(#paint32_linear_191_6)"/>
<path d="M433.287 1206.4C433.287 1209.84 432.266 1213.2 430.355 1216.06C428.444 1218.92 425.727 1221.15 422.548 1222.47C419.37 1223.78 415.872 1224.13 412.498 1223.46C409.123 1222.79 406.024 1221.13 403.591 1218.7C401.158 1216.26 399.502 1213.16 398.83 1209.79C398.159 1206.41 398.504 1202.92 399.82 1199.74C401.137 1196.56 403.366 1193.84 406.227 1191.93C409.088 1190.02 412.451 1189 415.891 1189C420.496 1189.03 424.903 1190.87 428.159 1194.13C431.414 1197.38 433.257 1201.79 433.287 1206.4Z" fill="url(#paint33_linear_191_6)"/>
<path d="M430.871 1206.38C430.871 1209.38 429.982 1212.31 428.315 1214.8C426.648 1217.29 424.28 1219.22 421.51 1220.36C418.741 1221.51 415.694 1221.8 412.758 1221.21C409.822 1220.61 407.128 1219.16 405.017 1217.03C402.907 1214.91 401.476 1212.2 400.906 1209.26C400.335 1206.32 400.651 1203.28 401.813 1200.52C402.975 1197.76 404.93 1195.4 407.432 1193.76C409.934 1192.11 412.868 1191.24 415.864 1191.26C417.844 1191.26 419.805 1191.65 421.633 1192.42C423.462 1193.18 425.121 1194.29 426.516 1195.7C427.911 1197.1 429.014 1198.77 429.762 1200.61C430.509 1202.44 430.887 1204.4 430.871 1206.38Z" fill="url(#paint34_linear_191_6)"/>
<path d="M424.604 1227.19C424.604 1227.92 424.316 1228.61 423.805 1229.12C423.293 1229.63 422.599 1229.92 421.875 1229.92H409.483C408.759 1229.92 408.065 1229.63 407.553 1229.12C407.041 1228.61 406.754 1227.92 406.754 1227.19C406.754 1226.47 407.041 1225.77 407.553 1225.26C408.065 1224.75 408.759 1224.46 409.483 1224.46H421.875C422.599 1224.46 423.293 1224.75 423.805 1225.26C424.316 1225.77 424.604 1226.47 424.604 1227.19Z" fill="url(#paint35_linear_191_6)"/>
<path d="M455.683 1390.92H77.3086V1445.04H455.683V1390.92Z" fill="url(#paint36_linear_191_6)"/>
<path d="M454.486 1392.27H79.9766V1441.85H454.486V1392.27Z" fill="url(#paint37_linear_191_6)"/>
<path d="M81.0469 1392.27L111.062 1441.85H143.124L112.995 1392.27H81.0469Z" fill="url(#paint38_linear_191_6)"/>
<path d="M143.75 1392.27L173.765 1441.85H205.713L175.698 1392.27H143.75Z" fill="url(#paint39_linear_191_6)"/>
<path d="M295.229 1392.27L266.919 1439.12L238.495 1392.27H206.547L236.562 1441.85H297.161L327.177 1392.27H295.229Z" fill="url(#paint40_linear_191_6)"/>
<path d="M420.727 1392.27L390.598 1441.85H422.659L452.675 1392.27H420.727Z" fill="url(#paint41_linear_191_6)"/>
<path d="M357.988 1392.27L327.973 1441.85H359.921L389.936 1392.27H357.988Z" fill="url(#paint42_linear_191_6)"/>
<path style="mix-blend-mode:screen" d="M454.486 1392.27H79.9766V1395H454.486V1392.27Z" fill="url(#paint43_linear_191_6)"/>
<path d="M455.683 1310.53H77.3086V1364.65H455.683V1310.53Z" fill="url(#paint44_linear_191_6)"/>
<path d="M454.486 1311.77H79.9766V1361.35H454.486V1311.77Z" fill="url(#paint45_linear_191_6)"/>
<path d="M81.0469 1311.89L111.062 1361.46H143.124L112.995 1311.89H81.0469Z" fill="url(#paint46_linear_191_6)"/>
<path d="M143.75 1311.89L173.765 1361.46H205.713L175.698 1311.89H143.75Z" fill="url(#paint47_linear_191_6)"/>
<path d="M295.229 1311.89L266.919 1358.62L238.495 1311.89H206.547L236.562 1361.46H297.161L327.177 1311.89H295.229Z" fill="url(#paint48_linear_191_6)"/>
<path d="M420.727 1311.89L390.598 1361.46H422.659L452.675 1311.89H420.727Z" fill="url(#paint49_linear_191_6)"/>
<path d="M357.988 1311.89L327.973 1361.46H359.921L389.936 1311.89H357.988Z" fill="url(#paint50_linear_191_6)"/>
<path style="mix-blend-mode:screen" d="M454.486 1311.77H79.9766V1314.5H454.486V1311.77Z" fill="url(#paint51_linear_191_6)"/>
<path d="M455.683 1234.12H77.3086V1288.24H455.683V1234.12Z" fill="url(#paint52_linear_191_6)"/>
<path d="M454.486 1235.5H79.9766V1285.07H454.486V1235.5Z" fill="url(#paint53_linear_191_6)"/>
<path d="M81.0469 1235.5L111.062 1285.07H143.124L112.995 1235.5H81.0469Z" fill="url(#paint54_linear_191_6)"/>
<path d="M143.75 1235.5L173.765 1285.07H205.713L175.698 1235.5H143.75Z" fill="url(#paint55_linear_191_6)"/>
<path d="M295.229 1235.5L266.919 1282.34L238.495 1235.5H206.547L236.562 1285.07H297.161L327.177 1235.5H295.229Z" fill="url(#paint56_linear_191_6)"/>
<path d="M420.727 1235.5L390.598 1285.07H422.659L452.675 1235.5H420.727Z" fill="url(#paint57_linear_191_6)"/>
<path d="M357.988 1235.5L327.973 1285.07H359.921L389.936 1235.5H357.988Z" fill="url(#paint58_linear_191_6)"/>
<path style="mix-blend-mode:screen" d="M454.486 1235.5H79.9766V1238.23H454.486V1235.5Z" fill="url(#paint59_linear_191_6)"/>
<path d="M337.672 46C343.356 50.6788 348.34 57.5729 352.233 66.1437H348.903C345.041 57.5719 340.083 50.6755 334.419 46H337.672ZM351.768 86.2873C347.322 95.2177 341.83 102.405 335.658 107.371H332.018C338.234 102.402 343.776 95.2182 348.283 86.2873H351.768ZM308.24 129.932C298.016 137.855 287.56 145.778 278.033 154.641H273.928C283.61 145.778 294.066 137.855 304.444 129.932H308.24ZM255.107 183.245C252.677 187.426 250.871 192.57 249.845 198.232C248.819 203.895 248.605 209.905 249.22 215.744H244.651C244.107 209.863 244.387 203.841 245.465 198.186C246.543 192.53 248.389 187.407 250.847 183.245H255.107ZM264.711 253.077C275.701 268.836 287.409 283.028 299.72 295.513H294.685C282.47 283.035 270.865 268.842 259.986 253.077H264.711ZM345.882 343.186C361.358 359.202 376.139 377.155 390.108 396.903H384.609C370.753 377.145 356.075 359.191 340.693 343.186H345.882ZM419.23 455.588C425.135 476.427 426.563 500.233 423.258 522.733H416.907C420.425 500.338 419.16 476.493 413.344 455.588H419.23ZM398.628 600.622C385.306 630.032 368.343 660.247 350.142 692.88H342.397C360.83 660.247 378.025 630.032 391.579 600.622H398.628ZM291.355 804.745C271.391 846.508 255.057 893.107 242.869 943.064H233.342C245.897 893.022 262.597 846.425 282.913 804.745H291.355ZM227.688 1116.03C230 1178.5 227.688 1157.5 234 1221H226C224.811 1223.5 217.498 1176 220.999 1116.03H227.688Z" fill="white"/>
<defs>
<linearGradient id="paint0_linear_191_6" x1="22.2801" y1="-106.801" x2="917.825" y2="193.23" gradientUnits="userSpaceOnUse">
<stop stop-color="#CC1D19"/>
<stop offset="1" stop-color="#CC4F19"/>
</linearGradient>
<linearGradient id="paint1_linear_191_6" x1="309.774" y1="-97.1839" x2="982.325" y2="64.7345" gradientUnits="userSpaceOnUse">
<stop stop-color="#CC1D19"/>
<stop offset="1" stop-color="#CC4F19"/>
</linearGradient>
<linearGradient id="paint2_linear_191_6" x1="46.2732" y1="1499.6" x2="191.234" y2="1499.6" gradientUnits="userSpaceOnUse">
<stop offset="0.21" stop-color="#3D3D3D"/>
<stop offset="0.39" stop-color="#323232"/>
<stop offset="0.68" stop-color="#4B4A4B"/>
</linearGradient>
<linearGradient id="paint3_linear_191_6" x1="167.806" y1="1462.99" x2="60.2517" y2="1522" gradientUnits="userSpaceOnUse">
<stop offset="0.02" stop-color="#525353"/>
<stop offset="0.26" stop-color="#505151"/>
<stop offset="0.48" stop-color="#3C3C3C"/>
<stop offset="0.68" stop-color="#4C4C4C"/>
<stop offset="0.78" stop-color="#565656"/>
</linearGradient>
<linearGradient id="paint4_linear_191_6" x1="167.806" y1="1462.99" x2="60.2516" y2="1521.88" gradientUnits="userSpaceOnUse">
<stop offset="0.02" stop-color="#585959"/>
<stop offset="0.26" stop-color="#565756"/>
<stop offset="0.48" stop-color="#414141"/>
<stop offset="0.68" stop-color="#4D4D4D"/>
<stop offset="0.78" stop-color="#565656"/>
</linearGradient>
<linearGradient id="paint5_linear_191_6" x1="167.693" y1="1462.88" x2="60.3654" y2="1521.77" gradientUnits="userSpaceOnUse">
<stop offset="0.02" stop-color="#5F6060"/>
<stop offset="0.26" stop-color="#5B5C5C"/>
<stop offset="0.48" stop-color="#454645"/>
<stop offset="0.68" stop-color="#4D4D4D"/>
<stop offset="0.78" stop-color="#555555"/>
</linearGradient>
<linearGradient id="paint6_linear_191_6" x1="167.681" y1="1462.88" x2="60.3532" y2="1521.66" gradientUnits="userSpaceOnUse">
<stop offset="0.02" stop-color="#666666"/>
<stop offset="0.26" stop-color="#606161"/>
<stop offset="0.48" stop-color="#4A4B4A"/>
<stop offset="0.68" stop-color="#4D4D4D"/>
<stop offset="0.78" stop-color="#545454"/>
</linearGradient>
<linearGradient id="paint7_linear_191_6" x1="167.681" y1="1462.76" x2="60.467" y2="1521.54" gradientUnits="userSpaceOnUse">
<stop offset="0.02" stop-color="#6C6D6D"/>
<stop offset="0.24" stop-color="#666767"/>
<stop offset="0.26" stop-color="#656666"/>
<stop offset="0.48" stop-color="#4F504F"/>
<stop offset="0.68" stop-color="#4D4E4D"/>
<stop offset="0.78" stop-color="#535453"/>
</linearGradient>
<linearGradient id="paint8_linear_191_6" x1="167.567" y1="1462.76" x2="60.4669" y2="1521.43" gradientUnits="userSpaceOnUse">
<stop offset="0.02" stop-color="#737373"/>
<stop offset="0.22" stop-color="#6D6D6D"/>
<stop offset="0.26" stop-color="#6B6C6B"/>
<stop offset="0.48" stop-color="#545454"/>
<stop offset="0.68" stop-color="#4E4E4E"/>
<stop offset="0.78" stop-color="#535353"/>
</linearGradient>
<linearGradient id="paint9_linear_191_6" x1="167.531" y1="1462.65" x2="60.5451" y2="1521.32" gradientUnits="userSpaceOnUse">
<stop offset="0.02" stop-color="#797A7A"/>
<stop offset="0.2" stop-color="#737474"/>
<stop offset="0.26" stop-color="#707170"/>
<stop offset="0.48" stop-color="#595959"/>
<stop offset="0.68" stop-color="#4E4F4E"/>
<stop offset="0.78" stop-color="#525352"/>
</linearGradient>
<linearGradient id="paint10_linear_191_6" x1="167.531" y1="1462.54" x2="60.6587" y2="1521.2" gradientUnits="userSpaceOnUse">
<stop offset="0.02" stop-color="#808080"/>
<stop offset="0.19" stop-color="#7A7A7A"/>
<stop offset="0.26" stop-color="#757675"/>
<stop offset="0.48" stop-color="#5E5E5E"/>
<stop offset="0.68" stop-color="#4E4F4E"/>
<stop offset="0.78" stop-color="#515251"/>
</linearGradient>
<linearGradient id="paint11_linear_191_6" x1="167.402" y1="1462.54" x2="60.6428" y2="1521.09" gradientUnits="userSpaceOnUse">
<stop offset="0.02" stop-color="#878787"/>
<stop offset="0.17" stop-color="#818181"/>
<stop offset="0.26" stop-color="#7A7B7B"/>
<stop offset="0.48" stop-color="#626362"/>
<stop offset="0.68" stop-color="#4E4F4E"/>
<stop offset="0.78" stop-color="#505150"/>
</linearGradient>
<linearGradient id="paint12_linear_191_6" x1="167.402" y1="1462.42" x2="60.7564" y2="1520.97" gradientUnits="userSpaceOnUse">
<stop offset="0.02" stop-color="#8D8D8D"/>
<stop offset="0.17" stop-color="#878787"/>
<stop offset="0.26" stop-color="#808180"/>
<stop offset="0.48" stop-color="#676867"/>
<stop offset="0.68" stop-color="#4F504F"/>
<stop offset="0.78" stop-color="#505150"/>
</linearGradient>
<linearGradient id="paint13_linear_191_6" x1="167.402" y1="1462.42" x2="60.7563" y2="1520.86" gradientUnits="userSpaceOnUse">
<stop offset="0.02" stop-color="#949494"/>
<stop offset="0.16" stop-color="#8E8E8E"/>
<stop offset="0.35" stop-color="#7C7C7C"/>
<stop offset="0.57" stop-color="#5F5F5F"/>
<stop offset="0.68" stop-color="#4F504F"/>
</linearGradient>
<linearGradient id="paint14_linear_191_6" x1="128.921" y1="1483" x2="102.089" y2="1497.66" gradientUnits="userSpaceOnUse">
<stop offset="0.21" stop-color="#3D3D3D"/>
<stop offset="0.39" stop-color="#323232"/>
<stop offset="0.68" stop-color="#4B4A4B"/>
</linearGradient>
<linearGradient id="paint15_linear_191_6" x1="109.91" y1="1355.56" x2="122.075" y2="1355.56" gradientUnits="userSpaceOnUse">
<stop offset="0.24" stop-color="#636565"/>
<stop offset="0.7" stop-color="#D3D3D3"/>
<stop offset="0.71" stop-color="#D2D2D2"/>
<stop offset="0.9" stop-color="#9D9D9D"/>
<stop offset="1" stop-color="#888888"/>
</linearGradient>
<linearGradient id="paint16_linear_191_6" x1="105.214" y1="1224.36" x2="135.002" y2="1176.83" gradientUnits="userSpaceOnUse">
<stop offset="0.21" stop-color="#C84928"/>
<stop offset="0.39" stop-color="#A72F23"/>
<stop offset="0.68" stop-color="#D87727"/>
</linearGradient>
<linearGradient id="paint17_linear_191_6" x1="131.053" y1="1180.57" x2="104.563" y2="1227.64" gradientUnits="userSpaceOnUse">
<stop offset="0.43" stop-color="#F47F20"/>
<stop offset="0.49" stop-color="#F37920"/>
<stop offset="0.58" stop-color="#EE6722"/>
<stop offset="0.68" stop-color="#E84B24"/>
</linearGradient>
<linearGradient id="paint18_linear_191_6" x1="116.589" y1="1221.05" x2="116.248" y2="1230.38" gradientUnits="userSpaceOnUse">
<stop offset="0.02" stop-color="#949494"/>
<stop offset="0.16" stop-color="#8E8E8E"/>
<stop offset="0.35" stop-color="#7C7C7C"/>
<stop offset="0.57" stop-color="#5F5F5F"/>
<stop offset="0.68" stop-color="#4F504F"/>
</linearGradient>
<linearGradient id="paint19_linear_191_6" x1="345.573" y1="1499.6" x2="490.42" y2="1499.6" gradientUnits="userSpaceOnUse">
<stop offset="0.21" stop-color="#3D3D3D"/>
<stop offset="0.39" stop-color="#323232"/>
<stop offset="0.68" stop-color="#4B4A4B"/>
</linearGradient>
<linearGradient id="paint20_linear_191_6" x1="467.06" y1="1462.99" x2="359.506" y2="1522" gradientUnits="userSpaceOnUse">
<stop offset="0.02" stop-color="#525353"/>
<stop offset="0.26" stop-color="#505151"/>
<stop offset="0.48" stop-color="#3C3C3C"/>
<stop offset="0.68" stop-color="#4C4C4C"/>
<stop offset="0.78" stop-color="#565656"/>
</linearGradient>
<linearGradient id="paint21_linear_191_6" x1="467.06" y1="1462.99" x2="359.505" y2="1521.88" gradientUnits="userSpaceOnUse">
<stop offset="0.02" stop-color="#585959"/>
<stop offset="0.26" stop-color="#565756"/>
<stop offset="0.48" stop-color="#414141"/>
<stop offset="0.68" stop-color="#4D4D4D"/>
<stop offset="0.78" stop-color="#565656"/>
</linearGradient>
<linearGradient id="paint22_linear_191_6" x1="467.029" y1="1462.88" x2="359.588" y2="1521.77" gradientUnits="userSpaceOnUse">
<stop offset="0.02" stop-color="#5F6060"/>
<stop offset="0.26" stop-color="#5B5C5C"/>
<stop offset="0.48" stop-color="#454645"/>
<stop offset="0.68" stop-color="#4D4D4D"/>
<stop offset="0.78" stop-color="#555555"/>
</linearGradient>
<linearGradient id="paint23_linear_191_6" x1="466.915" y1="1462.88" x2="359.701" y2="1521.66" gradientUnits="userSpaceOnUse">
<stop offset="0.02" stop-color="#666666"/>
<stop offset="0.26" stop-color="#606161"/>
<stop offset="0.48" stop-color="#4A4B4A"/>
<stop offset="0.68" stop-color="#4D4D4D"/>
<stop offset="0.78" stop-color="#545454"/>
</linearGradient>
<linearGradient id="paint24_linear_191_6" x1="466.915" y1="1462.76" x2="359.701" y2="1521.54" gradientUnits="userSpaceOnUse">
<stop offset="0.02" stop-color="#6C6D6D"/>
<stop offset="0.24" stop-color="#666767"/>
<stop offset="0.26" stop-color="#656666"/>
<stop offset="0.48" stop-color="#4F504F"/>
<stop offset="0.68" stop-color="#4D4E4D"/>
<stop offset="0.78" stop-color="#535453"/>
</linearGradient>
<linearGradient id="paint25_linear_191_6" x1="466.903" y1="1462.76" x2="359.803" y2="1521.43" gradientUnits="userSpaceOnUse">
<stop offset="0.02" stop-color="#737373"/>
<stop offset="0.22" stop-color="#6D6D6D"/>
<stop offset="0.26" stop-color="#6B6C6B"/>
<stop offset="0.48" stop-color="#545454"/>
<stop offset="0.68" stop-color="#4E4E4E"/>
<stop offset="0.78" stop-color="#535353"/>
</linearGradient>
<linearGradient id="paint26_linear_191_6" x1="466.789" y1="1462.65" x2="359.803" y2="1521.32" gradientUnits="userSpaceOnUse">
<stop offset="0.02" stop-color="#797A7A"/>
<stop offset="0.2" stop-color="#737474"/>
<stop offset="0.26" stop-color="#707170"/>
<stop offset="0.48" stop-color="#595959"/>
<stop offset="0.68" stop-color="#4E4F4E"/>
<stop offset="0.78" stop-color="#525352"/>
</linearGradient>
<linearGradient id="paint27_linear_191_6" x1="466.789" y1="1462.54" x2="359.917" y2="1521.2" gradientUnits="userSpaceOnUse">
<stop offset="0.02" stop-color="#808080"/>
<stop offset="0.19" stop-color="#7A7A7A"/>
<stop offset="0.26" stop-color="#757675"/>
<stop offset="0.48" stop-color="#5E5E5E"/>
<stop offset="0.68" stop-color="#4E4F4E"/>
<stop offset="0.78" stop-color="#515251"/>
</linearGradient>
<linearGradient id="paint28_linear_191_6" x1="466.754" y1="1462.54" x2="359.881" y2="1521.09" gradientUnits="userSpaceOnUse">
<stop offset="0.02" stop-color="#878787"/>
<stop offset="0.17" stop-color="#818181"/>
<stop offset="0.26" stop-color="#7A7B7B"/>
<stop offset="0.48" stop-color="#626362"/>
<stop offset="0.68" stop-color="#4E4F4E"/>
<stop offset="0.78" stop-color="#505150"/>
</linearGradient>
<linearGradient id="paint29_linear_191_6" x1="466.754" y1="1462.42" x2="359.995" y2="1520.97" gradientUnits="userSpaceOnUse">
<stop offset="0.02" stop-color="#8D8D8D"/>
<stop offset="0.17" stop-color="#878787"/>
<stop offset="0.26" stop-color="#808180"/>
<stop offset="0.48" stop-color="#676867"/>
<stop offset="0.68" stop-color="#4F504F"/>
<stop offset="0.78" stop-color="#505150"/>
</linearGradient>
<linearGradient id="paint30_linear_191_6" x1="466.71" y1="1462.42" x2="360.178" y2="1520.86" gradientUnits="userSpaceOnUse">
<stop offset="0.02" stop-color="#949494"/>
<stop offset="0.16" stop-color="#8E8E8E"/>
<stop offset="0.35" stop-color="#7C7C7C"/>
<stop offset="0.57" stop-color="#5F5F5F"/>
<stop offset="0.68" stop-color="#4F504F"/>
</linearGradient>
<linearGradient id="paint31_linear_191_6" x1="428.175" y1="1483" x2="401.343" y2="1497.66" gradientUnits="userSpaceOnUse">
<stop offset="0.21" stop-color="#3D3D3D"/>
<stop offset="0.39" stop-color="#323232"/>
<stop offset="0.68" stop-color="#4B4A4B"/>
</linearGradient>
<linearGradient id="paint32_linear_191_6" x1="409.148" y1="1355.56" x2="421.314" y2="1355.56" gradientUnits="userSpaceOnUse">
<stop offset="0.24" stop-color="#636565"/>
<stop offset="0.7" stop-color="#D3D3D3"/>
<stop offset="0.71" stop-color="#D2D2D2"/>
<stop offset="0.9" stop-color="#9D9D9D"/>
<stop offset="1" stop-color="#888888"/>
</linearGradient>
<linearGradient id="paint33_linear_191_6" x1="404.522" y1="1224.36" x2="434.31" y2="1176.83" gradientUnits="userSpaceOnUse">
<stop offset="0.21" stop-color="#C84928"/>
<stop offset="0.39" stop-color="#A72F23"/>
<stop offset="0.68" stop-color="#D87727"/>
</linearGradient>
<linearGradient id="paint34_linear_191_6" x1="430.303" y1="1180.57" x2="403.812" y2="1227.64" gradientUnits="userSpaceOnUse">
<stop offset="0.43" stop-color="#F47F20"/>
<stop offset="0.49" stop-color="#F37920"/>
<stop offset="0.58" stop-color="#EE6722"/>
<stop offset="0.68" stop-color="#E84B24"/>
</linearGradient>
<linearGradient id="paint35_linear_191_6" x1="415.963" y1="1221.05" x2="415.508" y2="1230.26" gradientUnits="userSpaceOnUse">
<stop offset="0.02" stop-color="#949494"/>
<stop offset="0.16" stop-color="#8E8E8E"/>
<stop offset="0.35" stop-color="#7C7C7C"/>
<stop offset="0.57" stop-color="#5F5F5F"/>
<stop offset="0.68" stop-color="#4F504F"/>
</linearGradient>
<linearGradient id="paint36_linear_191_6" x1="340.852" y1="1335.32" x2="228.408" y2="1460.27" gradientUnits="userSpaceOnUse">
<stop offset="0.3" stop-color="#AEAEAE"/>
<stop offset="0.39" stop-color="#A7A7A7"/>
<stop offset="0.53" stop-color="#949494"/>
<stop offset="0.68" stop-color="#757575"/>
<stop offset="0.72" stop-color="#6D6D6D"/>
</linearGradient>
<linearGradient id="paint37_linear_191_6" x1="430.951" y1="1235.15" x2="164.338" y2="1531.32" gradientUnits="userSpaceOnUse">
<stop offset="0.05" stop-color="#F0EFEF"/>
<stop offset="0.3" stop-color="#E9E8E8"/>
<stop offset="0.66" stop-color="#D6D6D6"/>
<stop offset="0.72" stop-color="#D2D2D2"/>
</linearGradient>
<linearGradient id="paint38_linear_191_6" x1="145.17" y1="1131.12" x2="106.855" y2="1461.97" gradientUnits="userSpaceOnUse">
<stop offset="0.23" stop-color="#EC1C24"/>
<stop offset="0.38" stop-color="#E71C24"/>
<stop offset="0.56" stop-color="#D91D23"/>
<stop offset="0.75" stop-color="#C21D23"/>
<stop offset="0.91" stop-color="#A71E22"/>
</linearGradient>
<linearGradient id="paint39_linear_191_6" x1="206.964" y1="1138.39" x2="168.649" y2="1469.13" gradientUnits="userSpaceOnUse">
<stop offset="0.23" stop-color="#EC1C24"/>
<stop offset="0.38" stop-color="#E71C24"/>
<stop offset="0.56" stop-color="#D91D23"/>
<stop offset="0.75" stop-color="#C21D23"/>
<stop offset="0.91" stop-color="#A71E22"/>
</linearGradient>
<linearGradient id="paint40_linear_191_6" x1="295.115" y1="1148.51" x2="256.8" y2="1479.36" gradientUnits="userSpaceOnUse">
<stop offset="0.23" stop-color="#EC1C24"/>
<stop offset="0.38" stop-color="#E71C24"/>
<stop offset="0.56" stop-color="#D91D23"/>
<stop offset="0.75" stop-color="#C21D23"/>
<stop offset="0.91" stop-color="#A71E22"/>
</linearGradient>
<linearGradient id="paint41_linear_191_6" x1="450.628" y1="1166.59" x2="412.427" y2="1497.33" gradientUnits="userSpaceOnUse">
<stop offset="0.23" stop-color="#EC1C24"/>
<stop offset="0.38" stop-color="#E71C24"/>
<stop offset="0.56" stop-color="#D91D23"/>
<stop offset="0.75" stop-color="#C21D23"/>
<stop offset="0.91" stop-color="#A71E22"/>
</linearGradient>
<linearGradient id="paint42_linear_191_6" x1="388.799" y1="1159.43" x2="350.484" y2="1490.17" gradientUnits="userSpaceOnUse">
<stop offset="0.23" stop-color="#EC1C24"/>
<stop offset="0.38" stop-color="#E71C24"/>
<stop offset="0.56" stop-color="#D91D23"/>
<stop offset="0.75" stop-color="#C21D23"/>
<stop offset="0.91" stop-color="#A71E22"/>
</linearGradient>
<linearGradient id="paint43_linear_191_6" x1="411.055" y1="1233.78" x2="176.838" y2="1494.03" gradientUnits="userSpaceOnUse">
<stop offset="0.05" stop-color="#DBDADA"/>
<stop offset="0.2" stop-color="#D4D3D3"/>
<stop offset="0.42" stop-color="#C1C1C1"/>
<stop offset="0.67" stop-color="#A2A2A2"/>
<stop offset="0.72" stop-color="#9B9B9B"/>
</linearGradient>
<linearGradient id="paint44_linear_191_6" x1="340.852" y1="1254.94" x2="228.408" y2="1379.89" gradientUnits="userSpaceOnUse">
<stop offset="0.3" stop-color="#AEAEAE"/>
<stop offset="0.39" stop-color="#A7A7A7"/>
<stop offset="0.53" stop-color="#949494"/>
<stop offset="0.68" stop-color="#757575"/>
<stop offset="0.72" stop-color="#6D6D6D"/>
</linearGradient>
<linearGradient id="paint45_linear_191_6" x1="430.951" y1="1154.76" x2="164.338" y2="1450.94" gradientUnits="userSpaceOnUse">
<stop offset="0.05" stop-color="#F0EFEF"/>
<stop offset="0.3" stop-color="#E9E8E8"/>
<stop offset="0.66" stop-color="#D6D6D6"/>
<stop offset="0.72" stop-color="#D2D2D2"/>
</linearGradient>
<linearGradient id="paint46_linear_191_6" x1="113.45" y1="1211.27" x2="111.176" y2="1415.46" gradientUnits="userSpaceOnUse">
<stop offset="0.23" stop-color="#EC1C24"/>
<stop offset="0.38" stop-color="#E71C24"/>
<stop offset="0.56" stop-color="#D91D23"/>
<stop offset="0.75" stop-color="#C21D23"/>
<stop offset="0.91" stop-color="#A71E22"/>
</linearGradient>
<linearGradient id="paint47_linear_191_6" x1="176.153" y1="1211.95" x2="173.879" y2="1416.15" gradientUnits="userSpaceOnUse">
<stop offset="0.23" stop-color="#EC1C24"/>
<stop offset="0.38" stop-color="#E71C24"/>
<stop offset="0.56" stop-color="#D91D23"/>
<stop offset="0.75" stop-color="#C21D23"/>
<stop offset="0.91" stop-color="#A71E22"/>
</linearGradient>
<linearGradient id="paint48_linear_191_6" x1="267.942" y1="1212.97" x2="265.668" y2="1417.28" gradientUnits="userSpaceOnUse">
<stop offset="0.23" stop-color="#EC1C24"/>
<stop offset="0.38" stop-color="#E71C24"/>
<stop offset="0.56" stop-color="#D91D23"/>
<stop offset="0.75" stop-color="#C21D23"/>
<stop offset="0.91" stop-color="#A71E22"/>
</linearGradient>
<linearGradient id="paint49_linear_191_6" x1="423.114" y1="1214.79" x2="420.727" y2="1418.99" gradientUnits="userSpaceOnUse">
<stop offset="0.23" stop-color="#EC1C24"/>
<stop offset="0.38" stop-color="#E71C24"/>
<stop offset="0.56" stop-color="#D91D23"/>
<stop offset="0.75" stop-color="#C21D23"/>
<stop offset="0.91" stop-color="#A71E22"/>
</linearGradient>
<linearGradient id="paint50_linear_191_6" x1="360.376" y1="1214" x2="357.988" y2="1418.31" gradientUnits="userSpaceOnUse">
<stop offset="0.23" stop-color="#EC1C24"/>
<stop offset="0.38" stop-color="#E71C24"/>
<stop offset="0.56" stop-color="#D91D23"/>
<stop offset="0.75" stop-color="#C21D23"/>
<stop offset="0.91" stop-color="#A71E22"/>
</linearGradient>
<linearGradient id="paint51_linear_191_6" x1="411.055" y1="1153.29" x2="176.846" y2="1413.65" gradientUnits="userSpaceOnUse">
<stop offset="0.05" stop-color="#DBDADA"/>
<stop offset="0.2" stop-color="#D4D3D3"/>
<stop offset="0.42" stop-color="#C1C1C1"/>
<stop offset="0.67" stop-color="#A2A2A2"/>
<stop offset="0.72" stop-color="#9B9B9B"/>
</linearGradient>
<linearGradient id="paint52_linear_191_6" x1="340.852" y1="1178.52" x2="228.408" y2="1303.47" gradientUnits="userSpaceOnUse">
<stop offset="0.3" stop-color="#AEAEAE"/>
<stop offset="0.39" stop-color="#A7A7A7"/>
<stop offset="0.53" stop-color="#949494"/>
<stop offset="0.68" stop-color="#757575"/>
<stop offset="0.72" stop-color="#6D6D6D"/>
</linearGradient>
<linearGradient id="paint53_linear_191_6" x1="430.951" y1="1078.38" x2="164.338" y2="1374.55" gradientUnits="userSpaceOnUse">
<stop offset="0.05" stop-color="#F0EFEF"/>
<stop offset="0.3" stop-color="#E9E8E8"/>
<stop offset="0.66" stop-color="#D6D6D6"/>
<stop offset="0.72" stop-color="#D2D2D2"/>
</linearGradient>
<linearGradient id="paint54_linear_191_6" x1="114.7" y1="1184.79" x2="110.039" y2="1317.13" gradientUnits="userSpaceOnUse">
<stop offset="0.23" stop-color="#EC1C24"/>
<stop offset="0.38" stop-color="#E71C24"/>
<stop offset="0.56" stop-color="#D91D23"/>
<stop offset="0.75" stop-color="#C21D23"/>
<stop offset="0.91" stop-color="#A71E22"/>
</linearGradient>
<linearGradient id="paint55_linear_191_6" x1="177.29" y1="1187.07" x2="172.628" y2="1319.29" gradientUnits="userSpaceOnUse">
<stop offset="0.23" stop-color="#EC1C24"/>
<stop offset="0.38" stop-color="#E71C24"/>
<stop offset="0.56" stop-color="#D91D23"/>
<stop offset="0.75" stop-color="#C21D23"/>
<stop offset="0.91" stop-color="#A71E22"/>
</linearGradient>
<linearGradient id="paint56_linear_191_6" x1="268.397" y1="1190.25" x2="263.849" y2="1322.48" gradientUnits="userSpaceOnUse">
<stop offset="0.23" stop-color="#EC1C24"/>
<stop offset="0.38" stop-color="#E71C24"/>
<stop offset="0.56" stop-color="#D91D23"/>
<stop offset="0.75" stop-color="#C21D23"/>
<stop offset="0.91" stop-color="#A71E22"/>
</linearGradient>
<linearGradient id="paint57_linear_191_6" x1="423.91" y1="1195.71" x2="419.362" y2="1327.93" gradientUnits="userSpaceOnUse">
<stop offset="0.23" stop-color="#EC1C24"/>
<stop offset="0.38" stop-color="#E71C24"/>
<stop offset="0.56" stop-color="#D91D23"/>
<stop offset="0.75" stop-color="#C21D23"/>
<stop offset="0.91" stop-color="#A71E22"/>
</linearGradient>
<linearGradient id="paint58_linear_191_6" x1="361.285" y1="1193.43" x2="356.624" y2="1325.77" gradientUnits="userSpaceOnUse">
<stop offset="0.23" stop-color="#EC1C24"/>
<stop offset="0.38" stop-color="#E71C24"/>
<stop offset="0.56" stop-color="#D91D23"/>
<stop offset="0.75" stop-color="#C21D23"/>
<stop offset="0.91" stop-color="#A71E22"/>
</linearGradient>
<linearGradient id="paint59_linear_191_6" x1="411.055" y1="1077.01" x2="176.846" y2="1337.26" gradientUnits="userSpaceOnUse">
<stop offset="0.05" stop-color="#DBDADA"/>
<stop offset="0.2" stop-color="#D4D3D3"/>
<stop offset="0.42" stop-color="#C1C1C1"/>
<stop offset="0.67" stop-color="#A2A2A2"/>
<stop offset="0.72" stop-color="#9B9B9B"/>
</linearGradient>
</defs>
</svg>
