<svg width="52" height="52" viewBox="0 0 52 52" fill="none" xmlns="http://www.w3.org/2000/svg">
<path d="M52 26.0247C51.9951 31.166 50.4661 36.1904 47.6062 40.4628C44.7463 44.7352 40.6839 48.0639 35.9326 50.028C31.1813 51.992 25.9544 52.5034 20.9125 51.4974C15.8706 50.4914 11.2402 48.0132 7.60649 44.376C3.9728 40.7389 1.499 36.1061 0.497788 31.0633C-0.503425 26.0204 0.0129044 20.794 1.98151 16.0445C3.95011 11.2951 7.28261 7.2359 11.5577 4.38007C15.8329 1.52425 20.8587 2.32721e-06 26 0C29.4164 -1.54646e-06 32.7994 0.673322 35.9555 1.98149C39.1116 3.28966 41.9789 5.20702 44.3935 7.62396C46.8082 10.0409 48.7228 12.9101 50.028 16.0674C51.3331 19.2247 52.0032 22.6083 52 26.0247Z" fill="url(#paint0_linear_67_2880)"/>
<path d="M51.16 26.0235C51.1551 30.9984 49.6754 35.8602 46.908 39.9943C44.1405 44.1284 40.2095 47.3492 35.6119 49.2496C31.0143 51.15 25.9564 51.6447 21.0777 50.6712C16.199 49.6976 11.7184 47.2995 8.20236 43.78C4.6863 40.2605 2.29261 35.7776 1.32385 30.8979C0.355092 26.0182 0.854765 20.9609 2.75971 16.3651C4.66465 11.7694 7.88934 7.84157 12.0262 5.07817C16.163 2.31476 21.0262 0.839846 26.0011 0.839844C29.3071 0.839842 32.5807 1.49142 35.6347 2.75731C38.6888 4.02321 41.4634 5.87861 43.7999 8.21746C46.1364 10.5563 47.9891 13.3327 49.252 16.388C50.5149 19.4433 51.1633 22.7175 51.16 26.0235Z" fill="url(#paint1_linear_67_2880)"/>
<path d="M51.16 26.0235C51.1551 30.9984 49.6754 35.8602 46.908 39.9943C44.1405 44.1284 40.2095 47.3492 35.6119 49.2496C31.0143 51.15 25.9564 51.6447 21.0777 50.6712C16.199 49.6976 11.7184 47.2995 8.20236 43.78C4.6863 40.2605 2.29261 35.7776 1.32385 30.8979C0.355092 26.0182 0.854765 20.9609 2.75971 16.3651C4.66465 11.7694 7.88934 7.84157 12.0262 5.07817C16.163 2.31476 21.0262 0.839846 26.0011 0.839844C29.3071 0.839842 32.5807 1.49142 35.6347 2.75731C38.6888 4.02321 41.4634 5.87861 43.7999 8.21746C46.1364 10.5563 47.9891 13.3327 49.252 16.388C50.5149 19.4433 51.1633 22.7175 51.16 26.0235Z" fill="url(#paint2_linear_67_2880)"/>
<path style="mix-blend-mode:screen" opacity="0.8" d="M26.0011 0.839856C21.0192 0.834962 16.1477 2.30779 12.0031 5.07203C7.85839 7.83626 4.62669 11.7677 2.7168 16.369C0.80692 20.9702 0.304669 26.0346 1.27359 30.9214C2.24251 35.8082 4.63907 40.2978 8.16007 43.8222C11.6811 47.3467 16.1683 49.7477 21.0541 50.7214C25.94 51.6951 31.0048 51.1978 35.608 49.2925C40.2111 47.3871 44.1457 44.1593 46.914 40.0173C49.6823 35.8754 51.16 31.0054 51.16 26.0235C51.1632 22.7175 50.5149 19.4433 49.252 16.388C47.9891 13.3327 46.1364 10.5563 43.7999 8.21747C41.4633 5.87863 38.6887 4.02323 35.6347 2.75733C32.5807 1.49143 29.3071 0.839854 26.0011 0.839856ZM26.0011 50.8113C21.1083 50.8113 16.3254 49.3604 12.2572 46.6421C8.18899 43.9239 5.01822 40.0603 3.14583 35.5399C1.27344 31.0196 0.78354 26.0455 1.73807 21.2467C2.69261 16.448 5.04871 12.04 8.50843 8.58031C11.9681 5.12059 16.3761 2.7645 21.1749 1.80996C25.9736 0.855428 30.9477 1.34533 35.468 3.21772C39.9884 5.0901 43.852 8.26087 46.5703 12.3291C49.2885 16.3973 50.7394 21.1802 50.7394 26.073C50.7394 32.634 48.1331 38.9263 43.4937 43.5656C38.8544 48.2049 32.5621 50.8113 26.0011 50.8113Z" fill="url(#paint3_linear_67_2880)"/>
<path opacity="0.06" d="M46.0901 26.1961C46.0901 30.1935 44.9048 34.1011 42.6839 37.4249C40.4631 40.7486 37.3065 43.3391 33.6134 44.8688C29.9203 46.3986 25.8565 46.7988 21.9359 46.019C18.0153 45.2391 14.414 43.3142 11.5874 40.4876C8.76084 37.661 6.83591 34.0597 6.05606 30.1391C5.2762 26.2185 5.67645 22.1547 7.20619 18.4616C8.73593 14.7685 11.3265 11.6119 14.6502 9.39108C17.9739 7.17024 21.8815 5.98486 25.8789 5.98486C31.2393 5.98486 36.3801 8.11425 40.1704 11.9046C43.9608 15.6949 46.0901 20.8357 46.0901 26.1961Z" fill="url(#paint4_linear_67_2880)"/>
<path opacity="0.13" d="M46.0358 26.2183C46.0407 30.207 44.8624 34.1075 42.6499 37.4263C40.4375 40.7451 37.2904 43.3332 33.6067 44.863C29.9231 46.3927 25.8685 46.7956 21.9558 46.0204C18.0432 45.2453 14.4484 43.327 11.6263 40.5083C8.80414 37.6896 6.88146 34.0972 6.10151 30.1855C5.32155 26.2738 5.71938 22.2187 7.24464 18.5332C8.76991 14.8477 11.3541 11.6974 14.6702 9.4809C17.9863 7.2644 21.8854 6.0813 25.874 6.0813C31.217 6.08129 36.3414 8.20207 40.1218 11.9778C43.9021 15.7535 46.0292 20.8754 46.0358 26.2183Z" fill="url(#paint5_linear_67_2880)"/>
<path opacity="0.19" d="M45.9863 26.2433C45.9912 30.2222 44.8158 34.1131 42.6088 37.4238C40.4019 40.7345 37.2625 43.3162 33.5879 44.8422C29.9133 46.3683 25.8686 46.7701 21.9656 45.9969C18.0625 45.2236 14.4765 43.3101 11.6613 40.4983C8.8461 37.6865 6.92813 34.1029 6.15009 30.2009C5.37204 26.2988 5.76888 22.2536 7.2904 18.5771C8.81192 14.9006 11.3897 11.7581 14.6977 9.54702C18.0057 7.33596 21.8952 6.15576 25.8741 6.15576C31.2039 6.15576 36.3158 8.27133 40.0869 12.0378C43.8579 15.8042 45.9798 20.9135 45.9863 26.2433Z" fill="url(#paint6_linear_67_2880)"/>
<path opacity="0.25" d="M45.9321 26.2705C45.9321 30.2336 44.7569 34.1078 42.5551 37.403C40.3532 40.6983 37.2237 43.2666 33.5623 44.7832C29.9008 46.2999 25.8718 46.6967 21.9848 45.9235C18.0978 45.1503 14.5273 43.2419 11.725 40.4395C8.9226 37.6371 7.01416 34.0667 6.24099 30.1797C5.46782 26.2927 5.86464 22.2637 7.38127 18.6022C8.89791 14.9408 11.4662 11.8112 14.7615 9.60944C18.0567 7.40763 21.9309 6.23242 25.894 6.23242C28.5255 6.23242 31.1311 6.75072 33.5623 7.75772C35.9934 8.76473 38.2024 10.2407 40.0631 12.1014C41.9238 13.9621 43.3998 16.1711 44.4068 18.6022C45.4138 21.0334 45.9321 23.639 45.9321 26.2705Z" fill="url(#paint7_linear_67_2880)"/>
<path opacity="0.31" d="M45.8629 26.268C45.8629 30.2165 44.692 34.0763 42.4984 37.3594C40.3047 40.6424 37.1868 43.2012 33.5389 44.7122C29.891 46.2232 25.8769 46.6186 22.0043 45.8483C18.1317 45.078 14.5745 43.1766 11.7825 40.3846C8.9905 37.5926 7.08913 34.0354 6.31882 30.1628C5.54851 26.2902 5.94386 22.2761 7.45488 18.6282C8.96589 14.9803 11.5247 11.8624 14.8077 9.66871C18.0908 7.47505 21.9506 6.3042 25.8991 6.3042C31.1938 6.3042 36.2717 8.40752 40.0156 12.1515C43.7596 15.8954 45.8629 20.9733 45.8629 26.268Z" fill="url(#paint8_linear_67_2880)"/>
<path opacity="0.38" d="M45.8188 26.2931C45.8188 30.2073 44.6581 34.0337 42.4835 37.2882C40.3088 40.5428 37.2179 43.0794 33.6017 44.5773C29.9854 46.0752 26.0062 46.4671 22.1671 45.7035C18.3281 44.9399 14.8018 43.055 12.034 40.2872C9.26621 37.5195 7.38134 33.9931 6.61771 30.1541C5.85408 26.3151 6.246 22.3358 7.74391 18.7196C9.24182 15.1033 11.7784 12.0124 15.033 9.83777C18.2876 7.66315 22.1139 6.50244 26.0281 6.50244C31.2769 6.50244 36.3108 8.58753 40.0222 12.299C43.7337 16.0105 45.8188 21.0443 45.8188 26.2931Z" fill="url(#paint9_linear_67_2880)"/>
<path opacity="0.44" d="M45.7692 26.3153C45.7692 30.2296 44.6085 34.0559 42.4339 37.3104C40.2593 40.565 37.1684 43.1016 33.5521 44.5995C29.9358 46.0974 25.9566 46.4894 22.1176 45.7257C18.2786 44.9621 14.7522 43.0772 11.9844 40.3094C9.21665 37.5417 7.33177 34.0153 6.56815 30.1763C5.80452 26.3373 6.19644 22.358 7.69435 18.7418C9.19226 15.1255 11.7289 12.0346 14.9834 9.85999C18.238 7.68536 22.0643 6.52466 25.9785 6.52466C31.2274 6.52466 36.2612 8.60974 39.9727 12.3212C43.6841 16.0327 45.7692 21.0665 45.7692 26.3153Z" fill="url(#paint10_linear_67_2880)"/>
<path opacity="0.5" d="M45.7197 26.3153C45.7197 30.2296 44.559 34.0559 42.3844 37.3104C40.2097 40.565 37.1189 43.1016 33.5026 44.5995C29.8863 46.0974 25.9071 46.4894 22.068 45.7257C18.229 44.9621 14.7027 43.0772 11.9349 40.3094C9.16712 37.5417 7.28224 34.0153 6.51862 30.1763C5.75499 26.3373 6.14691 22.358 7.64482 18.7418C9.14273 15.1255 11.6793 12.0346 14.9339 9.85999C18.1885 7.68536 22.0148 6.52466 25.929 6.52466C31.1778 6.52466 36.2117 8.60974 39.9231 12.3212C43.6346 16.0327 45.7197 21.0665 45.7197 26.3153Z" fill="url(#paint11_linear_67_2880)"/>
<path opacity="0.56" d="M45.6602 26.3402C45.6602 30.2545 44.4995 34.0808 42.3249 37.3353C40.1503 40.5899 37.0594 43.1265 33.4431 44.6244C29.8269 46.1223 25.8476 46.5143 22.0086 45.7506C18.1696 44.987 14.6432 43.1021 11.8755 40.3344C9.10768 37.5666 7.2228 34.0402 6.45917 30.2012C5.69554 26.3622 6.08746 22.3829 7.58537 18.7667C9.08328 15.1504 11.6199 12.0595 14.8745 9.88489C18.129 7.71026 21.9553 6.54956 25.8696 6.54956C31.1184 6.54956 36.1522 8.63465 39.8637 12.3461C43.5752 16.0576 45.6602 21.0914 45.6602 26.3402Z" fill="url(#paint12_linear_67_2880)"/>
<path opacity="0.63" d="M45.6153 26.3681C45.6397 30.2927 44.4967 34.136 42.3315 37.4094C40.1663 40.6829 37.0767 43.2386 33.4555 44.7519C29.8342 46.2651 25.8448 46.6674 21.9943 45.9077C18.1438 45.1481 14.6061 43.2607 11.8309 40.4855C9.05566 37.7103 7.16827 34.1726 6.40859 30.3221C5.64891 26.4716 6.05125 22.4822 7.56447 18.8609C9.07769 15.2396 11.6334 12.15 14.9069 9.98482C18.1803 7.81963 22.0236 6.67661 25.9483 6.70107C31.1543 6.7335 36.1378 8.81597 39.8191 12.4972C43.5004 16.1785 45.5828 21.1621 45.6153 26.3681Z" fill="url(#paint13_linear_67_2880)"/>
<path opacity="0.69" d="M45.5665 26.3677C45.5714 30.2487 44.4251 34.044 42.2724 37.2733C40.1198 40.5026 37.0577 43.0209 33.4735 44.5095C29.8893 45.9981 25.9441 46.3901 22.137 45.636C18.33 44.8818 14.8322 43.0154 12.0861 40.2728C9.34011 37.5303 7.46926 34.0348 6.71031 30.2287C5.95136 26.4226 6.3384 22.4769 7.82247 18.8908C9.30655 15.3048 11.821 12.2395 15.0476 10.0828C18.2742 7.92608 22.068 6.77491 25.949 6.7749C31.1476 6.7749 36.1337 8.83834 39.812 12.512C43.4903 16.1856 45.56 21.1691 45.5665 26.3677Z" fill="url(#paint14_linear_67_2880)"/>
<path opacity="0.75" d="M45.5172 26.3926C45.5172 30.2579 44.371 34.0364 42.2236 37.2503C40.0761 40.4642 37.0239 42.9691 33.4528 44.4483C29.8818 45.9275 25.9523 46.3145 22.1612 45.5604C18.3702 44.8063 14.8879 42.945 12.1547 40.2118C9.42156 37.4787 7.56024 33.9964 6.80616 30.2054C6.05208 26.4143 6.4391 22.4848 7.91829 18.9138C9.39747 15.3427 11.9024 12.2904 15.1163 10.143C18.3301 7.99556 22.1086 6.84937 25.9739 6.84937C31.1571 6.84937 36.128 8.90838 39.7931 12.5735C43.4582 16.2385 45.5172 21.2094 45.5172 26.3926Z" fill="url(#paint15_linear_67_2880)"/>
<path opacity="0.81" d="M45.4628 26.4174C45.4628 30.2729 44.3196 34.0418 42.1776 37.2476C40.0355 40.4533 36.991 42.9519 33.429 44.4273C29.867 45.9028 25.9474 46.2888 22.166 45.5367C18.3846 44.7845 14.9111 42.9279 12.1848 40.2016C9.45857 37.4754 7.60197 34.0019 6.8498 30.2205C6.09762 26.439 6.48367 22.5195 7.95911 18.9574C9.43455 15.3954 11.9331 12.3509 15.1389 10.2089C18.3446 8.06689 22.1135 6.9236 25.969 6.9236C28.5299 6.92034 31.0663 7.42234 33.4328 8.40085C35.7994 9.37935 37.9497 10.8151 39.7605 12.6259C41.5713 14.4368 43.0071 16.587 43.9856 18.9536C44.9641 21.3202 45.4661 23.8565 45.4628 26.4174Z" fill="url(#paint16_linear_67_2880)"/>
<path opacity="0.88" d="M45.3936 26.4423C45.4083 30.2863 44.2818 34.0481 42.1569 37.2514C40.032 40.4547 37.0042 42.9553 33.4571 44.4365C29.91 45.9177 26.003 46.3129 22.2311 45.572C18.4592 44.8311 14.992 42.9874 12.2687 40.2745C9.54539 37.5616 7.68847 34.1015 6.93312 30.3325C6.17778 26.5634 6.55799 22.655 8.02561 19.1022C9.49323 15.5494 11.9822 12.5121 15.1773 10.3749C18.3725 8.23779 22.13 7.09695 25.974 7.09692C31.1115 7.09689 36.0398 9.13268 39.6795 12.7585C43.3193 16.3844 45.3739 21.3048 45.3936 26.4423Z" fill="url(#paint17_linear_67_2880)"/>
<path opacity="0.94" d="M45.3443 26.4423C45.3492 30.2755 44.2167 34.0239 42.0901 37.2131C39.9636 40.4023 36.9386 42.8888 33.3982 44.358C29.8578 45.8271 25.961 46.2128 22.2013 45.4662C18.4416 44.7196 14.9879 42.8742 12.2774 40.1638C9.56697 37.4533 7.72164 33.9996 6.97503 30.2399C6.22842 26.4802 6.6141 22.5834 8.08324 19.043C9.55238 15.5026 12.0389 12.4776 15.2281 10.3511C18.4173 8.22455 22.1657 7.09205 25.9989 7.09694C31.1296 7.09694 36.0502 9.13511 39.6781 12.7631C43.3061 16.391 45.3443 21.3116 45.3443 26.4423Z" fill="url(#paint18_linear_67_2880)"/>
<path d="M45.29 26.4673C45.29 30.2837 44.1583 34.0143 42.0381 37.1875C39.9178 40.3607 36.9042 42.8339 33.3783 44.2944C29.8525 45.7548 25.9727 46.137 22.2297 45.3924C18.4866 44.6479 15.0484 42.8101 12.3498 40.1116C9.65125 37.413 7.81349 33.9748 7.06896 30.2317C6.32442 26.4887 6.70654 22.6089 8.167 19.0831C9.62747 15.5572 12.1007 12.5436 15.2739 10.4233C18.4471 8.30307 22.1777 7.17139 25.9941 7.17139C28.5281 7.17139 31.0372 7.6705 33.3783 8.64021C35.7194 9.60992 37.8466 11.0312 39.6384 12.823C41.4302 14.6148 42.8515 16.742 43.8212 19.0831C44.7909 21.4242 45.29 23.9333 45.29 26.4673Z" fill="url(#paint19_linear_67_2880)"/>
<path d="M45.344 26.0484C45.3489 29.9011 44.2106 33.6686 42.0732 36.8741C39.9358 40.0796 36.8954 42.5788 33.3369 44.0554C29.7784 45.5321 25.8617 45.9197 22.0828 45.1693C18.3039 44.4188 14.8325 42.5641 12.1083 39.8398C9.38396 37.1155 7.52921 33.6442 6.77878 29.8652C6.02835 26.0863 6.41599 22.1697 7.89262 18.6112C9.36926 15.0527 11.8685 12.0122 15.0739 9.87484C18.2794 7.73743 22.047 6.59913 25.8997 6.60402C31.0566 6.60402 36.0024 8.65262 39.6489 12.2991C43.2954 15.9457 45.344 20.8914 45.344 26.0484Z" fill="url(#paint20_linear_67_2880)"/>
<path d="M44.8005 26.0465C44.7956 29.7884 43.6815 33.4449 41.5991 36.5538C39.5166 39.6627 36.5592 42.0845 33.1008 43.5131C29.6423 44.9417 25.8379 45.3129 22.1685 44.5799C18.499 43.8469 15.1293 42.0426 12.4851 39.3949C9.84085 36.7472 8.04089 33.3751 7.31267 29.7047C6.58446 26.0343 6.96068 22.2305 8.39378 18.7738C9.82688 15.3172 12.2525 12.363 15.3642 10.2846C18.4758 8.20623 22.1337 7.09693 25.8757 7.09692C28.363 7.09692 30.8259 7.58725 33.1236 8.53986C35.4213 9.49247 37.5086 10.8887 39.2663 12.6486C41.024 14.4086 42.4174 16.4978 43.367 18.7967C44.3166 21.0956 44.8037 23.5592 44.8005 26.0465Z" fill="url(#paint21_linear_67_2880)"/>
<path style="mix-blend-mode:screen" d="M25.8757 7.09694C22.1316 7.09694 18.4717 8.20749 15.359 10.2881C12.2463 12.3687 9.82069 15.3258 8.38904 18.7853C6.95739 22.2448 6.58407 26.0512 7.31629 29.7229C8.04852 33.3947 9.85339 36.7667 12.5026 39.4124C15.1517 42.0581 18.5261 43.8586 22.1988 44.586C25.8715 45.3134 29.6774 44.9351 33.135 43.4989C36.5927 42.0628 39.5466 39.6333 41.6231 36.5178C43.6996 33.4024 44.8054 29.7411 44.8005 25.997C44.8005 23.513 44.3108 21.0532 43.3594 18.7586C42.4081 16.4639 41.0137 14.3793 39.256 12.6239C37.4984 10.8685 35.4119 9.47688 33.116 8.52852C30.8201 7.58016 28.3597 7.09369 25.8757 7.09694ZM25.8757 44.2045C22.2707 44.1996 18.7482 43.1261 15.7532 41.1198C12.7582 39.1134 10.4251 36.2642 9.04899 32.9323C7.67283 29.6004 7.3153 25.9353 8.02159 22.4002C8.72787 18.8652 10.4663 15.6188 13.0171 13.0715C15.5679 10.5241 18.8166 8.79017 22.3526 8.08868C25.8886 7.38719 29.5532 7.74968 32.8832 9.13035C36.2133 10.511 39.0593 12.8479 41.0616 15.8456C43.0639 18.8433 44.1326 22.3674 44.1326 25.9723C44.1326 28.3687 43.6601 30.7415 42.7424 32.9552C41.8246 35.1688 40.4794 37.1798 38.7837 38.8731C37.0881 40.5665 35.0753 41.9089 32.8604 42.8237C30.6455 43.7385 28.272 44.2077 25.8757 44.2045Z" fill="url(#paint22_linear_67_2880)"/>
<g style="mix-blend-mode:screen">
<path d="M43.3553 33.0988C44.8388 28.9979 44.8586 24.5102 43.4112 20.3964C41.9638 16.2826 39.1384 12.7959 35.4139 10.5274C31.6894 8.25893 27.295 7.34823 22.9757 7.94971C18.6564 8.55119 14.678 10.6278 11.7149 13.8276L43.3553 33.0988Z" fill="url(#paint23_linear_67_2880)"/>
</g>
<path d="M21.6907 27.3119C23.9914 27.3119 25.558 25.7876 25.558 23.5575C25.558 21.5251 24.189 20.1278 22.1283 20.1278C21.4226 20.1278 20.8015 20.3113 20.3075 20.6359L20.858 18.4905H24.937V16.825H19.5595L18.2892 22.2308L19.8841 22.5695C20.2511 22.0332 20.9709 21.638 21.7613 21.638C23.0034 21.638 23.7232 22.4566 23.7232 23.6563C23.7232 24.9125 22.9469 25.7029 21.7331 25.7029C20.5898 25.7029 19.8982 25.0113 19.8982 23.8398H18.1057C18.1057 25.9287 19.5312 27.3119 21.6907 27.3119ZM30.1538 27.3119C32.4544 27.3119 34.0211 25.7876 34.0211 23.5575C34.0211 21.5251 32.652 20.1278 30.5913 20.1278C29.8856 20.1278 29.2646 20.3113 28.7706 20.6359L29.321 18.4905H33.4001V16.825H28.0225L26.7522 22.2308L28.3472 22.5695C28.7141 22.0332 29.434 21.638 30.2244 21.638C31.4664 21.638 32.1862 22.4566 32.1862 23.6563C32.1862 24.9125 31.41 25.7029 30.1961 25.7029C29.0529 25.7029 28.3613 25.0113 28.3613 23.8398H26.5688C26.5688 25.9287 27.9943 27.3119 30.1538 27.3119Z" fill="#212120"/>
<path d="M14.0262 32.5065C14.0262 32.9675 14.3038 33.2686 14.8307 33.3957L15.4 33.5368C15.7622 33.6215 15.9316 33.8191 15.9316 34.1202C15.9316 34.506 15.6164 34.7459 15.1224 34.7459C14.6613 34.7459 14.3508 34.5154 14.332 34.1626H13.9838C14.0262 34.713 14.4684 35.0565 15.1224 35.0565C15.8187 35.0565 16.2704 34.6848 16.2704 34.1014C16.2704 33.645 15.9975 33.3439 15.4705 33.2169L14.8919 33.0758C14.539 32.9864 14.3649 32.7982 14.3649 32.5018C14.3649 32.1207 14.6754 31.876 15.1506 31.876C15.5741 31.876 15.8328 32.0925 15.8705 32.4735H16.2139C16.1621 31.909 15.7622 31.5702 15.1553 31.5702C14.4778 31.5702 14.0262 31.9419 14.0262 32.5065ZM16.8089 35.9927H17.1336V34.5625C17.2935 34.8918 17.5993 35.0565 17.9851 35.0565C18.6579 35.0565 19.039 34.5389 19.039 33.852C19.039 33.1651 18.6438 32.6617 17.9851 32.6617C17.604 32.6617 17.2841 32.8311 17.1242 33.184L17.0912 32.7229H16.8089V35.9927ZM17.1383 33.8614C17.1383 33.3345 17.43 32.9581 17.9287 32.9581C18.4227 32.9581 18.7097 33.3345 18.7097 33.8614C18.7097 34.3837 18.4227 34.7648 17.9287 34.7648C17.43 34.7648 17.1383 34.3837 17.1383 33.8614ZM20.5115 35.0565C21.0479 35.0565 21.4007 34.7977 21.523 34.3178H21.2125C21.1278 34.6189 20.8879 34.7789 20.5162 34.7789C20.0269 34.7789 19.7352 34.459 19.7117 33.9038H21.523V33.7438C21.523 33.0993 21.1043 32.6617 20.488 32.6617C19.8387 32.6617 19.3965 33.151 19.3965 33.8614C19.3965 34.5766 19.8434 35.0565 20.5115 35.0565ZM20.488 32.9393C20.9161 32.9393 21.1984 33.231 21.1984 33.6686H19.7211C19.7776 33.2216 20.0599 32.9393 20.488 32.9393ZM22.9971 35.0565C23.5335 35.0565 23.8863 34.7977 24.0087 34.3178H23.6981C23.6135 34.6189 23.3735 34.7789 23.0018 34.7789C22.5125 34.7789 22.2209 34.459 22.1973 33.9038H24.0087V33.7438C24.0087 33.0993 23.5899 32.6617 22.9736 32.6617C22.3244 32.6617 21.8821 33.151 21.8821 33.8614C21.8821 34.5766 22.3291 35.0565 22.9971 35.0565ZM22.9736 32.9393C23.4017 32.9393 23.684 33.231 23.684 33.6686H22.2067C22.2632 33.2216 22.5455 32.9393 22.9736 32.9393ZM25.4216 35.0565C25.8027 35.0565 26.1226 34.8871 26.2826 34.5342L26.3155 35H26.5978V31.5702H26.2732V33.1557C26.1132 32.8264 25.8121 32.6617 25.4357 32.6617C24.7582 32.6617 24.3677 33.1793 24.3677 33.8662C24.3677 34.5483 24.7582 35.0565 25.4216 35.0565ZM25.4781 34.7601C24.9841 34.7601 24.6971 34.3837 24.6971 33.8567C24.6971 33.3345 24.9841 32.9534 25.4781 32.9534C25.9768 32.9534 26.2685 33.3345 26.2685 33.8567C26.2685 34.3837 25.9768 34.7601 25.4781 34.7601ZM28.9894 31.6314H28.6506V35H30.5372V34.6895H28.9894V31.6314ZM31.1337 32.0972C31.2655 32.0972 31.3784 31.989 31.3784 31.8572C31.3784 31.7255 31.2655 31.6126 31.1337 31.6126C31.002 31.6126 30.8938 31.7255 30.8938 31.8572C30.8938 31.989 31.002 32.0972 31.1337 32.0972ZM30.9738 35H31.2984V32.7229H30.9738V35ZM32.3 35V33.5886C32.3 33.2404 32.5305 32.9581 32.9116 32.9581C33.2551 32.9581 33.4762 33.184 33.4762 33.5698V35H33.7961V33.5933C33.7961 33.2404 34.0219 32.9534 34.403 32.9534C34.7512 32.9534 34.9676 33.184 34.9676 33.5745V35H35.2828V33.5086C35.2828 32.9817 34.9582 32.6617 34.4642 32.6617C34.0972 32.6617 33.8196 32.8499 33.7161 33.1463C33.6079 32.8499 33.3397 32.6617 32.9822 32.6617C32.6623 32.6617 32.4082 32.8076 32.2953 33.0475L32.2577 32.7229H31.9754V35H32.3ZM36.0958 32.0972C36.2275 32.0972 36.3404 31.989 36.3404 31.8572C36.3404 31.7255 36.2275 31.6126 36.0958 31.6126C35.9641 31.6126 35.8558 31.7255 35.8558 31.8572C35.8558 31.989 35.9641 32.0972 36.0958 32.0972ZM35.9358 35H36.2605V32.7229H35.9358V35ZM37.4597 35V32.9958H37.916V32.7229H37.4597V32.0031H37.1397V32.7229H36.6834V32.9958H37.1397V35H37.4597Z" fill="#212120"/>
<defs>
<linearGradient id="paint0_linear_67_2880" x1="45.7412" y1="1.36061" x2="3.90866" y2="53.608" gradientUnits="userSpaceOnUse">
<stop stop-color="#BF2026"/>
<stop offset="0.17" stop-color="#AD1E22"/>
<stop offset="0.5" stop-color="#7E1719"/>
<stop offset="0.8" stop-color="#4F1110"/>
</linearGradient>
<linearGradient id="paint1_linear_67_2880" x1="46.2123" y1="0.790367" x2="1.51016" y2="56.6248" gradientUnits="userSpaceOnUse">
<stop offset="0.23" stop-color="#EC1C24"/>
<stop offset="0.38" stop-color="#E71C24"/>
<stop offset="0.56" stop-color="#D91D23"/>
<stop offset="0.75" stop-color="#C21D23"/>
<stop offset="0.91" stop-color="#A71E22"/>
</linearGradient>
<linearGradient id="paint2_linear_67_2880" x1="-2.20119" y1="-2.71861" x2="40.0582" y2="72.0368" gradientUnits="userSpaceOnUse">
<stop stop-color="#CC1D19"/>
<stop offset="1" stop-color="#CC4F19"/>
</linearGradient>
<linearGradient id="paint3_linear_67_2880" x1="49.4283" y1="4.52587" x2="-3.70967" y2="53.2604" gradientUnits="userSpaceOnUse">
<stop offset="0.06" stop-color="#F0EFEF"/>
<stop offset="0.09" stop-color="#C3C3C3"/>
<stop offset="0.14" stop-color="#909090"/>
<stop offset="0.19" stop-color="#646464"/>
<stop offset="0.23" stop-color="#404040"/>
<stop offset="0.28" stop-color="#242424"/>
<stop offset="0.33" stop-color="#101010"/>
<stop offset="0.38" stop-color="#040404"/>
<stop offset="0.42"/>
<stop offset="0.47" stop-color="#080808"/>
<stop offset="0.54" stop-color="#1C1C1C"/>
<stop offset="0.62" stop-color="#3F3E3E"/>
<stop offset="0.72" stop-color="#6E6E6E"/>
<stop offset="0.82" stop-color="#ABAAAA"/>
<stop offset="0.93" stop-color="#F0EFEF"/>
</linearGradient>
<linearGradient id="paint4_linear_67_2880" x1="48.094" y1="-1.88193" x2="3.31755" y2="54.7441" gradientUnits="userSpaceOnUse">
<stop stop-color="#630B0C"/>
<stop offset="0.02" stop-color="#610B0C"/>
<stop offset="0.11" stop-color="#550B0C"/>
<stop offset="0.34" stop-color="#430B0C"/>
<stop offset="0.63" stop-color="#250C0C"/>
<stop offset="0.8" stop-color="#240C0C"/>
</linearGradient>
<linearGradient id="paint5_linear_67_2880" x1="47.5201" y1="-0.771223" x2="3.65899" y2="53.9253" gradientUnits="userSpaceOnUse">
<stop stop-color="#670C0E"/>
<stop offset="0.01" stop-color="#660C0E"/>
<stop offset="0.11" stop-color="#5A0C0D"/>
<stop offset="0.33" stop-color="#480C0D"/>
<stop offset="0.63" stop-color="#290C0C"/>
<stop offset="0.8" stop-color="#270D0D"/>
</linearGradient>
<linearGradient id="paint6_linear_67_2880" x1="46.9759" y1="0.317514" x2="4.00538" y2="53.1586" gradientUnits="userSpaceOnUse">
<stop stop-color="#6B0E0F"/>
<stop offset="0.01" stop-color="#6A0E0F"/>
<stop offset="0.11" stop-color="#5E0D0F"/>
<stop offset="0.33" stop-color="#4C0D0E"/>
<stop offset="0.63" stop-color="#2C0C0C"/>
<stop offset="0.8" stop-color="#2A0D0D"/>
</linearGradient>
<linearGradient id="paint7_linear_67_2880" x1="46.3774" y1="1.40845" x2="4.37167" y2="52.3694" gradientUnits="userSpaceOnUse">
<stop stop-color="#6F0F10"/>
<stop offset="0.01" stop-color="#6E0F10"/>
<stop offset="0.11" stop-color="#620E10"/>
<stop offset="0.33" stop-color="#500D0F"/>
<stop offset="0.63" stop-color="#300C0C"/>
<stop offset="0.8" stop-color="#2D0D0D"/>
</linearGradient>
<linearGradient id="paint8_linear_67_2880" x1="45.8134" y1="2.46976" x2="4.72304" y2="51.6001" gradientUnits="userSpaceOnUse">
<stop stop-color="#731012"/>
<stop offset="0.11" stop-color="#670F11"/>
<stop offset="0.33" stop-color="#550E0F"/>
<stop offset="0.63" stop-color="#340B0C"/>
<stop offset="0.8" stop-color="#300E0D"/>
</linearGradient>
<linearGradient id="paint9_linear_67_2880" x1="45.2251" y1="3.5091" x2="5.12421" y2="50.8335" gradientUnits="userSpaceOnUse">
<stop stop-color="#771113"/>
<stop offset="0.11" stop-color="#6B1012"/>
<stop offset="0.33" stop-color="#590E10"/>
<stop offset="0.63" stop-color="#380B0C"/>
<stop offset="0.8" stop-color="#330E0E"/>
</linearGradient>
<linearGradient id="paint10_linear_67_2880" x1="44.6313" y1="4.54559" x2="5.4952" y2="50.0889" gradientUnits="userSpaceOnUse">
<stop stop-color="#7B1214"/>
<stop offset="0.11" stop-color="#6F1113"/>
<stop offset="0.33" stop-color="#5D0F11"/>
<stop offset="0.63" stop-color="#3C0B0C"/>
<stop offset="0.8" stop-color="#360E0E"/>
</linearGradient>
<linearGradient id="paint11_linear_67_2880" x1="44.0127" y1="5.55986" x2="5.89096" y2="49.3467" gradientUnits="userSpaceOnUse">
<stop stop-color="#7F1416"/>
<stop offset="0.11" stop-color="#741315"/>
<stop offset="0.32" stop-color="#621012"/>
<stop offset="0.63" stop-color="#400B0C"/>
<stop offset="0.8" stop-color="#390F0E"/>
</linearGradient>
<linearGradient id="paint12_linear_67_2880" x1="43.3843" y1="6.5743" x2="6.2768" y2="48.6047" gradientUnits="userSpaceOnUse">
<stop stop-color="#831517"/>
<stop offset="0.11" stop-color="#781416"/>
<stop offset="0.32" stop-color="#661112"/>
<stop offset="0.63" stop-color="#430B0B"/>
<stop offset="0.8" stop-color="#3C0F0E"/>
</linearGradient>
<linearGradient id="paint13_linear_67_2880" x1="42.7704" y1="7.56691" x2="6.67712" y2="47.8904" gradientUnits="userSpaceOnUse">
<stop stop-color="#871618"/>
<stop offset="0.11" stop-color="#7C1517"/>
<stop offset="0.32" stop-color="#6A1213"/>
<stop offset="0.63" stop-color="#470B0B"/>
<stop offset="0.8" stop-color="#3F0F0F"/>
</linearGradient>
<linearGradient id="paint14_linear_67_2880" x1="42.1279" y1="8.53132" x2="7.07369" y2="47.1726" gradientUnits="userSpaceOnUse">
<stop stop-color="#8B1719"/>
<stop offset="0.11" stop-color="#801618"/>
<stop offset="0.32" stop-color="#6E1214"/>
<stop offset="0.63" stop-color="#4B0B0B"/>
<stop offset="0.8" stop-color="#420F0F"/>
</linearGradient>
<linearGradient id="paint15_linear_67_2880" x1="41.5096" y1="9.49637" x2="7.4944" y2="46.4802" gradientUnits="userSpaceOnUse">
<stop stop-color="#8F181B"/>
<stop offset="0.11" stop-color="#851719"/>
<stop offset="0.32" stop-color="#731314"/>
<stop offset="0.63" stop-color="#4F0B0B"/>
<stop offset="0.8" stop-color="#45100F"/>
</linearGradient>
<linearGradient id="paint16_linear_67_2880" x1="40.8368" y1="10.4612" x2="7.91005" y2="45.7875" gradientUnits="userSpaceOnUse">
<stop stop-color="#93191C"/>
<stop offset="0.11" stop-color="#89181A"/>
<stop offset="0.32" stop-color="#771315"/>
<stop offset="0.63" stop-color="#530A0B"/>
<stop offset="0.8" stop-color="#48100F"/>
</linearGradient>
<linearGradient id="paint17_linear_67_2880" x1="40.1985" y1="11.3767" x2="8.33554" y2="45.095" gradientUnits="userSpaceOnUse">
<stop stop-color="#971B1D"/>
<stop offset="0.11" stop-color="#8D191C"/>
<stop offset="0.31" stop-color="#7B1416"/>
<stop offset="0.63" stop-color="#560A0B"/>
<stop offset="0.8" stop-color="#4B1010"/>
</linearGradient>
<linearGradient id="paint18_linear_67_2880" x1="39.5308" y1="12.3167" x2="8.75626" y2="44.4271" gradientUnits="userSpaceOnUse">
<stop stop-color="#9B1C1F"/>
<stop offset="0.11" stop-color="#921A1D"/>
<stop offset="0.31" stop-color="#801517"/>
<stop offset="0.63" stop-color="#5A0A0B"/>
<stop offset="0.8" stop-color="#4E1110"/>
</linearGradient>
<linearGradient id="paint19_linear_67_2880" x1="38.858" y1="13.2075" x2="9.19676" y2="43.7594" gradientUnits="userSpaceOnUse">
<stop stop-color="#9F1D20"/>
<stop offset="0.11" stop-color="#961B1E"/>
<stop offset="0.31" stop-color="#841518"/>
<stop offset="0.63" stop-color="#5E0A0B"/>
<stop offset="0.8" stop-color="#511110"/>
</linearGradient>
<linearGradient id="paint20_linear_67_2880" x1="38.8626" y1="12.6896" x2="8.95393" y2="43.4889" gradientUnits="userSpaceOnUse">
<stop stop-color="#9F888D"/>
<stop offset="0.07" stop-color="#9A8287"/>
<stop offset="0.49" stop-color="#846668"/>
<stop offset="0.72" stop-color="#7C5C5C"/>
</linearGradient>
<linearGradient id="paint21_linear_67_2880" x1="38.4922" y1="13.0589" x2="9.42466" y2="42.9923" gradientUnits="userSpaceOnUse">
<stop offset="0.05" stop-color="#F0EFEF"/>
<stop offset="0.3" stop-color="#E9E8E8"/>
<stop offset="0.66" stop-color="#D6D6D6"/>
<stop offset="0.72" stop-color="#D2D2D2"/>
</linearGradient>
<linearGradient id="paint22_linear_67_2880" x1="43.4894" y1="9.91711" x2="3.56167" y2="46.5299" gradientUnits="userSpaceOnUse">
<stop offset="0.06" stop-color="#F0EFEF"/>
<stop offset="0.09" stop-color="#C3C3C3"/>
<stop offset="0.14" stop-color="#909090"/>
<stop offset="0.19" stop-color="#646464"/>
<stop offset="0.23" stop-color="#404040"/>
<stop offset="0.28" stop-color="#242424"/>
<stop offset="0.33" stop-color="#101010"/>
<stop offset="0.38" stop-color="#040404"/>
<stop offset="0.42"/>
<stop offset="0.47" stop-color="#080808"/>
<stop offset="0.54" stop-color="#1C1C1C"/>
<stop offset="0.62" stop-color="#3F3E3E"/>
<stop offset="0.72" stop-color="#6E6E6E"/>
<stop offset="0.82" stop-color="#ABAAAA"/>
<stop offset="0.93" stop-color="#F0EFEF"/>
</linearGradient>
<linearGradient id="paint23_linear_67_2880" x1="44.6417" y1="-0.347468" x2="21.4618" y2="31.9361" gradientUnits="userSpaceOnUse">
<stop offset="0.05" stop-color="#F0EFEF"/>
<stop offset="0.14" stop-color="#E9E8E8"/>
<stop offset="0.27" stop-color="#D5D4D4"/>
<stop offset="0.42" stop-color="#B4B3B3"/>
<stop offset="0.59" stop-color="#878686"/>
<stop offset="0.78" stop-color="#4C4C4C"/>
<stop offset="0.98" stop-color="#060606"/>
<stop offset="1"/>
</linearGradient>
</defs>
</svg>
