<svg width="317" height="105" viewBox="0 0 317 105" fill="none" xmlns="http://www.w3.org/2000/svg">
<g filter="url(#filter0_d_1887_4409)">
<path d="M30.584 7.95851C33.1871 4.63798 36.0783 2 39.4317 2H274.187C277.664 2 280.282 4.41241 282.941 7.8045L304.545 34.1061C311.914 46.0609 306.46 65.8944 295.8 65.9069L17.148 66.1175C8.57226 66.1276 3.33693 53.2827 5.48002 42.0114C6.48574 36.722 10.0317 32.4007 13.4969 28.2797L30.584 7.95851Z" fill="url(#paint0_linear_1887_4409)"/>
<path d="M30.43 87.0132C33.4181 90.8249 35.9242 92.9717 39.2777 92.9717H274.187C277.493 92.9717 279.666 91.3452 282.941 87.1672L304.545 60.8656C311.914 48.9108 306.46 29.0773 295.8 29.0648L17.148 28.8542C8.52822 28.8441 3.28325 41.8212 5.51362 53.1338C6.53243 58.3012 9.98656 62.5313 13.3624 66.574L30.43 87.0132Z" fill="url(#paint1_linear_1887_4409)"/>
</g>
<defs>
<filter id="filter0_d_1887_4409" x="0.0015558" y="0.000622272" width="316.926" height="104.967" filterUnits="userSpaceOnUse" color-interpolation-filters="sRGB">
<feFlood flood-opacity="0" result="BackgroundImageFix"/>
<feColorMatrix in="SourceAlpha" type="matrix" values="0 0 0 0 0 0 0 0 0 0 0 0 0 0 0 0 0 0 127 0" result="hardAlpha"/>
<feOffset dx="1.99938" dy="4.99844"/>
<feGaussianBlur stdDeviation="3.49891"/>
<feComposite in2="hardAlpha" operator="out"/>
<feColorMatrix type="matrix" values="0 0 0 0 0 0 0 0 0 0 0 0 0 0 0 0 0 0 0.25 0"/>
<feBlend mode="normal" in2="BackgroundImageFix" result="effect1_dropShadow_1887_4409"/>
<feBlend mode="normal" in="SourceGraphic" in2="effect1_dropShadow_1887_4409" result="shape"/>
</filter>
<linearGradient id="paint0_linear_1887_4409" x1="107.12" y1="2" x2="107.12" y2="92.9717" gradientUnits="userSpaceOnUse">
<stop offset="0.242708" stop-color="white"/>
<stop offset="1" stop-color="#D2D2D2"/>
</linearGradient>
<linearGradient id="paint1_linear_1887_4409" x1="107.12" y1="2" x2="107.12" y2="92.9717" gradientUnits="userSpaceOnUse">
<stop offset="0.242708" stop-color="white"/>
<stop offset="1" stop-color="#D2D2D2"/>
</linearGradient>
</defs>
</svg>
