<svg width="305" height="105" viewBox="0 0 305 105" fill="none" xmlns="http://www.w3.org/2000/svg">
<g filter="url(#filter0_d_1820_4355)">
<path d="M34.5623 7.96036C37.5701 4.6388 40.9109 2 44.7858 2H202.01C206.027 2 209.053 4.41316 212.125 7.80631L237.089 34.1161C245.604 46.0746 239.302 65.9143 226.984 65.9268L19.037 66.1375C9.16603 66.1475 3.12512 53.3978 5.52635 42.1546C6.69372 36.6887 10.7598 32.4662 14.654 28.4569L34.5623 7.96036Z" fill="url(#paint0_linear_1820_4355)"/>
<path d="M34.3843 87.0396C37.8371 90.8526 40.7329 93 44.6079 93H202.01C205.83 93 208.341 91.373 212.125 87.1937L237.089 60.8839C245.604 48.9254 239.302 29.0857 226.984 29.0732L19.037 28.8625C9.1146 28.8525 3.06227 41.7354 5.56457 53.021C6.74867 58.3614 10.7108 62.4971 14.5084 66.4341L34.3843 87.0396Z" fill="url(#paint1_linear_1820_4355)"/>
</g>
<path d="M110.221 43.888L107.917 38.168C107.837 37.9813 107.76 37.7573 107.685 37.496C107.653 37.624 107.619 37.7467 107.581 37.864C107.544 37.976 107.504 38.08 107.461 38.176L105.157 43.888H110.221ZM112.725 48H112.093C112.019 48 111.957 47.9813 111.909 47.944C111.861 47.9013 111.824 47.848 111.797 47.784L110.469 44.496H104.909L103.581 47.784C103.56 47.8427 103.523 47.8933 103.469 47.936C103.416 47.9787 103.352 48 103.277 48H102.653L107.285 36.68H108.093L112.725 48ZM122.52 46.096C122.573 46.096 122.618 46.1147 122.656 46.152L122.976 46.496C122.741 46.7467 122.485 46.9733 122.208 47.176C121.936 47.3733 121.634 47.544 121.304 47.688C120.978 47.8267 120.618 47.9333 120.224 48.008C119.834 48.088 119.405 48.128 118.936 48.128C118.152 48.128 117.432 47.992 116.776 47.72C116.125 47.4427 115.565 47.0533 115.096 46.552C114.626 46.0453 114.261 45.4347 114 44.72C113.744 44.0053 113.616 43.2107 113.616 42.336C113.616 41.4773 113.749 40.6933 114.016 39.984C114.282 39.2747 114.656 38.6667 115.136 38.16C115.616 37.648 116.192 37.2533 116.864 36.976C117.536 36.6933 118.277 36.552 119.088 36.552C119.861 36.552 120.546 36.672 121.144 36.912C121.741 37.152 122.285 37.4907 122.776 37.928L122.528 38.288C122.485 38.352 122.418 38.384 122.328 38.384C122.264 38.384 122.16 38.3253 122.016 38.208C121.872 38.0907 121.672 37.9627 121.416 37.824C121.16 37.68 120.84 37.5493 120.456 37.432C120.077 37.3147 119.621 37.256 119.088 37.256C118.405 37.256 117.778 37.3733 117.208 37.608C116.642 37.8427 116.154 38.1787 115.744 38.616C115.338 39.0533 115.021 39.5867 114.792 40.216C114.562 40.8453 114.448 41.552 114.448 42.336C114.448 43.136 114.562 43.8507 114.792 44.48C115.026 45.1093 115.346 45.6427 115.752 46.08C116.157 46.512 116.634 46.8453 117.184 47.08C117.738 47.3093 118.336 47.424 118.976 47.424C119.381 47.424 119.741 47.3973 120.056 47.344C120.376 47.2907 120.669 47.2107 120.936 47.104C121.202 46.9973 121.45 46.8667 121.68 46.712C121.909 46.5573 122.136 46.376 122.36 46.168C122.386 46.1467 122.413 46.1307 122.44 46.12C122.466 46.104 122.493 46.096 122.52 46.096ZM133.145 46.096C133.198 46.096 133.243 46.1147 133.281 46.152L133.601 46.496C133.366 46.7467 133.11 46.9733 132.833 47.176C132.561 47.3733 132.259 47.544 131.929 47.688C131.603 47.8267 131.243 47.9333 130.849 48.008C130.459 48.088 130.03 48.128 129.561 48.128C128.777 48.128 128.057 47.992 127.401 47.72C126.75 47.4427 126.19 47.0533 125.721 46.552C125.251 46.0453 124.886 45.4347 124.625 44.72C124.369 44.0053 124.241 43.2107 124.241 42.336C124.241 41.4773 124.374 40.6933 124.641 39.984C124.907 39.2747 125.281 38.6667 125.761 38.16C126.241 37.648 126.817 37.2533 127.489 36.976C128.161 36.6933 128.902 36.552 129.713 36.552C130.486 36.552 131.171 36.672 131.769 36.912C132.366 37.152 132.91 37.4907 133.401 37.928L133.153 38.288C133.11 38.352 133.043 38.384 132.953 38.384C132.889 38.384 132.785 38.3253 132.641 38.208C132.497 38.0907 132.297 37.9627 132.041 37.824C131.785 37.68 131.465 37.5493 131.081 37.432C130.702 37.3147 130.246 37.256 129.713 37.256C129.03 37.256 128.403 37.3733 127.833 37.608C127.267 37.8427 126.779 38.1787 126.369 38.616C125.963 39.0533 125.646 39.5867 125.417 40.216C125.187 40.8453 125.073 41.552 125.073 42.336C125.073 43.136 125.187 43.8507 125.417 44.48C125.651 45.1093 125.971 45.6427 126.377 46.08C126.782 46.512 127.259 46.8453 127.809 47.08C128.363 47.3093 128.961 47.424 129.601 47.424C130.006 47.424 130.366 47.3973 130.681 47.344C131.001 47.2907 131.294 47.2107 131.561 47.104C131.827 46.9973 132.075 46.8667 132.305 46.712C132.534 46.5573 132.761 46.376 132.985 46.168C133.011 46.1467 133.038 46.1307 133.065 46.12C133.091 46.104 133.118 46.096 133.145 46.096ZM136.613 48H135.789V36.68H136.613V48ZM149.497 42.336C149.497 43.2107 149.366 43.9973 149.105 44.696C148.844 45.3947 148.476 45.9893 148.001 46.48C147.526 46.9707 146.956 47.3467 146.289 47.608C145.628 47.8693 144.897 48 144.097 48H139.961V36.68H144.097C144.897 36.68 145.628 36.8107 146.289 37.072C146.956 37.3333 147.526 37.7093 148.001 38.2C148.476 38.6907 148.844 39.2853 149.105 39.984C149.366 40.6827 149.497 41.4667 149.497 42.336ZM148.649 42.336C148.649 41.5467 148.54 40.8427 148.321 40.224C148.102 39.6053 147.793 39.0827 147.393 38.656C146.993 38.2293 146.513 37.904 145.953 37.68C145.393 37.456 144.774 37.344 144.097 37.344H140.785V47.336H144.097C144.774 47.336 145.393 47.224 145.953 47C146.513 46.776 146.993 46.4507 147.393 46.024C147.793 45.5973 148.102 45.0747 148.321 44.456C148.54 43.8373 148.649 43.1307 148.649 42.336ZM158.917 47.32L158.901 48H152.117V36.68H158.901V37.36H152.941V41.936H157.901V42.6H152.941V47.32H158.917ZM170.135 36.68V48H169.751C169.681 48 169.623 47.9893 169.575 47.968C169.532 47.9413 169.489 47.8987 169.447 47.84L162.095 38.016C162.111 38.176 162.119 38.328 162.119 38.472V48H161.399V36.68H161.807C161.881 36.68 161.937 36.6907 161.975 36.712C162.017 36.728 162.063 36.768 162.111 36.832L169.447 46.632C169.431 46.472 169.423 46.32 169.423 46.176V36.68H170.135ZM180.837 37.376H176.861V48H176.037V37.376H172.037V36.68H180.837V37.376ZM188.16 38.056C188.112 38.1467 188.043 38.192 187.952 38.192C187.883 38.192 187.792 38.144 187.68 38.048C187.574 37.9467 187.427 37.8373 187.24 37.72C187.054 37.5973 186.819 37.4853 186.536 37.384C186.259 37.2827 185.915 37.232 185.504 37.232C185.094 37.232 184.731 37.2907 184.416 37.408C184.107 37.5253 183.846 37.6853 183.632 37.888C183.424 38.0907 183.264 38.3253 183.152 38.592C183.046 38.8587 182.992 39.1387 182.992 39.432C182.992 39.816 183.072 40.1333 183.232 40.384C183.398 40.6347 183.614 40.848 183.88 41.024C184.147 41.2 184.448 41.3493 184.784 41.472C185.126 41.5893 185.475 41.7067 185.832 41.824C186.19 41.9413 186.536 42.072 186.872 42.216C187.214 42.3547 187.518 42.5307 187.784 42.744C188.051 42.9573 188.264 43.2213 188.424 43.536C188.59 43.8453 188.672 44.232 188.672 44.696C188.672 45.1707 188.59 45.6187 188.424 46.04C188.264 46.456 188.03 46.8187 187.72 47.128C187.411 47.4373 187.032 47.6827 186.584 47.864C186.136 48.04 185.624 48.128 185.048 48.128C184.302 48.128 183.659 47.9973 183.12 47.736C182.582 47.4693 182.11 47.1067 181.704 46.648L181.928 46.296C181.992 46.216 182.067 46.176 182.152 46.176C182.2 46.176 182.262 46.208 182.336 46.272C182.411 46.336 182.502 46.416 182.608 46.512C182.715 46.6027 182.843 46.704 182.992 46.816C183.142 46.9227 183.315 47.024 183.512 47.12C183.71 47.2107 183.936 47.288 184.192 47.352C184.448 47.416 184.739 47.448 185.064 47.448C185.512 47.448 185.912 47.3813 186.264 47.248C186.616 47.1093 186.912 46.9227 187.152 46.688C187.398 46.4533 187.584 46.176 187.712 45.856C187.84 45.5307 187.904 45.184 187.904 44.816C187.904 44.416 187.822 44.088 187.656 43.832C187.496 43.5707 187.283 43.3547 187.016 43.184C186.75 43.008 186.446 42.8613 186.104 42.744C185.768 42.6267 185.422 42.512 185.064 42.4C184.707 42.288 184.358 42.1627 184.016 42.024C183.68 41.8853 183.379 41.7093 183.112 41.496C182.846 41.2773 182.63 41.008 182.464 40.688C182.304 40.3627 182.224 39.9573 182.224 39.472C182.224 39.0933 182.296 38.728 182.44 38.376C182.584 38.024 182.795 37.7147 183.072 37.448C183.35 37.176 183.691 36.96 184.096 36.8C184.507 36.6347 184.974 36.552 185.496 36.552C186.083 36.552 186.608 36.6453 187.072 36.832C187.542 37.0187 187.968 37.304 188.352 37.688L188.16 38.056ZM115.1 61.784C115.596 61.784 116.041 61.7147 116.436 61.576C116.831 61.4373 117.164 61.2453 117.436 61C117.713 60.7547 117.924 60.4667 118.068 60.136C118.217 59.8 118.292 59.4347 118.292 59.04C118.292 58.1707 118.025 57.5013 117.492 57.032C116.959 56.5627 116.161 56.328 115.1 56.328H112.996V61.784H115.1ZM115.1 55.68C116.428 55.68 117.428 55.9707 118.1 56.552C118.777 57.1333 119.116 57.9627 119.116 59.04C119.116 59.536 119.023 59.992 118.836 60.408C118.649 60.824 118.383 61.184 118.036 61.488C117.689 61.7867 117.268 62.0213 116.772 62.192C116.276 62.3573 115.719 62.44 115.1 62.44H112.996V67H112.172V55.68H115.1ZM128.222 66.32L128.206 67H121.422V55.68H128.206V56.36H122.246V60.936H127.206V61.6H122.246V66.32H128.222ZM133.487 61.272C133.989 61.272 134.437 61.2133 134.831 61.096C135.231 60.9733 135.567 60.8 135.839 60.576C136.117 60.352 136.327 60.0827 136.471 59.768C136.615 59.4533 136.687 59.0987 136.687 58.704C136.687 57.8987 136.423 57.3013 135.895 56.912C135.373 56.5227 134.607 56.328 133.599 56.328H131.527V61.272H133.487ZM138.511 67H137.807C137.717 67 137.639 66.9867 137.575 66.96C137.517 66.928 137.461 66.872 137.407 66.792L133.775 62.2C133.733 62.1413 133.687 62.0907 133.639 62.048C133.597 62.0053 133.546 61.9733 133.487 61.952C133.434 61.9253 133.367 61.9067 133.287 61.896C133.213 61.8853 133.119 61.88 133.007 61.88H131.527V67H130.703V55.68H133.599C134.901 55.68 135.874 55.9333 136.519 56.44C137.17 56.9413 137.495 57.68 137.495 58.656C137.495 59.088 137.421 59.4827 137.271 59.84C137.122 60.1973 136.906 60.512 136.623 60.784C136.346 61.0507 136.007 61.2693 135.607 61.44C135.213 61.6107 134.767 61.7253 134.271 61.784C134.399 61.864 134.514 61.9707 134.615 62.104L138.511 67ZM147.668 62.336V67H146.852V62.336L142.66 55.68H143.38C143.455 55.68 143.516 55.6987 143.564 55.736C143.612 55.768 143.652 55.816 143.684 55.88L146.924 61.08C146.993 61.2027 147.057 61.3227 147.116 61.44C147.175 61.552 147.225 61.664 147.268 61.776C147.311 61.664 147.359 61.552 147.412 61.44C147.465 61.3227 147.527 61.2027 147.596 61.08L150.836 55.88C150.863 55.8213 150.9 55.7733 150.948 55.736C151.001 55.6987 151.065 55.68 151.14 55.68H151.86L147.668 62.336ZM160.488 66.32L160.472 67H153.688V55.68H160.472V56.36H154.512V60.936H159.472V61.6H154.512V66.32H160.488ZM169.073 62.888L166.769 57.168C166.689 56.9813 166.612 56.7573 166.537 56.496C166.505 56.624 166.47 56.7467 166.433 56.864C166.396 56.976 166.356 57.08 166.313 57.176L164.009 62.888H169.073ZM171.577 67H170.945C170.87 67 170.809 66.9813 170.761 66.944C170.713 66.9013 170.676 66.848 170.649 66.784L169.321 63.496H163.761L162.433 66.784C162.412 66.8427 162.374 66.8933 162.321 66.936C162.268 66.9787 162.204 67 162.129 67H161.505L166.137 55.68H166.945L171.577 67ZM176.237 61.272C176.739 61.272 177.187 61.2133 177.581 61.096C177.981 60.9733 178.317 60.8 178.589 60.576C178.867 60.352 179.077 60.0827 179.221 59.768C179.365 59.4533 179.437 59.0987 179.437 58.704C179.437 57.8987 179.173 57.3013 178.645 56.912C178.123 56.5227 177.357 56.328 176.349 56.328H174.277V61.272H176.237ZM181.261 67H180.557C180.467 67 180.389 66.9867 180.325 66.96C180.267 66.928 180.211 66.872 180.157 66.792L176.525 62.2C176.483 62.1413 176.437 62.0907 176.389 62.048C176.347 62.0053 176.296 61.9733 176.237 61.952C176.184 61.9253 176.117 61.9067 176.037 61.896C175.963 61.8853 175.869 61.88 175.757 61.88H174.277V67H173.453V55.68H176.349C177.651 55.68 178.624 55.9333 179.269 56.44C179.92 56.9413 180.245 57.68 180.245 58.656C180.245 59.088 180.171 59.4827 180.021 59.84C179.872 60.1973 179.656 60.512 179.373 60.784C179.096 61.0507 178.757 61.2693 178.357 61.44C177.963 61.6107 177.517 61.7253 177.021 61.784C177.149 61.864 177.264 61.9707 177.365 62.104L181.261 67Z" fill="black"/>
<g filter="url(#filter1_d_1820_4355)">
<circle cx="254.5" cy="47.5" r="45.5" fill="url(#paint2_linear_1820_4355)"/>
</g>
<g filter="url(#filter2_d_1820_4355)">
<circle cx="254.5" cy="47.5" r="32.5" fill="url(#paint3_linear_1820_4355)"/>
<circle cx="254.5" cy="47.5" r="32" stroke="#E25D03"/>
</g>
<path d="M244.27 51.976C244.51 51.976 244.696 52.0427 244.83 52.176C244.968 52.3093 245.038 52.4853 245.038 52.704V54H236.99V53.28C236.99 53.1413 237.019 52.992 237.078 52.832C237.136 52.6667 237.235 52.5173 237.374 52.384L240.814 48.936C241.107 48.6427 241.366 48.3627 241.59 48.096C241.814 47.824 242 47.56 242.15 47.304C242.299 47.0427 242.411 46.7787 242.486 46.512C242.56 46.2453 242.598 45.9653 242.598 45.672C242.598 45.1547 242.464 44.7627 242.198 44.496C241.931 44.224 241.555 44.088 241.07 44.088C240.856 44.088 240.659 44.12 240.477 44.184C240.302 44.2427 240.142 44.3253 239.998 44.432C239.859 44.5387 239.739 44.664 239.638 44.808C239.536 44.952 239.462 45.1093 239.414 45.28C239.318 45.5467 239.187 45.7253 239.022 45.816C238.862 45.9013 238.632 45.92 238.334 45.872L237.166 45.664C237.251 45.0987 237.411 44.6027 237.646 44.176C237.88 43.7493 238.174 43.3947 238.526 43.112C238.878 42.8293 239.28 42.6187 239.734 42.48C240.187 42.336 240.675 42.264 241.198 42.264C241.747 42.264 242.246 42.3467 242.694 42.512C243.147 42.672 243.534 42.8987 243.854 43.192C244.174 43.48 244.422 43.8293 244.598 44.24C244.774 44.6507 244.862 45.104 244.862 45.6C244.862 46.0267 244.8 46.4213 244.678 46.784C244.555 47.1467 244.387 47.4933 244.174 47.824C243.966 48.1493 243.723 48.4667 243.446 48.776C243.168 49.0853 242.875 49.3973 242.566 49.712L240.102 52.232C240.374 52.152 240.643 52.0907 240.91 52.048C241.176 52 241.427 51.976 241.662 51.976H244.27ZM254.639 48.192C254.639 49.2053 254.529 50.0853 254.311 50.832C254.092 51.5787 253.791 52.1973 253.407 52.688C253.023 53.1733 252.567 53.536 252.039 53.776C251.516 54.0107 250.951 54.128 250.343 54.128C249.735 54.128 249.169 54.0107 248.647 53.776C248.124 53.536 247.673 53.1733 247.295 52.688C246.916 52.1973 246.617 51.5787 246.399 50.832C246.185 50.0853 246.079 49.2053 246.079 48.192C246.079 47.1787 246.185 46.3013 246.399 45.56C246.617 44.8133 246.916 44.1973 247.295 43.712C247.673 43.2213 248.124 42.8587 248.647 42.624C249.169 42.384 249.735 42.264 250.343 42.264C250.951 42.264 251.516 42.384 252.039 42.624C252.567 42.8587 253.023 43.2213 253.407 43.712C253.791 44.1973 254.092 44.8133 254.311 45.56C254.529 46.3013 254.639 47.1787 254.639 48.192ZM252.359 48.192C252.359 47.3707 252.3 46.6933 252.183 46.16C252.071 45.6267 251.921 45.2053 251.735 44.896C251.548 44.5867 251.332 44.3707 251.087 44.248C250.847 44.1253 250.599 44.064 250.343 44.064C250.087 44.064 249.839 44.1253 249.599 44.248C249.364 44.3707 249.153 44.5867 248.967 44.896C248.785 45.2053 248.639 45.6267 248.527 46.16C248.415 46.6933 248.359 47.3707 248.359 48.192C248.359 49.0187 248.415 49.6987 248.527 50.232C248.639 50.7653 248.785 51.1867 248.967 51.496C249.153 51.8053 249.364 52.0213 249.599 52.144C249.839 52.2667 250.087 52.328 250.343 52.328C250.599 52.328 250.847 52.2667 251.087 52.144C251.332 52.0213 251.548 51.8053 251.735 51.496C251.921 51.1867 252.071 50.7653 252.183 50.232C252.3 49.6987 252.359 49.0187 252.359 48.192ZM263.336 52.376V54H256.824V52.376H259.128V46.024C259.128 45.8853 259.131 45.744 259.136 45.6C259.141 45.456 259.149 45.3093 259.16 45.16L257.64 46.424C257.533 46.504 257.429 46.5547 257.328 46.576C257.227 46.5973 257.131 46.6 257.04 46.584C256.949 46.5627 256.869 46.5307 256.8 46.488C256.731 46.44 256.677 46.392 256.64 46.344L255.944 45.408L259.512 42.384H261.328V52.376H263.336ZM267.081 45.904C267.081 46.5173 267.231 46.984 267.529 47.304C267.833 47.624 268.276 47.784 268.857 47.784C269.151 47.784 269.412 47.7387 269.641 47.648C269.876 47.552 270.071 47.4213 270.225 47.256C270.38 47.0907 270.497 46.8933 270.577 46.664C270.663 46.4347 270.705 46.184 270.705 45.912C270.705 45.608 270.66 45.3413 270.569 45.112C270.479 44.8773 270.351 44.68 270.185 44.52C270.025 44.36 269.833 44.24 269.609 44.16C269.385 44.0747 269.137 44.032 268.865 44.032C268.588 44.032 268.34 44.08 268.121 44.176C267.903 44.2667 267.716 44.3973 267.561 44.568C267.407 44.7333 267.287 44.9307 267.201 45.16C267.121 45.3893 267.081 45.6373 267.081 45.904ZM269.409 49.544C269.489 49.4427 269.567 49.344 269.641 49.248C269.716 49.152 269.791 49.056 269.865 48.96C269.609 49.1093 269.329 49.224 269.025 49.304C268.727 49.3787 268.409 49.416 268.073 49.416C267.684 49.416 267.297 49.3467 266.913 49.208C266.535 49.0693 266.193 48.8613 265.889 48.584C265.585 48.3067 265.34 47.96 265.153 47.544C264.967 47.1227 264.873 46.6293 264.873 46.064C264.873 45.5467 264.969 45.0587 265.161 44.6C265.353 44.136 265.625 43.7333 265.977 43.392C266.329 43.0453 266.751 42.7707 267.241 42.568C267.737 42.3653 268.287 42.264 268.889 42.264C269.497 42.264 270.044 42.36 270.529 42.552C271.015 42.7387 271.425 43.0027 271.761 43.344C272.097 43.6853 272.356 44.0933 272.537 44.568C272.719 45.0373 272.809 45.5547 272.809 46.12C272.809 46.488 272.78 46.8373 272.721 47.168C272.663 47.4987 272.577 47.8133 272.465 48.112C272.353 48.4107 272.217 48.7013 272.057 48.984C271.903 49.2667 271.727 49.544 271.529 49.816L268.945 53.504C268.839 53.6427 268.684 53.76 268.481 53.856C268.284 53.952 268.057 54 267.801 54H265.769L269.409 49.544Z" fill="#2C3D3B"/>
<defs>
<filter id="filter0_d_1820_4355" x="0" y="0" width="250" height="105" filterUnits="userSpaceOnUse" color-interpolation-filters="sRGB">
<feFlood flood-opacity="0" result="BackgroundImageFix"/>
<feColorMatrix in="SourceAlpha" type="matrix" values="0 0 0 0 0 0 0 0 0 0 0 0 0 0 0 0 0 0 127 0" result="hardAlpha"/>
<feOffset dx="2" dy="5"/>
<feGaussianBlur stdDeviation="3.5"/>
<feComposite in2="hardAlpha" operator="out"/>
<feColorMatrix type="matrix" values="0 0 0 0 0 0 0 0 0 0 0 0 0 0 0 0 0 0 0.25 0"/>
<feBlend mode="normal" in2="BackgroundImageFix" result="effect1_dropShadow_1820_4355"/>
<feBlend mode="normal" in="SourceGraphic" in2="effect1_dropShadow_1820_4355" result="shape"/>
</filter>
<filter id="filter1_d_1820_4355" x="206" y="2" width="99" height="99" filterUnits="userSpaceOnUse" color-interpolation-filters="sRGB">
<feFlood flood-opacity="0" result="BackgroundImageFix"/>
<feColorMatrix in="SourceAlpha" type="matrix" values="0 0 0 0 0 0 0 0 0 0 0 0 0 0 0 0 0 0 127 0" result="hardAlpha"/>
<feOffset dx="1" dy="4"/>
<feGaussianBlur stdDeviation="2"/>
<feComposite in2="hardAlpha" operator="out"/>
<feColorMatrix type="matrix" values="0 0 0 0 0 0 0 0 0 0 0 0 0 0 0 0 0 0 0.37 0"/>
<feBlend mode="normal" in2="BackgroundImageFix" result="effect1_dropShadow_1820_4355"/>
<feBlend mode="normal" in="SourceGraphic" in2="effect1_dropShadow_1820_4355" result="shape"/>
</filter>
<filter id="filter2_d_1820_4355" x="219" y="15" width="73" height="73" filterUnits="userSpaceOnUse" color-interpolation-filters="sRGB">
<feFlood flood-opacity="0" result="BackgroundImageFix"/>
<feColorMatrix in="SourceAlpha" type="matrix" values="0 0 0 0 0 0 0 0 0 0 0 0 0 0 0 0 0 0 127 0" result="hardAlpha"/>
<feOffset dx="1" dy="4"/>
<feGaussianBlur stdDeviation="2"/>
<feComposite in2="hardAlpha" operator="out"/>
<feColorMatrix type="matrix" values="0 0 0 0 0 0 0 0 0 0 0 0 0 0 0 0 0 0 0.5 0"/>
<feBlend mode="normal" in2="BackgroundImageFix" result="effect1_dropShadow_1820_4355"/>
<feBlend mode="normal" in="SourceGraphic" in2="effect1_dropShadow_1820_4355" result="shape"/>
</filter>
<linearGradient id="paint0_linear_1820_4355" x1="123" y1="2" x2="123" y2="93" gradientUnits="userSpaceOnUse">
<stop offset="0.242708" stop-color="white"/>
<stop offset="1" stop-color="#D2D2D2"/>
</linearGradient>
<linearGradient id="paint1_linear_1820_4355" x1="123" y1="2" x2="123" y2="93" gradientUnits="userSpaceOnUse">
<stop offset="0.242708" stop-color="white"/>
<stop offset="1" stop-color="#D2D2D2"/>
</linearGradient>
<linearGradient id="paint2_linear_1820_4355" x1="245" y1="-1" x2="258.5" y2="95.5" gradientUnits="userSpaceOnUse">
<stop stop-color="#FEFEFE"/>
<stop offset="1" stop-color="#F3F4F4"/>
</linearGradient>
<linearGradient id="paint3_linear_1820_4355" x1="247" y1="13" x2="260.5" y2="83" gradientUnits="userSpaceOnUse">
<stop stop-color="#FEFEFE"/>
<stop offset="1" stop-color="#F3F4F4"/>
</linearGradient>
</defs>
</svg>
