<svg width="305" height="105" viewBox="0 0 305 105" fill="none" xmlns="http://www.w3.org/2000/svg">
<g filter="url(#filter0_d_1820_4356)">
<path d="M34.5623 7.96036C37.5701 4.6388 40.9109 2 44.7858 2H202.01C206.027 2 209.053 4.41316 212.125 7.80631L237.089 34.1161C245.604 46.0746 239.302 65.9143 226.984 65.9268L19.037 66.1375C9.16603 66.1475 3.12512 53.3978 5.52635 42.1546C6.69372 36.6887 10.7598 32.4662 14.654 28.4569L34.5623 7.96036Z" fill="url(#paint0_linear_1820_4356)"/>
<path d="M34.3843 87.0396C37.8371 90.8526 40.7329 93 44.6079 93H202.01C205.83 93 208.341 91.373 212.125 87.1937L237.089 60.8839C245.604 48.9254 239.302 29.0857 226.984 29.0732L19.037 28.8625C9.1146 28.8525 3.06227 41.7354 5.56457 53.021C6.74867 58.3614 10.7108 62.4971 14.5084 66.4341L34.3843 87.0396Z" fill="url(#paint1_linear_1820_4356)"/>
</g>
<path d="M112.309 48H111.677C111.603 48 111.541 47.9813 111.493 47.944C111.445 47.9013 111.408 47.848 111.381 47.784L110.045 44.496H104.485L103.157 47.784C103.136 47.8427 103.099 47.8933 103.045 47.936C102.992 47.9787 102.928 48 102.853 48H102.229L106.861 36.68H107.677L112.309 48ZM104.733 43.888H109.805L107.493 38.168C107.456 38.0773 107.419 37.976 107.381 37.864C107.344 37.7467 107.307 37.624 107.269 37.496C107.232 37.624 107.195 37.7467 107.157 37.864C107.12 37.976 107.083 38.08 107.045 38.176L104.733 43.888ZM122.092 46.096C122.145 46.096 122.19 46.1147 122.228 46.152L122.548 46.496C122.313 46.7467 122.057 46.9733 121.78 47.176C121.502 47.3733 121.198 47.544 120.868 47.688C120.542 47.8267 120.182 47.9333 119.788 48.008C119.398 48.088 118.969 48.128 118.5 48.128C117.716 48.128 116.996 47.992 116.34 47.72C115.689 47.4427 115.129 47.0533 114.66 46.552C114.196 46.0453 113.833 45.4347 113.572 44.72C113.31 44.0053 113.18 43.2107 113.18 42.336C113.18 41.4773 113.313 40.6933 113.58 39.984C113.852 39.2747 114.23 38.6667 114.716 38.16C115.206 37.648 115.79 37.2533 116.468 36.976C117.15 36.6933 117.902 36.552 118.724 36.552C119.134 36.552 119.51 36.584 119.852 36.648C120.193 36.7067 120.51 36.7947 120.804 36.912C121.102 37.024 121.382 37.1653 121.644 37.336C121.905 37.5067 122.161 37.704 122.412 37.928L122.164 38.288C122.121 38.352 122.054 38.384 121.964 38.384C121.916 38.384 121.854 38.3573 121.78 38.304C121.705 38.2453 121.609 38.176 121.492 38.096C121.38 38.0107 121.241 37.92 121.076 37.824C120.916 37.7227 120.724 37.632 120.5 37.552C120.276 37.4667 120.017 37.3973 119.724 37.344C119.43 37.2853 119.097 37.256 118.724 37.256C118.036 37.256 117.404 37.376 116.828 37.616C116.252 37.8507 115.756 38.1893 115.34 38.632C114.924 39.0693 114.598 39.6027 114.364 40.232C114.134 40.856 114.02 41.5573 114.02 42.336C114.02 43.136 114.134 43.8507 114.364 44.48C114.593 45.1093 114.91 45.6427 115.316 46.08C115.721 46.512 116.198 46.8453 116.748 47.08C117.302 47.3093 117.902 47.424 118.548 47.424C118.953 47.424 119.313 47.3973 119.628 47.344C119.948 47.2907 120.241 47.2107 120.508 47.104C120.774 46.9973 121.022 46.8667 121.252 46.712C121.481 46.5573 121.708 46.376 121.932 46.168C121.958 46.1467 121.982 46.1307 122.004 46.12C122.03 46.104 122.06 46.096 122.092 46.096ZM133.342 46.096C133.395 46.096 133.44 46.1147 133.478 46.152L133.798 46.496C133.563 46.7467 133.307 46.9733 133.03 47.176C132.752 47.3733 132.448 47.544 132.118 47.688C131.792 47.8267 131.432 47.9333 131.038 48.008C130.648 48.088 130.219 48.128 129.75 48.128C128.966 48.128 128.246 47.992 127.59 47.72C126.939 47.4427 126.379 47.0533 125.91 46.552C125.446 46.0453 125.083 45.4347 124.822 44.72C124.56 44.0053 124.43 43.2107 124.43 42.336C124.43 41.4773 124.563 40.6933 124.83 39.984C125.102 39.2747 125.48 38.6667 125.966 38.16C126.456 37.648 127.04 37.2533 127.718 36.976C128.4 36.6933 129.152 36.552 129.974 36.552C130.384 36.552 130.76 36.584 131.102 36.648C131.443 36.7067 131.76 36.7947 132.054 36.912C132.352 37.024 132.632 37.1653 132.894 37.336C133.155 37.5067 133.411 37.704 133.662 37.928L133.414 38.288C133.371 38.352 133.304 38.384 133.214 38.384C133.166 38.384 133.104 38.3573 133.03 38.304C132.955 38.2453 132.859 38.176 132.742 38.096C132.63 38.0107 132.491 37.92 132.326 37.824C132.166 37.7227 131.974 37.632 131.75 37.552C131.526 37.4667 131.267 37.3973 130.974 37.344C130.68 37.2853 130.347 37.256 129.974 37.256C129.286 37.256 128.654 37.376 128.078 37.616C127.502 37.8507 127.006 38.1893 126.59 38.632C126.174 39.0693 125.848 39.6027 125.614 40.232C125.384 40.856 125.27 41.5573 125.27 42.336C125.27 43.136 125.384 43.8507 125.614 44.48C125.843 45.1093 126.16 45.6427 126.566 46.08C126.971 46.512 127.448 46.8453 127.998 47.08C128.552 47.3093 129.152 47.424 129.798 47.424C130.203 47.424 130.563 47.3973 130.878 47.344C131.198 47.2907 131.491 47.2107 131.758 47.104C132.024 46.9973 132.272 46.8667 132.502 46.712C132.731 46.5573 132.958 46.376 133.182 46.168C133.208 46.1467 133.232 46.1307 133.254 46.12C133.28 46.104 133.31 46.096 133.342 46.096ZM137.488 48H136.664V36.68H137.488V48ZM150.677 42.336C150.677 43.2107 150.546 43.9973 150.285 44.696C150.023 45.3947 149.655 45.9893 149.181 46.48C148.706 46.9707 148.138 47.3467 147.477 47.608C146.815 47.8693 146.082 48 145.277 48H141.149V36.68H145.277C146.082 36.68 146.815 36.8107 147.477 37.072C148.138 37.3333 148.706 37.7093 149.181 38.2C149.655 38.6907 150.023 39.2853 150.285 39.984C150.546 40.6827 150.677 41.4667 150.677 42.336ZM149.829 42.336C149.829 41.5467 149.719 40.8427 149.501 40.224C149.282 39.6053 148.973 39.0827 148.573 38.656C148.178 38.2293 147.701 37.904 147.141 37.68C146.581 37.456 145.959 37.344 145.277 37.344H141.973V47.336H145.277C145.959 47.336 146.581 47.224 147.141 47C147.701 46.776 148.178 46.4507 148.573 46.024C148.973 45.5973 149.282 45.0747 149.501 44.456C149.719 43.8373 149.829 43.1307 149.829 42.336ZM160.089 36.68V37.36H154.129V41.936H159.089V42.6H154.129V47.32H160.089V48H153.305V36.68H160.089ZM163.158 36.68C163.233 36.68 163.291 36.6907 163.334 36.712C163.377 36.728 163.422 36.768 163.47 36.832L170.798 46.64C170.782 46.48 170.774 46.3253 170.774 46.176V36.68H171.494V48H171.102C170.979 48 170.881 47.9467 170.806 47.84L163.446 38.016C163.462 38.176 163.47 38.328 163.47 38.472V48H162.758V36.68H163.158ZM182.244 36.68V37.376H178.268V48H177.452V37.376H173.452V36.68H182.244ZM189.683 38.056C189.635 38.1467 189.566 38.192 189.475 38.192C189.406 38.192 189.315 38.144 189.203 38.048C189.097 37.9467 188.95 37.8373 188.763 37.72C188.577 37.5973 188.342 37.4853 188.059 37.384C187.782 37.2827 187.438 37.232 187.027 37.232C186.617 37.232 186.254 37.2907 185.939 37.408C185.63 37.5253 185.369 37.6853 185.155 37.888C184.947 38.0907 184.787 38.3253 184.675 38.592C184.569 38.8587 184.515 39.1387 184.515 39.432C184.515 39.816 184.595 40.1333 184.755 40.384C184.921 40.6347 185.137 40.848 185.403 41.024C185.67 41.2 185.971 41.3493 186.307 41.472C186.649 41.5893 186.998 41.7067 187.355 41.824C187.713 41.9413 188.059 42.072 188.395 42.216C188.737 42.3547 189.041 42.5307 189.307 42.744C189.574 42.9573 189.787 43.2213 189.947 43.536C190.113 43.8453 190.195 44.232 190.195 44.696C190.195 45.1707 190.113 45.6187 189.947 46.04C189.787 46.456 189.553 46.8187 189.243 47.128C188.934 47.4373 188.555 47.6827 188.107 47.864C187.659 48.04 187.147 48.128 186.571 48.128C185.825 48.128 185.182 47.9973 184.643 47.736C184.105 47.4693 183.633 47.1067 183.227 46.648L183.451 46.296C183.515 46.216 183.59 46.176 183.675 46.176C183.723 46.176 183.785 46.208 183.859 46.272C183.934 46.336 184.025 46.416 184.131 46.512C184.238 46.6027 184.366 46.704 184.515 46.816C184.665 46.9227 184.838 47.024 185.035 47.12C185.233 47.2107 185.459 47.288 185.715 47.352C185.971 47.416 186.262 47.448 186.587 47.448C187.035 47.448 187.435 47.3813 187.787 47.248C188.139 47.1093 188.435 46.9227 188.675 46.688C188.921 46.4533 189.107 46.176 189.235 45.856C189.363 45.5307 189.427 45.184 189.427 44.816C189.427 44.416 189.345 44.088 189.179 43.832C189.019 43.5707 188.806 43.3547 188.539 43.184C188.273 43.008 187.969 42.8613 187.627 42.744C187.291 42.6267 186.945 42.512 186.587 42.4C186.23 42.288 185.881 42.1627 185.539 42.024C185.203 41.8853 184.902 41.7093 184.635 41.496C184.369 41.2773 184.153 41.008 183.987 40.688C183.827 40.3627 183.747 39.9573 183.747 39.472C183.747 39.0933 183.819 38.728 183.963 38.376C184.107 38.024 184.318 37.7147 184.595 37.448C184.873 37.176 185.214 36.96 185.619 36.8C186.03 36.6347 186.497 36.552 187.019 36.552C187.606 36.552 188.131 36.6453 188.595 36.832C189.065 37.0187 189.491 37.304 189.875 37.688L189.683 38.056ZM113.439 62.44V67H112.623V55.68H115.543C116.871 55.68 117.871 55.9707 118.543 56.552C119.22 57.1333 119.559 57.9627 119.559 59.04C119.559 59.536 119.466 59.992 119.279 60.408C119.098 60.824 118.834 61.184 118.487 61.488C118.14 61.7867 117.719 62.0213 117.223 62.192C116.727 62.3573 116.167 62.44 115.543 62.44H113.439ZM113.439 61.784H115.543C116.044 61.784 116.492 61.7147 116.887 61.576C117.282 61.4373 117.615 61.2453 117.887 61C118.164 60.7547 118.375 60.4667 118.519 60.136C118.668 59.8 118.743 59.4347 118.743 59.04C118.743 58.1707 118.474 57.5013 117.935 57.032C117.402 56.5627 116.604 56.328 115.543 56.328H113.439V61.784ZM128.667 55.68V56.36H122.707V60.936H127.667V61.6H122.707V66.32H128.667V67H121.883V55.68H128.667ZM132.392 61.88V67H131.576V55.68H134.464C135.771 55.68 136.747 55.9333 137.392 56.44C138.038 56.9413 138.36 57.68 138.36 58.656C138.36 59.088 138.286 59.4827 138.136 59.84C137.987 60.1973 137.771 60.512 137.488 60.784C137.211 61.0507 136.875 61.272 136.48 61.448C136.086 61.6187 135.64 61.7307 135.144 61.784C135.272 61.864 135.387 61.9707 135.488 62.104L139.384 67H138.672C138.587 67 138.512 66.984 138.448 66.952C138.39 66.92 138.331 66.8667 138.272 66.792L134.648 62.2C134.558 62.0827 134.459 62 134.352 61.952C134.251 61.904 134.091 61.88 133.872 61.88H132.392ZM132.392 61.272H134.36C134.862 61.272 135.31 61.2133 135.704 61.096C136.104 60.9733 136.44 60.8 136.712 60.576C136.99 60.352 137.2 60.0827 137.344 59.768C137.488 59.4533 137.56 59.0987 137.56 58.704C137.56 57.8987 137.296 57.3013 136.768 56.912C136.24 56.5227 135.472 56.328 134.464 56.328H132.392V61.272ZM148.052 62.328V67H147.228V62.328L143.044 55.68H143.756C143.83 55.68 143.889 55.6987 143.932 55.736C143.98 55.768 144.025 55.816 144.068 55.88L147.308 61.08C147.382 61.2027 147.446 61.3227 147.5 61.44C147.553 61.552 147.601 61.6667 147.644 61.784C147.686 61.6667 147.734 61.552 147.788 61.44C147.841 61.3227 147.905 61.2027 147.98 61.08L151.212 55.88C151.244 55.8213 151.284 55.7733 151.332 55.736C151.38 55.6987 151.441 55.68 151.516 55.68H152.236L148.052 62.328ZM160.902 55.68V56.36H154.942V60.936H159.902V61.6H154.942V66.32H160.902V67H154.118V55.68H160.902ZM172.091 67H171.459C171.384 67 171.323 66.9813 171.275 66.944C171.227 66.9013 171.189 66.848 171.163 66.784L169.827 63.496H164.267L162.939 66.784C162.917 66.8427 162.88 66.8933 162.827 66.936C162.773 66.9787 162.709 67 162.635 67H162.011L166.643 55.68H167.459L172.091 67ZM164.515 62.888H169.587L167.275 57.168C167.237 57.0773 167.2 56.976 167.163 56.864C167.125 56.7467 167.088 56.624 167.051 56.496C167.013 56.624 166.976 56.7467 166.939 56.864C166.901 56.976 166.864 57.08 166.827 57.176L164.515 62.888ZM174.939 61.88V67H174.123V55.68H177.011C178.318 55.68 179.294 55.9333 179.939 56.44C180.584 56.9413 180.907 57.68 180.907 58.656C180.907 59.088 180.832 59.4827 180.683 59.84C180.534 60.1973 180.318 60.512 180.035 60.784C179.758 61.0507 179.422 61.272 179.027 61.448C178.632 61.6187 178.187 61.7307 177.691 61.784C177.819 61.864 177.934 61.9707 178.035 62.104L181.931 67H181.219C181.134 67 181.059 66.984 180.995 66.952C180.936 66.92 180.878 66.8667 180.819 66.792L177.195 62.2C177.104 62.0827 177.006 62 176.899 61.952C176.798 61.904 176.638 61.88 176.419 61.88H174.939ZM174.939 61.272H176.907C177.408 61.272 177.856 61.2133 178.251 61.096C178.651 60.9733 178.987 60.8 179.259 60.576C179.536 60.352 179.747 60.0827 179.891 59.768C180.035 59.4533 180.107 59.0987 180.107 58.704C180.107 57.8987 179.843 57.3013 179.315 56.912C178.787 56.5227 178.019 56.328 177.011 56.328H174.939V61.272Z" fill="black"/>
<g filter="url(#filter1_d_1820_4356)">
<circle cx="254.5" cy="47.5" r="45.5" fill="url(#paint2_linear_1820_4356)"/>
</g>
<g filter="url(#filter2_d_1820_4356)">
<circle cx="254.5" cy="47.5" r="32.5" fill="url(#paint3_linear_1820_4356)"/>
<circle cx="254.5" cy="47.5" r="32" stroke="#E25D03"/>
</g>
<path d="M244.27 51.976C244.51 51.976 244.696 52.0427 244.83 52.176C244.968 52.3093 245.038 52.4853 245.038 52.704V54H236.99V53.28C236.99 53.1413 237.019 52.992 237.078 52.832C237.136 52.6667 237.235 52.5173 237.374 52.384L240.814 48.936C241.107 48.6427 241.366 48.3627 241.59 48.096C241.814 47.824 242 47.56 242.15 47.304C242.299 47.0427 242.411 46.7787 242.486 46.512C242.56 46.2453 242.598 45.9653 242.598 45.672C242.598 45.1547 242.464 44.7627 242.198 44.496C241.931 44.224 241.555 44.088 241.07 44.088C240.856 44.088 240.659 44.12 240.477 44.184C240.302 44.2427 240.142 44.3253 239.998 44.432C239.859 44.5387 239.739 44.664 239.638 44.808C239.536 44.952 239.462 45.1093 239.414 45.28C239.318 45.5467 239.187 45.7253 239.022 45.816C238.862 45.9013 238.632 45.92 238.334 45.872L237.166 45.664C237.251 45.0987 237.411 44.6027 237.646 44.176C237.88 43.7493 238.174 43.3947 238.526 43.112C238.878 42.8293 239.28 42.6187 239.734 42.48C240.187 42.336 240.675 42.264 241.198 42.264C241.747 42.264 242.246 42.3467 242.694 42.512C243.147 42.672 243.534 42.8987 243.854 43.192C244.174 43.48 244.422 43.8293 244.598 44.24C244.774 44.6507 244.862 45.104 244.862 45.6C244.862 46.0267 244.8 46.4213 244.678 46.784C244.555 47.1467 244.387 47.4933 244.174 47.824C243.966 48.1493 243.723 48.4667 243.446 48.776C243.168 49.0853 242.875 49.3973 242.566 49.712L240.102 52.232C240.374 52.152 240.643 52.0907 240.91 52.048C241.176 52 241.427 51.976 241.662 51.976H244.27ZM254.639 48.192C254.639 49.2053 254.529 50.0853 254.311 50.832C254.092 51.5787 253.791 52.1973 253.407 52.688C253.023 53.1733 252.567 53.536 252.039 53.776C251.516 54.0107 250.951 54.128 250.343 54.128C249.735 54.128 249.169 54.0107 248.647 53.776C248.124 53.536 247.673 53.1733 247.295 52.688C246.916 52.1973 246.617 51.5787 246.399 50.832C246.185 50.0853 246.079 49.2053 246.079 48.192C246.079 47.1787 246.185 46.3013 246.399 45.56C246.617 44.8133 246.916 44.1973 247.295 43.712C247.673 43.2213 248.124 42.8587 248.647 42.624C249.169 42.384 249.735 42.264 250.343 42.264C250.951 42.264 251.516 42.384 252.039 42.624C252.567 42.8587 253.023 43.2213 253.407 43.712C253.791 44.1973 254.092 44.8133 254.311 45.56C254.529 46.3013 254.639 47.1787 254.639 48.192ZM252.359 48.192C252.359 47.3707 252.3 46.6933 252.183 46.16C252.071 45.6267 251.921 45.2053 251.735 44.896C251.548 44.5867 251.332 44.3707 251.087 44.248C250.847 44.1253 250.599 44.064 250.343 44.064C250.087 44.064 249.839 44.1253 249.599 44.248C249.364 44.3707 249.153 44.5867 248.967 44.896C248.785 45.2053 248.639 45.6267 248.527 46.16C248.415 46.6933 248.359 47.3707 248.359 48.192C248.359 49.0187 248.415 49.6987 248.527 50.232C248.639 50.7653 248.785 51.1867 248.967 51.496C249.153 51.8053 249.364 52.0213 249.599 52.144C249.839 52.2667 250.087 52.328 250.343 52.328C250.599 52.328 250.847 52.2667 251.087 52.144C251.332 52.0213 251.548 51.8053 251.735 51.496C251.921 51.1867 252.071 50.7653 252.183 50.232C252.3 49.6987 252.359 49.0187 252.359 48.192ZM262.832 51.976C263.072 51.976 263.259 52.0427 263.392 52.176C263.531 52.3093 263.6 52.4853 263.6 52.704V54H255.552V53.28C255.552 53.1413 255.581 52.992 255.64 52.832C255.699 52.6667 255.797 52.5173 255.936 52.384L259.376 48.936C259.669 48.6427 259.928 48.3627 260.152 48.096C260.376 47.824 260.563 47.56 260.712 47.304C260.861 47.0427 260.973 46.7787 261.048 46.512C261.123 46.2453 261.16 45.9653 261.16 45.672C261.16 45.1547 261.027 44.7627 260.76 44.496C260.493 44.224 260.117 44.088 259.632 44.088C259.419 44.088 259.221 44.12 259.04 44.184C258.864 44.2427 258.704 44.3253 258.56 44.432C258.421 44.5387 258.301 44.664 258.2 44.808C258.099 44.952 258.024 45.1093 257.976 45.28C257.88 45.5467 257.749 45.7253 257.584 45.816C257.424 45.9013 257.195 45.92 256.896 45.872L255.728 45.664C255.813 45.0987 255.973 44.6027 256.208 44.176C256.443 43.7493 256.736 43.3947 257.088 43.112C257.44 42.8293 257.843 42.6187 258.296 42.48C258.749 42.336 259.237 42.264 259.76 42.264C260.309 42.264 260.808 42.3467 261.256 42.512C261.709 42.672 262.096 42.8987 262.416 43.192C262.736 43.48 262.984 43.8293 263.16 44.24C263.336 44.6507 263.424 45.104 263.424 45.6C263.424 46.0267 263.363 46.4213 263.24 46.784C263.117 47.1467 262.949 47.4933 262.736 47.824C262.528 48.1493 262.285 48.4667 262.008 48.776C261.731 49.0853 261.437 49.3973 261.128 49.712L258.664 52.232C258.936 52.152 259.205 52.0907 259.472 52.048C259.739 52 259.989 51.976 260.224 51.976H262.832ZM273.201 48.192C273.201 49.2053 273.092 50.0853 272.873 50.832C272.655 51.5787 272.353 52.1973 271.969 52.688C271.585 53.1733 271.129 53.536 270.601 53.776C270.079 54.0107 269.513 54.128 268.905 54.128C268.297 54.128 267.732 54.0107 267.209 53.776C266.687 53.536 266.236 53.1733 265.857 52.688C265.479 52.1973 265.18 51.5787 264.961 50.832C264.748 50.0853 264.641 49.2053 264.641 48.192C264.641 47.1787 264.748 46.3013 264.961 45.56C265.18 44.8133 265.479 44.1973 265.857 43.712C266.236 43.2213 266.687 42.8587 267.209 42.624C267.732 42.384 268.297 42.264 268.905 42.264C269.513 42.264 270.079 42.384 270.601 42.624C271.129 42.8587 271.585 43.2213 271.969 43.712C272.353 44.1973 272.655 44.8133 272.873 45.56C273.092 46.3013 273.201 47.1787 273.201 48.192ZM270.921 48.192C270.921 47.3707 270.863 46.6933 270.745 46.16C270.633 45.6267 270.484 45.2053 270.297 44.896C270.111 44.5867 269.895 44.3707 269.649 44.248C269.409 44.1253 269.161 44.064 268.905 44.064C268.649 44.064 268.401 44.1253 268.161 44.248C267.927 44.3707 267.716 44.5867 267.529 44.896C267.348 45.2053 267.201 45.6267 267.089 46.16C266.977 46.6933 266.921 47.3707 266.921 48.192C266.921 49.0187 266.977 49.6987 267.089 50.232C267.201 50.7653 267.348 51.1867 267.529 51.496C267.716 51.8053 267.927 52.0213 268.161 52.144C268.401 52.2667 268.649 52.328 268.905 52.328C269.161 52.328 269.409 52.2667 269.649 52.144C269.895 52.0213 270.111 51.8053 270.297 51.496C270.484 51.1867 270.633 50.7653 270.745 50.232C270.863 49.6987 270.921 49.0187 270.921 48.192Z" fill="#2C3D3B"/>
<defs>
<filter id="filter0_d_1820_4356" x="0" y="0" width="250" height="105" filterUnits="userSpaceOnUse" color-interpolation-filters="sRGB">
<feFlood flood-opacity="0" result="BackgroundImageFix"/>
<feColorMatrix in="SourceAlpha" type="matrix" values="0 0 0 0 0 0 0 0 0 0 0 0 0 0 0 0 0 0 127 0" result="hardAlpha"/>
<feOffset dx="2" dy="5"/>
<feGaussianBlur stdDeviation="3.5"/>
<feComposite in2="hardAlpha" operator="out"/>
<feColorMatrix type="matrix" values="0 0 0 0 0 0 0 0 0 0 0 0 0 0 0 0 0 0 0.25 0"/>
<feBlend mode="normal" in2="BackgroundImageFix" result="effect1_dropShadow_1820_4356"/>
<feBlend mode="normal" in="SourceGraphic" in2="effect1_dropShadow_1820_4356" result="shape"/>
</filter>
<filter id="filter1_d_1820_4356" x="206" y="2" width="99" height="99" filterUnits="userSpaceOnUse" color-interpolation-filters="sRGB">
<feFlood flood-opacity="0" result="BackgroundImageFix"/>
<feColorMatrix in="SourceAlpha" type="matrix" values="0 0 0 0 0 0 0 0 0 0 0 0 0 0 0 0 0 0 127 0" result="hardAlpha"/>
<feOffset dx="1" dy="4"/>
<feGaussianBlur stdDeviation="2"/>
<feComposite in2="hardAlpha" operator="out"/>
<feColorMatrix type="matrix" values="0 0 0 0 0 0 0 0 0 0 0 0 0 0 0 0 0 0 0.37 0"/>
<feBlend mode="normal" in2="BackgroundImageFix" result="effect1_dropShadow_1820_4356"/>
<feBlend mode="normal" in="SourceGraphic" in2="effect1_dropShadow_1820_4356" result="shape"/>
</filter>
<filter id="filter2_d_1820_4356" x="219" y="15" width="73" height="73" filterUnits="userSpaceOnUse" color-interpolation-filters="sRGB">
<feFlood flood-opacity="0" result="BackgroundImageFix"/>
<feColorMatrix in="SourceAlpha" type="matrix" values="0 0 0 0 0 0 0 0 0 0 0 0 0 0 0 0 0 0 127 0" result="hardAlpha"/>
<feOffset dx="1" dy="4"/>
<feGaussianBlur stdDeviation="2"/>
<feComposite in2="hardAlpha" operator="out"/>
<feColorMatrix type="matrix" values="0 0 0 0 0 0 0 0 0 0 0 0 0 0 0 0 0 0 0.5 0"/>
<feBlend mode="normal" in2="BackgroundImageFix" result="effect1_dropShadow_1820_4356"/>
<feBlend mode="normal" in="SourceGraphic" in2="effect1_dropShadow_1820_4356" result="shape"/>
</filter>
<linearGradient id="paint0_linear_1820_4356" x1="123" y1="2" x2="123" y2="93" gradientUnits="userSpaceOnUse">
<stop offset="0.242708" stop-color="white"/>
<stop offset="1" stop-color="#D2D2D2"/>
</linearGradient>
<linearGradient id="paint1_linear_1820_4356" x1="123" y1="2" x2="123" y2="93" gradientUnits="userSpaceOnUse">
<stop offset="0.242708" stop-color="white"/>
<stop offset="1" stop-color="#D2D2D2"/>
</linearGradient>
<linearGradient id="paint2_linear_1820_4356" x1="245" y1="-1" x2="258.5" y2="95.5" gradientUnits="userSpaceOnUse">
<stop stop-color="#FEFEFE"/>
<stop offset="1" stop-color="#F3F4F4"/>
</linearGradient>
<linearGradient id="paint3_linear_1820_4356" x1="247" y1="13" x2="260.5" y2="83" gradientUnits="userSpaceOnUse">
<stop stop-color="#FEFEFE"/>
<stop offset="1" stop-color="#F3F4F4"/>
</linearGradient>
</defs>
</svg>
