<svg width="18" height="18" viewBox="0 0 18 18" fill="none" xmlns="http://www.w3.org/2000/svg">
<path d="M15.4982 4.25003C14.9869 4.4706 14.4304 4.62935 13.8573 4.69117C14.4523 4.33765 14.898 3.77914 15.1105 3.12043C14.5521 3.45261 13.9404 3.68553 13.3025 3.80888C13.0359 3.52385 12.7134 3.29679 12.3552 3.14183C11.997 2.98687 11.6107 2.90735 11.2204 2.90821C9.64132 2.90821 8.37135 4.1882 8.37135 5.75895C8.37135 5.97952 8.39809 6.20009 8.44153 6.41231C6.07706 6.28866 3.96825 5.15906 2.56628 3.42956C2.31082 3.86589 2.17695 4.3627 2.1786 4.8683C2.1786 5.85754 2.68158 6.7298 3.44857 7.2428C2.99657 7.225 2.55515 7.10076 2.16022 6.88019V6.91528C2.16022 8.30055 3.13943 9.44853 4.44449 9.71255C4.19945 9.7762 3.94737 9.80876 3.69421 9.80947C3.50872 9.80947 3.33327 9.79109 3.15614 9.76602C3.51708 10.8956 4.56814 11.7161 5.81973 11.7428C4.84052 12.5098 3.614 12.961 2.2822 12.961C2.04325 12.961 1.82268 12.9526 1.59375 12.9259C2.85703 13.7363 4.35592 14.2042 5.97012 14.2042C11.2104 14.2042 14.0778 9.86294 14.0778 6.09482C14.0778 5.97117 14.0778 5.84751 14.0695 5.72386C14.6243 5.3178 15.1105 4.81483 15.4982 4.25003Z" fill="white"/>
</svg>
