<svg width="35" height="35" viewBox="0 0 35 35" fill="none" xmlns="http://www.w3.org/2000/svg">
<path d="M27.4808 28.1333C27.0905 28.5264 26.455 28.5273 26.0636 28.1352L18.2058 20.2652C17.8152 19.8739 17.1812 19.8739 16.7905 20.2652L8.93028 28.1377C8.53985 28.5288 7.90626 28.529 7.51551 28.1383L6.86001 27.4828C6.46926 27.0921 6.46951 26.4585 6.86056 26.068L14.7332 18.2078C15.1244 17.8171 15.1244 17.1831 14.7332 16.7925L6.86056 8.93224C6.46951 8.5418 6.46926 7.90821 6.86001 7.51747L7.51552 6.86196C7.90626 6.47122 8.53985 6.47147 8.93028 6.86251L16.7911 14.7357C17.1815 15.1267 17.8151 15.127 18.2058 14.7362L26.0661 6.87599C26.4566 6.48546 27.0898 6.48546 27.4803 6.87599L28.1223 7.51802C28.5128 7.90855 28.5128 8.54171 28.1223 8.93224L20.2615 16.793C19.871 17.1835 19.871 17.8167 20.2615 18.2072L28.1248 26.0705C28.5144 26.4601 28.5155 27.0913 28.1273 27.4822L27.4808 28.1333Z" fill="white"/>
</svg>
