<svg width="1345" height="5" viewBox="0 0 1345 5" fill="none" xmlns="http://www.w3.org/2000/svg">
<path d="M1342.03 4.30533L1271.33 4.30533L1273.41 0.704102L1344.11 0.704102L1342.03 4.30533ZM1200.84 4.30533H1130.13L1132.21 0.704102L1202.81 0.704102L1200.84 4.30533ZM1059.59 4.30533H988.883L990.962 0.704102L1061.56 0.704102L1059.59 4.30533ZM918.393 4.30533L847.687 4.30533L849.766 0.704102L920.364 0.704102L918.393 4.30533ZM777.198 4.30533L706.492 4.30533L708.571 0.704102L779.169 0.704102L777.198 4.30533ZM636.002 4.30533H565.296L567.376 0.704102L637.973 0.704102L636.002 4.30533ZM494.807 4.30533H424.101L426.18 0.704102L496.778 0.704102L494.807 4.30533ZM353.611 4.30533L282.905 4.30533L284.985 0.704102L355.636 0.704102L353.611 4.30533ZM212.416 4.30533L141.71 4.30533L143.789 0.704102L214.387 0.704102L212.416 4.30533ZM71.2204 4.30533H0.514579L2.59375 0.704102L73.1915 0.704102L71.2204 4.30533Z" fill="white"/>
</svg>
